<svg width="23" height="19" viewBox="0 0 23 19" fill="none" xmlns="http://www.w3.org/2000/svg">
<path fill-rule="evenodd" clip-rule="evenodd" d="M20.0598 3.63043H17.712L16.4158 1.67391C15.9266 0.940217 15.0707 0.5 14.1902 0.5H8.80978C7.92935 0.5 7.07337 0.940217 6.58424 1.67391L5.28804 3.63043H2.94022C1.44837 3.63043 0.25 4.8288 0.25 6.32065V15.8098C0.25 17.3016 1.44837 18.5 2.94022 18.5H20.0598C21.5516 18.5 22.75 17.3016 22.75 15.8098V6.32065C22.75 4.8288 21.5516 3.63043 20.0598 3.63043ZM20.4511 6.58967C20.4755 7.02989 20.1576 7.39674 19.7174 7.4212H18.6413C18.2011 7.39674 17.8587 7.02989 17.8832 6.58967C17.9076 6.17391 18.2255 5.85598 18.6413 5.83152H19.6196C20.0598 5.80706 20.4266 6.14946 20.4511 6.58967ZM7.4091 10.7515C7.4091 8.48522 9.2579 6.63641 11.5242 6.63641C13.7904 6.63641 15.6392 8.4554 15.6392 10.7217C15.6392 12.9879 13.7904 14.8367 11.5242 14.8367C9.2579 14.8367 7.4091 13.0178 7.4091 10.7515Z" fill="white"/>
</svg>
