<svg width="277" height="189" viewBox="0 0 277 189" fill="none" xmlns="http://www.w3.org/2000/svg">
<path d="M29.7661 143.253C13.2445 128.907 1.59914 71.8626 55.4658 60.8981C109.333 49.9337 121.012 99.6392 148.021 87.7001C175.03 75.7611 215.178 -18.2896 261.652 11.4363C274.604 19.7205 282.257 45.1751 272.602 75.0301C256.056 126.198 103.006 206.847 29.7661 143.253Z" fill="url(#paint0_linear_15166_159608)"/>
<path opacity="0.5" d="M16.6369 137.942C12.9991 134.016 9.90278 127.475 8.17224 119.756C6.44375 112.047 6.08934 103.21 7.88928 94.723C9.68861 86.2384 13.6374 78.1153 20.5059 71.8002C27.3719 65.4875 37.1894 60.9503 50.7824 59.692C64.3838 58.4329 74.9499 60.6372 83.5902 64.4998C92.2375 68.3655 98.98 73.9026 104.926 79.3499C106.299 80.6081 107.633 81.8647 108.939 83.0957C113.266 87.1721 117.296 90.9682 121.479 93.6148C126.971 97.0892 132.79 98.6274 139.996 96.3371C143.598 95.1925 147.514 92.779 151.678 89.5398C155.847 86.2964 160.296 82.2001 164.963 77.6586C168.061 74.6432 171.255 71.4331 174.529 68.1415C181.135 61.5011 188.071 54.5291 195.223 48.1554C205.919 38.6245 217.026 30.5018 228.104 26.9009C239.146 23.3119 250.155 24.2121 260.753 32.739C266.603 37.4456 270.774 46.2412 271.872 57.4774C272.969 68.7003 270.992 82.3053 264.609 96.5505C259.175 108.678 245.104 121.789 225.924 133.526C206.764 145.251 182.578 155.56 157.019 162.119C105.856 175.248 49.4032 173.307 16.6369 137.942Z" stroke="url(#paint1_linear_15166_159608)"/>
<circle cx="49" cy="28.6582" r="11" fill="url(#paint2_linear_15166_159608)"/>
<circle opacity="0.6" cx="59" cy="33.6582" r="4" fill="url(#paint3_linear_15166_159608)"/>
<g clip-path="url(#clip0_15166_159608)">
<path d="M154.498 119.711H138.066H121.657C86.9161 119.711 75.5469 174.658 75.5469 174.658H138.077H200.608C200.596 174.658 189.227 119.711 154.498 119.711Z" fill="#EF4136"/>
<path d="M138.065 110.241C156.731 110.241 171.851 95.1095 171.851 76.4554C171.863 57.7893 156.731 42.6582 138.065 42.6582C119.411 42.6582 104.28 57.7893 104.28 76.4434C104.28 95.1095 119.411 110.241 138.065 110.241Z" fill="#EF4136"/>
<path d="M207.834 138.712H197.085H186.349C163.623 138.712 156.183 174.659 156.183 174.659H197.085H238C238 174.659 230.56 138.712 207.834 138.712Z" fill="url(#paint4_linear_15166_159608)"/>
<path d="M197.086 132.514C209.303 132.514 219.191 122.613 219.191 110.408C219.191 98.203 209.291 88.3027 197.086 88.3027C184.881 88.3027 174.98 98.203 174.98 110.408C174.98 122.613 184.881 132.514 197.086 132.514Z" fill="#EF4136"/>
<path d="M89.651 138.712H78.9029H68.1666C45.4401 138.712 38 174.659 38 174.659H78.9029H119.818C119.818 174.659 112.378 138.712 89.651 138.712Z" fill="url(#paint5_linear_15166_159608)"/>
<path d="M78.9033 132.514C91.1204 132.514 101.009 122.613 101.009 110.408C101.009 98.203 91.1085 88.3027 78.9033 88.3027C66.6981 88.3027 56.7979 98.203 56.7979 110.408C56.7979 122.613 66.6981 132.514 78.9033 132.514Z" fill="#EF4136"/>
<circle opacity="0.5" cx="233" cy="141.658" r="4.5" stroke="url(#paint6_linear_15166_159608)"/>
</g>
<defs>
<linearGradient id="paint0_linear_15166_159608" x1="146.449" y1="5.6582" x2="146.449" y2="166.658" gradientUnits="userSpaceOnUse">
<stop stop-color="#D51F40" stop-opacity="0.3"/>
<stop offset="1" stop-color="#D51F40" stop-opacity="0.03"/>
</linearGradient>
<linearGradient id="paint1_linear_15166_159608" x1="48.397" y1="37.1127" x2="138.989" y2="202.3" gradientUnits="userSpaceOnUse">
<stop offset="0.229167" stop-color="#E75570"/>
<stop offset="0.546875" stop-color="#ED676A"/>
<stop offset="0.744792" stop-color="#F17267"/>
<stop offset="1" stop-color="#FD965B"/>
</linearGradient>
<linearGradient id="paint2_linear_15166_159608" x1="49" y1="17.6582" x2="49" y2="39.6582" gradientUnits="userSpaceOnUse">
<stop stop-color="#D51F40" stop-opacity="0.3"/>
<stop offset="1" stop-color="#D51F40" stop-opacity="0.03"/>
</linearGradient>
<linearGradient id="paint3_linear_15166_159608" x1="54.5" y1="30.7351" x2="60.8706" y2="38.6886" gradientUnits="userSpaceOnUse">
<stop stop-color="#E75570"/>
<stop offset="1" stop-color="#F78460"/>
</linearGradient>
<linearGradient id="paint4_linear_15166_159608" x1="167.092" y1="146.201" x2="187.57" y2="187.328" gradientUnits="userSpaceOnUse">
<stop offset="0.229167" stop-color="#E75570"/>
<stop offset="0.546875" stop-color="#ED676A"/>
<stop offset="0.744792" stop-color="#F17267"/>
<stop offset="1" stop-color="#FD965B"/>
</linearGradient>
<linearGradient id="paint5_linear_15166_159608" x1="48.909" y1="146.201" x2="69.3876" y2="187.328" gradientUnits="userSpaceOnUse">
<stop offset="0.229167" stop-color="#E75570"/>
<stop offset="0.546875" stop-color="#ED676A"/>
<stop offset="0.744792" stop-color="#F17267"/>
<stop offset="1" stop-color="#FD965B"/>
</linearGradient>
<linearGradient id="paint6_linear_15166_159608" x1="229.333" y1="138.742" x2="236.417" y2="144.992" gradientUnits="userSpaceOnUse">
<stop offset="0.229167" stop-color="#E75570"/>
<stop offset="0.546875" stop-color="#ED676A"/>
<stop offset="0.744792" stop-color="#F17267"/>
<stop offset="1" stop-color="#FD965B"/>
</linearGradient>
<clipPath id="clip0_15166_159608">
<rect width="200" height="132" fill="white" transform="translate(38 42.6582)"/>
</clipPath>
</defs>
</svg>
