<svg width="20" height="20" viewBox="0 0 20 20" fill="none" xmlns="http://www.w3.org/2000/svg">
<path d="M14.1045 8.20223L9.37948 12.9272C9.23132 13.0742 9.03134 13.157 8.82266 13.1579C8.71797 13.1585 8.6142 13.1384 8.51728 13.0989C8.42036 13.0593 8.33222 13.0009 8.25789 12.9272L5.87152 10.5409C5.79697 10.4669 5.73779 10.3789 5.69741 10.282C5.65702 10.1851 5.63623 10.0811 5.63623 9.97609C5.63623 9.87108 5.65702 9.76711 5.69741 9.67018C5.73779 9.57324 5.79697 9.48527 5.87152 9.41132C6.02056 9.26316 6.22217 9.18001 6.43232 9.18001C6.64247 9.18001 6.84408 9.26316 6.99312 9.41132L8.7988 11.217L12.959 7.04882C13.1081 6.90066 13.3097 6.8175 13.5198 6.8175C13.73 6.8175 13.9316 6.90066 14.0806 7.04882C14.1604 7.1215 14.2246 7.20965 14.2692 7.30792C14.3138 7.40618 14.338 7.5125 14.3402 7.6204C14.3424 7.7283 14.3227 7.83552 14.2822 7.93555C14.2416 8.03558 14.1812 8.12631 14.1045 8.20223Z" fill="#59E8B5"/>
<path d="M10 1.25C8.26942 1.25 6.57769 1.76318 5.13876 2.72464C3.69983 3.6861 2.57832 5.05267 1.91606 6.65152C1.25379 8.25037 1.08051 10.0097 1.41813 11.707C1.75575 13.4044 2.58911 14.9635 3.81282 16.1872C5.03653 17.4109 6.59563 18.2442 8.29296 18.5819C9.9903 18.9195 11.7496 18.7462 13.3485 18.0839C14.9473 17.4217 16.3139 16.3002 17.2754 14.8612C18.2368 13.4223 18.75 11.7306 18.75 10C18.75 7.67935 17.8281 5.45376 16.1872 3.81282C14.5462 2.17187 12.3206 1.25 10 1.25ZM14.1045 8.20227L9.37955 12.9273C9.23139 13.0742 9.03141 13.1571 8.82273 13.158C8.71804 13.1586 8.61427 13.1385 8.51735 13.0989C8.42043 13.0593 8.33229 13.001 8.25796 12.9273L5.87159 10.5409C5.79704 10.467 5.73786 10.379 5.69748 10.282C5.65709 10.1851 5.6363 10.0811 5.6363 9.97614C5.6363 9.87113 5.65709 9.76715 5.69748 9.67022C5.73786 9.57329 5.79704 9.48531 5.87159 9.41136C6.02063 9.26321 6.22224 9.18005 6.43239 9.18005C6.64254 9.18005 6.84415 9.26321 6.99319 9.41136L8.79887 11.217L12.9591 7.04886C13.1081 6.90071 13.3097 6.81755 13.5199 6.81755C13.73 6.81755 13.9316 6.90071 14.0807 7.04886C14.1605 7.12154 14.2246 7.2097 14.2693 7.30796C14.3139 7.40622 14.338 7.51254 14.3403 7.62044C14.3425 7.72834 14.3228 7.83557 14.2822 7.9356C14.2417 8.03562 14.1813 8.12635 14.1045 8.20227Z" fill="#09271D"/>
</svg>
