<svg width="24" height="24" viewBox="0 0 24 24" fill="none" xmlns="http://www.w3.org/2000/svg">
<rect x="2" y="2" width="20" height="20" rx="3" fill="#F37024"/>
<path d="M17.8332 9.62347C17.8332 9.82923 17.7629 10.0041 17.6224 10.1482L12.173 15.7346L11.1493 16.784C11.0088 16.928 10.8382 17 10.6375 17C10.4368 17 10.2661 16.928 10.1256 16.784L9.10199 15.7346L6.37726 12.9414C6.23675 12.7973 6.1665 12.6224 6.1665 12.4167C6.1665 12.2109 6.23675 12.036 6.37726 11.892L7.40091 10.8426C7.54141 10.6986 7.71202 10.6266 7.91274 10.6266C8.11346 10.6266 8.28407 10.6986 8.42457 10.8426L10.6375 13.1188L15.5751 8.04939C15.7156 7.90536 15.8862 7.83334 16.0869 7.83334C16.2877 7.83334 16.4583 7.90536 16.5988 8.04939L17.6224 9.09878C17.7629 9.24281 17.8332 9.41771 17.8332 9.62347Z" fill="#1A1817"/>
</svg>
