<svg width="24" height="24" viewBox="0 0 24 24" fill="none" xmlns="http://www.w3.org/2000/svg">
<g opacity="0.5">
<rect x="2" y="2" width="20" height="20" rx="3" fill="#F37024"/>
<path d="M17.8332 9.62344C17.8332 9.8292 17.7629 10.0041 17.6224 10.1481L12.173 15.7345L11.1493 16.7839C11.0088 16.928 10.8382 17 10.6375 17C10.4368 17 10.2661 16.928 10.1256 16.7839L9.10199 15.7345L6.37726 12.9413C6.23675 12.7973 6.1665 12.6224 6.1665 12.4166C6.1665 12.2109 6.23675 12.036 6.37726 11.892L7.40091 10.8426C7.54141 10.6985 7.71202 10.6265 7.91274 10.6265C8.11346 10.6265 8.28407 10.6985 8.42457 10.8426L10.6375 13.1188L15.5751 8.04936C15.7156 7.90533 15.8862 7.83331 16.0869 7.83331C16.2877 7.83331 16.4583 7.90533 16.5988 8.04936L17.6224 9.09875C17.7629 9.24278 17.8332 9.41768 17.8332 9.62344Z" fill="#1A1817"/>
</g>
</svg>
