<svg width="28" height="28" viewBox="0 0 28 28" fill="none" xmlns="http://www.w3.org/2000/svg">
<g filter="url(#filter0_d)">
<circle cx="16" cy="12" r="8" fill="url(#paint0_linear)"/>
</g>
<path d="M16 7.9375C15.4861 7.9375 15.0625 8.36108 15.0625 8.875C15.0625 9.22656 15.2603 9.5354 15.5508 9.69531L14.6328 11.5312L13.1973 10.5059C13.3853 10.3337 13.5 10.0847 13.5 9.8125C13.5 9.29858 13.0764 8.875 12.5625 8.875C12.0486 8.875 11.625 9.29858 11.625 9.8125C11.625 10.2336 11.9143 10.584 12.2988 10.7012L12.875 13.875V15.4375H19.125V13.875L19.7012 10.7012C20.0857 10.584 20.375 10.2336 20.375 9.8125C20.375 9.29858 19.9514 8.875 19.4375 8.875C18.9236 8.875 18.5 9.29858 18.5 9.8125C18.5 10.0847 18.6147 10.3337 18.8027 10.5059L17.3672 11.5312L16.4492 9.69531C16.7397 9.5354 16.9375 9.22656 16.9375 8.875C16.9375 8.36108 16.5139 7.9375 16 7.9375ZM16 8.5625C16.1758 8.5625 16.3125 8.69922 16.3125 8.875C16.3125 9.05078 16.1758 9.1875 16 9.1875C15.8242 9.1875 15.6875 9.05078 15.6875 8.875C15.6875 8.69922 15.8242 8.5625 16 8.5625ZM12.5625 9.5C12.7383 9.5 12.875 9.63672 12.875 9.8125C12.875 9.98828 12.7383 10.125 12.5625 10.125C12.3867 10.125 12.25 9.98828 12.25 9.8125C12.25 9.63672 12.3867 9.5 12.5625 9.5ZM19.4375 9.5C19.6133 9.5 19.75 9.63672 19.75 9.8125C19.75 9.98828 19.6133 10.125 19.4375 10.125C19.2617 10.125 19.125 9.98828 19.125 9.8125C19.125 9.63672 19.2617 9.5 19.4375 9.5ZM16 10.2031L16.9668 12.1367L17.4355 12.2539L18.998 11.1406L18.5586 13.5625H13.4414L13.002 11.1406L14.5645 12.2539L15.0332 12.1367L16 10.2031ZM13.5 14.1875H18.5V14.8125H13.5V14.1875Z" fill="white"/>
<defs>
<filter id="filter0_d" x="0" y="0" width="28" height="28" filterUnits="userSpaceOnUse" color-interpolation-filters="sRGB">
<feFlood flood-opacity="0" result="BackgroundImageFix"/>
<feColorMatrix in="SourceAlpha" type="matrix" values="0 0 0 0 0 0 0 0 0 0 0 0 0 0 0 0 0 0 127 0" result="hardAlpha"/>
<feOffset dx="-2" dy="2"/>
<feGaussianBlur stdDeviation="3"/>
<feColorMatrix type="matrix" values="0 0 0 0 0.835294 0 0 0 0 0.121569 0 0 0 0 0.25098 0 0 0 0.32 0"/>
<feBlend mode="normal" in2="BackgroundImageFix" result="effect1_dropShadow"/>
<feBlend mode="normal" in="SourceGraphic" in2="effect1_dropShadow" result="shape"/>
</filter>
<linearGradient id="paint0_linear" x1="10.1333" y1="7.33333" x2="21.4667" y2="17.3333" gradientUnits="userSpaceOnUse">
<stop offset="0.442708" stop-color="#D51F40"/>
<stop offset="0.682292" stop-color="#E24134"/>
<stop offset="0.859375" stop-color="#E8542E"/>
<stop offset="1" stop-color="#F37024"/>
</linearGradient>
</defs>
</svg>
