<svg width="19" height="16" viewBox="0 0 19 16" fill="none" xmlns="http://www.w3.org/2000/svg">
<path d="M15.9977 1.94972C14.8325 1.38105 13.5867 0.967754 12.2842 0.732422C12.1242 1.03411 11.9373 1.43989 11.8085 1.76268C10.4239 1.54547 9.05201 1.54547 7.69287 1.76268C7.56404 1.43989 7.37292 1.03411 7.21152 0.732422C5.90761 0.967754 4.66032 1.38256 3.49514 1.95274C1.14498 5.65738 0.507892 9.27001 0.826438 12.8313C2.38519 14.0456 3.89581 14.7832 5.38093 15.2659C5.74762 14.7395 6.07465 14.1799 6.35638 13.5901C5.81981 13.3774 5.3059 13.1149 4.82031 12.8102C4.94913 12.7107 5.07514 12.6066 5.19689 12.4995C8.15865 13.9446 11.3767 13.9446 14.3031 12.4995C14.4262 12.6066 14.5522 12.7107 14.6796 12.8102C14.1926 13.1164 13.6773 13.3789 13.1407 13.5916C13.4225 14.1799 13.7481 14.741 14.1162 15.2674C15.6027 14.7847 17.1147 14.0471 18.6735 12.8313C19.0473 8.70285 18.035 5.1234 15.9977 1.94972ZM6.75988 10.6412C5.87079 10.6412 5.14166 9.77532 5.14166 8.72095C5.14166 7.66658 5.85522 6.79925 6.75988 6.79925C7.66457 6.79925 8.39367 7.66506 8.3781 8.72095C8.37951 9.77532 7.66457 10.6412 6.75988 10.6412ZM12.7401 10.6412C11.851 10.6412 11.1218 9.77532 11.1218 8.72095C11.1218 7.66658 11.8354 6.79925 12.7401 6.79925C13.6447 6.79925 14.3738 7.66506 14.3583 8.72095C14.3583 9.77532 13.6447 10.6412 12.7401 10.6412Z" fill="#4E5156"/>
</svg>
