<svg width="85" height="24" viewBox="0 0 85 24" fill="none" xmlns="http://www.w3.org/2000/svg">
<g clip-path="url(#clip0_10432:105601)">
<path d="M18.2769 4.94818C16.9184 4.28536 15.4659 3.80365 13.9474 3.52936C13.7609 3.88099 13.543 4.35394 13.3928 4.73017C11.7785 4.477 10.1791 4.477 8.59449 4.73017C8.4443 4.35394 8.22147 3.88099 8.0333 3.52936C6.5131 3.80365 5.05893 4.28713 3.70049 4.95169C0.960498 9.26962 0.217733 13.4803 0.589116 17.6312C2.40642 19.0465 4.16761 19.9062 5.89907 20.4688C6.32658 19.8552 6.70786 19.2029 7.03632 18.5155C6.41075 18.2676 5.81159 17.9617 5.24545 17.6066C5.39565 17.4905 5.54256 17.3692 5.6845 17.2444C9.13753 18.9287 12.8893 18.9287 16.3011 17.2444C16.4447 17.3692 16.5916 17.4905 16.7402 17.6066C16.1724 17.9635 15.5716 18.2694 14.946 18.5173C15.2744 19.2029 15.6541 19.857 16.0832 20.4705C17.8164 19.9079 19.5792 19.0482 21.3965 17.6312C21.8323 12.8192 20.6521 8.64724 18.2769 4.94818ZM7.50675 15.0784C6.47018 15.0784 5.62012 14.0693 5.62012 12.8403C5.62012 11.6114 6.45203 10.6005 7.50675 10.6005C8.5615 10.6005 9.41154 11.6096 9.39338 12.8403C9.39502 14.0693 8.5615 15.0784 7.50675 15.0784ZM14.4789 15.0784C13.4423 15.0784 12.5922 14.0693 12.5922 12.8403C12.5922 11.6114 13.4241 10.6005 14.4789 10.6005C15.5336 10.6005 16.3837 11.6096 16.3655 12.8403C16.3655 14.0693 15.5336 15.0784 14.4789 15.0784Z" fill="#F1EBEB"/>
<path d="M28.7002 7.8512H33.2062C34.2924 7.8512 35.2101 8.03228 35.963 8.3927C36.7138 8.75309 37.2767 9.25592 37.6499 9.89939C38.0227 10.5429 38.2108 11.2795 38.2108 12.1093C38.2108 12.9216 38.0161 13.6582 37.6266 14.3175C37.2371 14.9786 36.6444 15.5007 35.8473 15.8858C35.0502 16.2708 34.0629 16.4642 32.8829 16.4642H28.7002V7.8512ZM32.8365 14.2753C33.5678 14.2753 34.1308 14.0802 34.5234 13.6916C34.9164 13.3013 35.1129 12.7704 35.1129 12.097C35.1129 11.4729 34.9377 10.9753 34.5879 10.6026C34.2381 10.2299 33.7082 10.0418 32.9999 10.0418H31.5903V14.2753H32.8365Z" fill="#F1EBEB"/>
<path d="M44.9571 16.4536C44.3331 16.2813 43.7702 16.0317 43.2702 15.7029V13.66C43.6482 13.9711 44.1548 14.2279 44.7903 14.43C45.4257 14.6305 46.0399 14.7307 46.6339 14.7307C46.9113 14.7307 47.121 14.692 47.2628 14.6146C47.4049 14.5373 47.476 14.4441 47.476 14.3368C47.476 14.2138 47.438 14.1118 47.3603 14.0292C47.2826 13.9465 47.1325 13.878 46.9098 13.8199L45.5232 13.4877C44.7293 13.2908 44.1663 13.0183 43.8315 12.6684C43.4963 12.3203 43.3295 11.8632 43.3295 11.2971C43.3295 10.8206 43.4747 10.4075 43.7687 10.0541C44.0607 9.7007 44.4767 9.42818 45.0164 9.23654C45.5563 9.04316 46.1866 8.94647 46.9113 8.94647C47.5582 8.94647 48.1508 9.0203 48.6908 9.16799C49.2305 9.31568 49.6761 9.50378 50.0311 9.73409V11.6663C49.6677 11.436 49.2518 11.2549 48.7765 11.1177C48.3027 10.9824 47.816 10.9156 47.314 10.9156C46.5894 10.9156 46.228 11.0474 46.228 11.3094C46.228 11.4325 46.2841 11.5239 46.3963 11.5854C46.5085 11.6469 46.7148 11.7102 47.0137 11.777L48.169 11.9986C48.9235 12.1375 49.4862 12.3818 49.8559 12.7299C50.2258 13.078 50.4105 13.5932 50.4105 14.2753C50.4105 15.0225 50.1053 15.615 49.4928 16.0545C48.8804 16.4941 48.0122 16.7138 46.8865 16.7138C46.2246 16.7121 45.5811 16.6259 44.9571 16.4536Z" fill="#F1EBEB"/>
<path d="M53.1374 16.1952C52.4758 15.8506 51.9755 15.3829 51.6421 14.7922C51.3087 14.2015 51.1404 13.5369 51.1404 12.7985C51.1404 12.0601 51.3136 11.3991 51.6602 10.8171C52.0069 10.2352 52.5152 9.77807 53.1855 9.44579C53.8555 9.11351 54.656 8.94824 55.5887 8.94824C56.744 8.94824 57.7031 9.20669 58.4657 9.72356V11.9757C58.1967 11.7788 57.8828 11.6188 57.5247 11.4958C57.1665 11.3727 56.7837 11.3111 56.3743 11.3111C55.658 11.3111 55.0985 11.45 54.694 11.7296C54.2895 12.0091 54.0867 12.373 54.0867 12.8249C54.0867 13.2679 54.2829 13.6301 54.6759 13.9149C55.0688 14.198 55.6382 14.3404 56.3858 14.3404C56.7704 14.3404 57.1501 14.2806 57.5247 14.1628C57.8978 14.0433 58.2197 13.8973 58.4887 13.725V15.9033C57.6421 16.4448 56.66 16.7156 55.5424 16.7156C54.6017 16.7121 53.7994 16.5398 53.1374 16.1952Z" fill="#F1EBEB"/>
<path d="M61.3475 16.1952C60.6807 15.8506 60.1724 15.3795 59.8223 14.7799C59.4725 14.1804 59.2959 13.5124 59.2959 12.7739C59.2959 12.0355 59.4708 11.3762 59.8223 10.7978C60.1738 10.2194 60.679 9.7658 61.3427 9.43703C62.0043 9.10826 62.7951 8.94476 63.711 8.94476C64.6273 8.94476 65.4178 9.10826 66.0797 9.43703C66.7417 9.7658 67.2468 10.2159 67.5935 10.7908C67.9401 11.3657 68.1133 12.025 68.1133 12.7722C68.1133 13.5106 67.9401 14.1787 67.5935 14.7782C67.2468 15.3777 66.7399 15.8489 66.0731 16.1935C65.4063 16.5381 64.6189 16.7104 63.7096 16.7104C62.8 16.7104 62.0126 16.5398 61.3475 16.1952ZM64.8583 14.0116C65.139 13.7128 65.2809 13.3172 65.2809 12.8249C65.2809 12.3327 65.1405 11.9406 64.8583 11.6505C64.5778 11.3587 64.1946 11.2127 63.7096 11.2127C63.216 11.2127 62.8296 11.3587 62.5474 11.6505C62.2669 11.9424 62.1266 12.3327 62.1266 12.8249C62.1266 13.3172 62.2669 13.7128 62.5474 14.0116C62.8282 14.3105 63.216 14.4617 63.7096 14.4617C64.1946 14.46 64.5778 14.3105 64.8583 14.0116Z" fill="#F1EBEB"/>
<path d="M75.0557 9.4018V12.0601C74.762 11.8544 74.3823 11.7524 73.912 11.7524C73.2961 11.7524 72.8208 11.9511 72.4906 12.3484C72.1589 12.7457 71.9938 13.3646 71.9938 14.2014V16.4659H69.1631V9.26644H71.9362V11.5555C72.0896 10.7186 72.339 10.1015 72.6822 9.70243C73.0239 9.30511 73.4661 9.10645 74.0043 9.10645C74.4119 9.10645 74.762 9.20491 75.0557 9.4018Z" fill="#F1EBEB"/>
<path d="M84.4609 7.60504V16.4659H81.6299V14.8538C81.3906 15.4603 81.0276 15.9227 80.5391 16.2391C80.0503 16.5539 79.4462 16.7121 78.7299 16.7121C78.0896 16.7121 77.5318 16.5468 77.0545 16.2145C76.5776 15.8823 76.2096 15.4269 75.9504 14.8485C75.693 14.2701 75.5624 13.6161 75.5624 12.8847C75.5543 12.1305 75.6913 11.4536 75.9735 10.854C76.2542 10.2545 76.6518 9.78688 77.1636 9.45106C77.6753 9.11527 78.2596 8.94649 78.9149 8.94649C80.2635 8.94649 81.1679 9.57061 81.6299 10.8171V7.60504H84.4609ZM81.2076 13.9624C81.4965 13.6635 81.64 13.275 81.64 12.8003C81.64 12.3414 81.4996 11.9669 81.2191 11.6804C80.9384 11.3938 80.5538 11.2496 80.0702 11.2496C79.5932 11.2496 79.2121 11.3955 78.9264 11.6874C78.6407 11.9793 78.4989 12.3572 78.4989 12.8249C78.4989 13.2926 78.6407 13.6741 78.9264 13.9694C79.2121 14.2648 79.5883 14.4125 80.0587 14.4125C80.5356 14.4107 80.9185 14.2613 81.2076 13.9624Z" fill="#F1EBEB"/>
<path d="M40.5962 10.0329C41.3755 10.0329 42.0075 9.42838 42.0075 8.68267C42.0075 7.93696 41.3755 7.33246 40.5962 7.33246C39.8166 7.33246 39.1848 7.93696 39.1848 8.68267C39.1848 9.42838 39.8166 10.0329 40.5962 10.0329Z" fill="#F1EBEB"/>
<path d="M39.1837 10.963C40.0484 11.3603 41.1214 11.3779 42.006 10.963V16.5046H39.1837V10.963Z" fill="#F1EBEB"/>
</g>
<defs>
<clipPath id="clip0_10432:105601">
<rect width="84" height="24" fill="white" transform="translate(0.5)"/>
</clipPath>
</defs>
</svg>
