<svg width="21" height="20" viewBox="0 0 21 20" fill="none" xmlns="http://www.w3.org/2000/svg">
<g clip-path="url(#clip0)">
<path d="M10.956 3.95582C10.8978 3.90019 10.8204 3.86914 10.7399 3.86914C10.6595 3.86914 10.5821 3.90019 10.5239 3.95582L3.33252 10.8257C3.30198 10.855 3.27768 10.8901 3.2611 10.9289C3.24451 10.9678 3.23599 11.0097 3.23604 11.0519L3.23486 17.4996C3.23486 17.8311 3.36656 18.149 3.60098 18.3835C3.8354 18.6179 4.15334 18.7496 4.48486 18.7496H8.23877C8.40453 18.7496 8.5635 18.6837 8.68071 18.5665C8.79792 18.4493 8.86377 18.2903 8.86377 18.1246V12.8121C8.86377 12.7292 8.89669 12.6497 8.9553 12.5911C9.0139 12.5325 9.09339 12.4996 9.17627 12.4996H12.3013C12.3841 12.4996 12.4636 12.5325 12.5222 12.5911C12.5808 12.6497 12.6138 12.7292 12.6138 12.8121V18.1246C12.6138 18.2903 12.6796 18.4493 12.7968 18.5665C12.914 18.6837 13.073 18.7496 13.2388 18.7496H16.9911C17.3226 18.7496 17.6406 18.6179 17.875 18.3835C18.1094 18.149 18.2411 17.8311 18.2411 17.4996V11.0519C18.2412 11.0097 18.2326 10.9678 18.2161 10.9289C18.1995 10.8901 18.1752 10.855 18.1446 10.8257L10.956 3.95582Z" fill="white"/>
<path d="M19.915 9.53712L16.9931 6.7418V2.5C16.9931 2.33424 16.9272 2.17527 16.81 2.05806C16.6928 1.94085 16.5338 1.875 16.3681 1.875H14.4931C14.3273 1.875 14.1684 1.94085 14.0511 2.05806C13.9339 2.17527 13.8681 2.33424 13.8681 2.5V3.75L11.6056 1.58672C11.3939 1.37266 11.079 1.25 10.7388 1.25C10.3997 1.25 10.0857 1.37266 9.87394 1.58711L1.56535 9.53634C1.32238 9.77071 1.29191 10.1563 1.513 10.4102C1.56852 10.4743 1.6365 10.5264 1.71281 10.5634C1.78911 10.6003 1.87214 10.6214 1.95685 10.6253C2.04155 10.6292 2.12616 10.6158 2.20552 10.5859C2.28488 10.556 2.35733 10.5103 2.41847 10.4516L10.5239 2.70625C10.5821 2.65062 10.6595 2.61957 10.74 2.61957C10.8204 2.61957 10.8978 2.65062 10.956 2.70625L19.0622 10.4516C19.1816 10.5661 19.3416 10.6286 19.507 10.6254C19.6724 10.6221 19.8298 10.5535 19.9446 10.4344C20.1845 10.1859 20.1646 9.77579 19.915 9.53712Z" fill="white"/>
</g>
<defs>
<clipPath id="clip0">
<rect width="20" height="20" fill="white" transform="translate(0.73877)"/>
</clipPath>
</defs>
</svg>
