<svg width="25" height="24" viewBox="0 0 25 24" fill="none" xmlns="http://www.w3.org/2000/svg">
<path d="M8.416 22.0001H16.584C20.123 22.0001 22.5 19.7241 22.5 16.3351V7.66512C22.5 4.27612 20.123 2.00012 16.584 2.00012H8.416C4.878 2.00012 2.5 4.27712 2.5 7.66612V16.3351C2.5 19.7241 4.878 22.0001 8.416 22.0001Z" fill="#DBD2CF"/>
<path className="arrow" d="M13.3554 16.2794L17.1204 12.5314C17.4034 12.2494 17.4034 11.7504 17.1204 11.4674L13.3554 7.71935C13.0614 7.42735 12.5864 7.42835 12.2944 7.72235C12.0024 8.01635 12.0024 8.49035 12.2964 8.78335L14.7734 11.2504H8.41846C8.00346 11.2504 7.66846 11.5864 7.66846 12.0004C7.66846 12.4144 8.00346 12.7504 8.41846 12.7504H14.7734L12.2964 15.2164C12.1494 15.3634 12.0764 15.5554 12.0764 15.7484C12.0764 15.9394 12.1494 16.1314 12.2944 16.2774C12.5864 16.5704 13.0614 16.5714 13.3554 16.2794Z" fill="#F04C54"/>
</svg>
