<svg width="24" height="24" viewBox="0 0 24 24" fill="none" xmlns="http://www.w3.org/2000/svg">
<path fill-rule="evenodd" clip-rule="evenodd" d="M10.233 8.0455C10.6723 7.60616 10.6723 6.89384 10.233 6.4545C9.79365 6.01517 9.08135 6.01517 8.642 6.4545L3.892 11.2045C3.45267 11.6438 3.45267 12.3562 3.892 12.7955L8.642 17.5455C9.08135 17.9848 9.79365 17.9848 10.233 17.5455C10.6723 17.1062 10.6723 16.3938 10.233 15.9545L7.40349 13.125H19.3125C19.9338 13.125 20.4375 12.6213 20.4375 12C20.4375 11.3787 19.9338 10.875 19.3125 10.875H7.40349L10.233 8.0455Z" fill="url(#paint0_linear)"/>
<defs>
<linearGradient id="paint0_linear" x1="5.8125" y1="8.57292" x2="13.9709" y2="18.9113" gradientUnits="userSpaceOnUse">
<stop offset="0.442708" stop-color="#D51F40"/>
<stop offset="0.682292" stop-color="#E24134"/>
<stop offset="0.859375" stop-color="#E8542E"/>
<stop offset="1" stop-color="#F37024"/>
</linearGradient>
</defs>
</svg>
