<svg width="28" height="28" viewBox="0 0 28 28" fill="none" xmlns="http://www.w3.org/2000/svg">
<path d="M14 0.666748C11.3629 0.666748 8.78508 1.44873 6.59242 2.91382C4.39977 4.37891 2.6908 6.46129 1.68163 8.89764C0.672464 11.334 0.40842 14.0149 0.922889 16.6013C1.43736 19.1877 2.70724 21.5635 4.57194 23.4282C6.43664 25.2929 8.81241 26.5627 11.3988 27.0772C13.9852 27.5917 16.6661 27.3276 19.1025 26.3185C21.5388 25.3093 23.6212 23.6003 25.0863 21.4077C26.5514 19.215 27.3334 16.6372 27.3334 14.0001C27.3334 12.2491 26.9885 10.5153 26.3184 8.89764C25.6484 7.27996 24.6662 5.81011 23.4281 4.57199C22.19 3.33388 20.7201 2.35175 19.1025 1.68169C17.4848 1.01162 15.751 0.666748 14 0.666748ZM14 24.6667C11.8904 24.6667 9.82807 24.0412 8.07394 22.8691C6.31982 21.697 4.95265 20.0311 4.14531 18.082C3.33798 16.133 3.12674 13.9882 3.53832 11.9191C3.94989 9.84999 4.96579 7.94937 6.45755 6.45761C7.94931 4.96585 9.84993 3.94995 11.9191 3.53837C13.9882 3.1268 16.1329 3.33803 18.082 4.14537C20.0311 4.9527 21.697 6.31987 22.869 8.074C24.0411 9.82812 24.6667 11.8904 24.6667 14.0001C24.6667 16.8291 23.5429 19.5422 21.5425 21.5426C19.5421 23.5429 16.829 24.6667 14 24.6667ZM19.3334 12.6667H15.3334V8.66675C15.3334 8.31313 15.1929 7.97399 14.9428 7.72394C14.6928 7.47389 14.3536 7.33342 14 7.33342C13.6464 7.33342 13.3073 7.47389 13.0572 7.72394C12.8072 7.97399 12.6667 8.31313 12.6667 8.66675V12.6667H8.66669C8.31307 12.6667 7.97393 12.8072 7.72388 13.0573C7.47383 13.3073 7.33336 13.6465 7.33336 14.0001C7.33336 14.3537 7.47383 14.6928 7.72388 14.9429C7.97393 15.1929 8.31307 15.3334 8.66669 15.3334H12.6667V19.3334C12.6667 19.687 12.8072 20.0262 13.0572 20.2762C13.3073 20.5263 13.6464 20.6667 14 20.6667C14.3536 20.6667 14.6928 20.5263 14.9428 20.2762C15.1929 20.0262 15.3334 19.687 15.3334 19.3334V15.3334H19.3334C19.687 15.3334 20.0261 15.1929 20.2762 14.9429C20.5262 14.6928 20.6667 14.3537 20.6667 14.0001C20.6667 13.6465 20.5262 13.3073 20.2762 13.0573C20.0261 12.8072 19.687 12.6667 19.3334 12.6667Z" fill="url(#paint0_linear_13029_11586)"/>
<defs>
<linearGradient id="paint0_linear_13029_11586" x1="0.666687" y1="14.0002" x2="27.3334" y2="14.0002" gradientUnits="userSpaceOnUse">
<stop stop-color="#D51F40"/>
<stop offset="1" stop-color="#F37024"/>
</linearGradient>
</defs>
</svg>
