<svg width="18" height="18" viewBox="0 0 18 18" fill="none" xmlns="http://www.w3.org/2000/svg">
<path d="M16.5127 8.99886C16.5146 7.73706 16.1987 6.49509 15.5941 5.38756C14.9895 4.28003 14.1157 3.34263 13.0533 2.66185C11.9909 1.98107 10.7741 1.57885 9.51529 1.4923C8.25645 1.40576 6.99609 1.63767 5.85052 2.16665C4.70494 2.69563 3.71105 3.50462 2.96057 4.51899C2.21009 5.53335 1.72718 6.7204 1.55642 7.9706C1.38566 9.2208 1.53254 10.4939 1.98351 11.6723C2.43448 12.8508 3.17501 13.8967 4.13677 14.7135C5.49135 15.8699 7.21396 16.5051 8.99498 16.5051C10.776 16.5051 12.4986 15.8699 13.8532 14.7135C14.6839 14.0105 15.352 13.1353 15.8112 12.1486C16.2704 11.1619 16.5098 10.0872 16.5127 8.99886ZM2.48899 8.99886C2.48765 7.95317 2.7382 6.92253 3.21943 5.99415C3.70067 5.06577 4.39843 4.26695 5.25369 3.66528C6.10895 3.06361 7.09655 2.67679 8.13293 2.53754C9.16932 2.39829 10.224 2.5107 11.2077 2.86528C12.1915 3.21986 13.0754 3.80616 13.7846 4.57459C14.4938 5.34301 15.0075 6.27096 15.2822 7.27992C15.557 8.28888 15.5847 9.34917 15.3629 10.3711C15.1412 11.393 14.6766 12.3465 14.0084 13.1509V13.0056C14.0084 12.2086 13.6918 11.4443 13.1283 10.8807C12.5647 10.3172 11.8004 10.0006 11.0034 10.0006H6.9966C6.19961 10.0006 5.43525 10.3172 4.87169 10.8807C4.30813 11.4443 3.99153 12.2086 3.99153 13.0056V13.1509C3.02012 11.9854 2.48839 10.5161 2.48899 8.99886ZM4.99322 14.1225V13.0056C4.99322 12.4743 5.20429 11.9647 5.58 11.589C5.9557 11.2133 6.46527 11.0022 6.9966 11.0022H11.0034C11.5347 11.0022 12.0443 11.2133 12.42 11.589C12.7957 11.9647 13.0068 12.4743 13.0068 13.0056V14.1225C11.8652 15.0227 10.4538 15.5122 8.99999 15.5122C7.54621 15.5122 6.13478 15.0227 4.99322 14.1225Z" fill="#D4D6D8"/>
<path d="M9 9C9.55626 9 10.1 8.83505 10.5625 8.52601C11.0251 8.21697 11.3855 7.77772 11.5984 7.2638C11.8113 6.74988 11.867 6.18438 11.7585 5.63881C11.6499 5.09324 11.3821 4.5921 10.9887 4.19876C10.5954 3.80543 10.0943 3.53756 9.54869 3.42904C9.00312 3.32052 8.43762 3.37622 7.9237 3.58909C7.40979 3.80196 6.97053 4.16245 6.66149 4.62496C6.35245 5.08747 6.1875 5.63124 6.1875 6.1875C6.1875 6.93342 6.48382 7.64879 7.01126 8.17624C7.53871 8.70369 8.25408 9 9 9ZM9 4.5C9.33376 4.5 9.66002 4.59897 9.93752 4.7844C10.215 4.96982 10.4313 5.23337 10.559 5.54172C10.6868 5.85007 10.7202 6.18937 10.6551 6.51672C10.59 6.84406 10.4292 7.14474 10.1932 7.38074C9.95724 7.61675 9.65656 7.77746 9.32922 7.84258C9.00187 7.90769 8.66257 7.87427 8.35422 7.74655C8.04587 7.61883 7.78232 7.40253 7.59689 7.12503C7.41147 6.84752 7.3125 6.52126 7.3125 6.1875C7.3125 5.73995 7.49029 5.31073 7.80676 4.99426C8.12322 4.67779 8.55245 4.5 9 4.5Z" fill="#D4D6D8"/>
</svg>
