<svg width="28" height="27" viewBox="0 0 28 27" fill="none" xmlns="http://www.w3.org/2000/svg">
<path d="M25.7133 20.1429H24.2321V18.6617C24.2321 18.2979 23.9265 18 23.5625 18C23.1985 18 22.8929 18.2979 22.8929 18.6617V20.1429H21.4117C21.0479 20.1429 20.75 20.4485 20.75 20.8125C20.75 21.1765 21.0479 21.4821 21.4117 21.4821H22.8929V22.9633C22.8929 23.3271 23.1985 23.625 23.5625 23.625C23.9265 23.625 24.2321 23.3271 24.2321 22.9633V21.4821H25.7133C26.0771 21.4821 26.375 21.1765 26.375 20.8125C26.375 20.4485 26.0771 20.1429 25.7133 20.1429Z" fill="white"/>
<path fill-rule="evenodd" clip-rule="evenodd" d="M19.087 6.50543H21.4348C22.9266 6.50543 24.125 7.7038 24.125 9.19565V17.5747C23.9594 17.4886 23.7695 17.4375 23.5625 17.4375C22.8418 17.4375 22.3363 18.0483 22.3363 18.6186V19.5863H21.3125C20.7061 19.5863 20.1875 20.1922 20.1875 20.8125C20.1875 21.0066 20.2376 21.2003 20.3252 21.375H4.31522C2.82337 21.375 1.625 20.1766 1.625 18.6848V9.19565C1.625 7.7038 2.82337 6.50543 4.31522 6.50543H6.66304L7.95924 4.54891C8.44837 3.81522 9.30435 3.375 10.1848 3.375H15.5652C16.4457 3.375 17.3016 3.81522 17.7908 4.54891L19.087 6.50543ZM21.0924 10.2962C21.5326 10.2717 21.8505 9.90489 21.8261 9.46467C21.8016 9.02446 21.4348 8.68207 20.9946 8.70652H20.0163C19.6005 8.73098 19.2826 9.04891 19.2582 9.46467C19.2337 9.90489 19.5761 10.2717 20.0163 10.2962H21.0924ZM12.8992 9.51141C10.6329 9.51141 8.7841 11.3602 8.7841 13.6265C8.7841 15.8928 10.6329 17.7117 12.8992 17.7117C15.1654 17.7117 17.0142 15.8629 17.0142 13.5967C17.0142 11.3304 15.1654 9.51141 12.8992 9.51141Z" fill="white"/>
</svg>
