<svg width="25" height="25" viewBox="0 0 25 25" fill="none" xmlns="http://www.w3.org/2000/svg">
<path d="M18.5 17.9654V19.7721C16.819 21.1829 14.6946 21.9562 12.5 21.9562C10.3054 21.9562 8.18102 21.1829 6.5 19.7721V17.9654C6.5 17.0814 6.85119 16.2335 7.47631 15.6084C8.10143 14.9833 8.94928 14.6321 9.83333 14.6321H15.1667C16.0507 14.6321 16.8986 14.9833 17.5237 15.6084C18.1488 16.2335 18.5 17.0814 18.5 17.9654Z" fill="url(#paint0_linear_2838_8689)"/>
<path d="M12.5 22.632C10.1454 22.6294 7.86717 21.7961 6.06666 20.2787C5.99348 20.2161 5.93474 20.1384 5.89446 20.0509C5.85418 19.9634 5.83332 19.8683 5.83333 19.772V17.9653C5.83333 16.9045 6.25476 15.887 7.0049 15.1369C7.75505 14.3868 8.77246 13.9653 9.83333 13.9653H15.1667C16.2275 13.9653 17.2449 14.3868 17.9951 15.1369C18.7452 15.887 19.1667 16.9045 19.1667 17.9653V19.772C19.1667 19.8683 19.1458 19.9634 19.1055 20.0509C19.0653 20.1384 19.0065 20.2161 18.9333 20.2787C17.1328 21.7961 14.8546 22.6294 12.5 22.632ZM7.16666 19.452C8.69006 20.6413 10.5673 21.2874 12.5 21.2874C14.4327 21.2874 16.3099 20.6413 17.8333 19.452V17.9653C17.8333 17.2581 17.5524 16.5798 17.0523 16.0797C16.5522 15.5796 15.8739 15.2987 15.1667 15.2987H9.83333C9.12608 15.2987 8.44781 15.5796 7.94771 16.0797C7.44761 16.5798 7.16666 17.2581 7.16666 17.9653V19.452Z" fill="url(#paint1_linear_2838_8689)"/>
<path d="M21.8333 12.6321C21.8352 13.9938 21.5375 15.3393 20.9615 16.5732C20.3855 17.807 19.5451 18.8991 18.5 19.7721V17.9654C18.5 17.0814 18.1488 16.2335 17.5237 15.6084C16.8986 14.9833 16.0507 14.6321 15.1667 14.6321H9.83334C8.94928 14.6321 8.10143 14.9833 7.47631 15.6084C6.85119 16.2335 6.5 17.0814 6.5 17.9654V19.7721C5.29764 18.763 4.3692 17.467 3.80058 16.0039C3.23196 14.5408 3.04153 12.9579 3.24691 11.4017C3.45228 9.84553 4.04683 8.36626 4.97555 7.10078C5.90426 5.83531 7.13714 4.82451 8.56013 4.16189C9.98311 3.49928 11.5502 3.20625 13.1165 3.30994C14.6828 3.41362 16.1976 3.91065 17.5208 4.75506C18.844 5.59946 19.9329 6.76396 20.6867 8.14081C21.4405 9.51766 21.8349 11.0624 21.8333 12.6321Z" fill="url(#paint2_linear_2838_8689)"/>
<path d="M18.5 20.4388C18.3232 20.4388 18.1536 20.3686 18.0286 20.2436C17.9036 20.1185 17.8333 19.949 17.8333 19.7721V17.9655C17.8333 17.2582 17.5524 16.58 17.0523 16.0799C16.5522 15.5798 15.8739 15.2988 15.1667 15.2988H9.83333C9.12609 15.2988 8.44781 15.5798 7.94772 16.0799C7.44762 16.58 7.16667 17.2582 7.16667 17.9655V19.7721C7.16687 19.8989 7.13092 20.0232 7.06302 20.1302C6.99513 20.2373 6.8981 20.3228 6.78333 20.3767C6.66857 20.4306 6.54081 20.4506 6.41505 20.4345C6.2893 20.4183 6.17076 20.3666 6.07333 20.2855C4.50095 18.9665 3.37247 17.1957 2.84105 15.2134C2.30963 13.231 2.40102 11.1332 3.10281 9.20456C3.80459 7.27595 5.08279 5.60996 6.76391 4.43273C8.44504 3.25549 10.4477 2.62402 12.5 2.62402C14.5523 2.62402 16.555 3.25549 18.2361 4.43273C19.9172 5.60996 21.1954 7.27595 21.8972 9.20456C22.599 11.1332 22.6904 13.231 22.159 15.2134C21.6275 17.1957 20.4991 18.9665 18.9267 20.2855C18.8067 20.3849 18.6558 20.4391 18.5 20.4388ZM9.83333 13.9655H15.1667C16.2275 13.9655 17.2449 14.3869 17.9951 15.1371C18.7452 15.8872 19.1667 16.9046 19.1667 17.9655V18.1655C20.2185 16.8993 20.8879 15.3597 21.0967 13.7269C21.3054 12.0941 21.0449 10.4356 20.3455 8.94553C19.6462 7.45541 18.5369 6.19527 17.1475 5.31256C15.7581 4.42985 14.1461 3.96107 12.5 3.96107C10.8539 3.96107 9.24188 4.42985 7.85249 5.31256C6.4631 6.19527 5.35383 7.45541 4.65446 8.94553C3.95509 10.4356 3.69455 12.0941 3.90332 13.7269C4.11209 15.3597 4.78154 16.8993 5.83333 18.1655V17.9655C5.83333 16.9046 6.25476 15.8872 7.00491 15.1371C7.75505 14.3869 8.77247 13.9655 9.83333 13.9655Z" fill="white"/>
<path d="M12.5 11.9654C13.9728 11.9654 15.1667 10.7715 15.1667 9.29875C15.1667 7.82599 13.9728 6.63208 12.5 6.63208C11.0272 6.63208 9.83333 7.82599 9.83333 9.29875C9.83333 10.7715 11.0272 11.9654 12.5 11.9654Z" fill="url(#paint3_linear_2838_8689)"/>
<path d="M12.5 12.632C11.8407 12.632 11.1963 12.4365 10.6481 12.0702C10.0999 11.704 9.6727 11.1834 9.42041 10.5743C9.16812 9.96519 9.1021 9.29497 9.23072 8.64837C9.35934 8.00176 9.67681 7.40782 10.143 6.94164C10.6092 6.47547 11.2031 6.158 11.8497 6.02938C12.4963 5.90077 13.1665 5.96678 13.7756 6.21907C14.3847 6.47136 14.9053 6.8986 15.2716 7.44677C15.6378 7.99493 15.8333 8.6394 15.8333 9.29867C15.8333 10.1827 15.4821 11.0306 14.857 11.6557C14.2319 12.2808 13.3841 12.632 12.5 12.632ZM12.5 7.29867C12.1044 7.29867 11.7178 7.41596 11.3889 7.63573C11.06 7.85549 10.8036 8.16785 10.6522 8.5333C10.5009 8.89875 10.4613 9.30089 10.5384 9.68885C10.6156 10.0768 10.8061 10.4332 11.0858 10.7129C11.3655 10.9926 11.7219 11.1831 12.1098 11.2602C12.4978 11.3374 12.8999 11.2978 13.2654 11.1464C13.6308 10.9951 13.9432 10.7387 14.1629 10.4098C14.3827 10.0809 14.5 9.69423 14.5 9.29867C14.5 8.76823 14.2893 8.25953 13.9142 7.88445C13.5391 7.50938 13.0304 7.29867 12.5 7.29867Z" fill="white"/>
<defs>
<linearGradient id="paint0_linear_2838_8689" x1="6.5" y1="18.2942" x2="18.5" y2="18.2942" gradientUnits="userSpaceOnUse">
<stop stop-color="#D51F40"/>
<stop offset="1" stop-color="#F37024"/>
</linearGradient>
<linearGradient id="paint1_linear_2838_8689" x1="5.83333" y1="18.2987" x2="19.1667" y2="18.2987" gradientUnits="userSpaceOnUse">
<stop stop-color="#D51F40"/>
<stop offset="1" stop-color="#F37024"/>
</linearGradient>
<linearGradient id="paint2_linear_2838_8689" x1="3.16667" y1="11.5309" x2="21.8333" y2="11.5309" gradientUnits="userSpaceOnUse">
<stop stop-color="#D51F40"/>
<stop offset="1" stop-color="#F37024"/>
</linearGradient>
<linearGradient id="paint3_linear_2838_8689" x1="9.83333" y1="9.29876" x2="15.1667" y2="9.29876" gradientUnits="userSpaceOnUse">
<stop stop-color="#D51F40"/>
<stop offset="1" stop-color="#F37024"/>
</linearGradient>
</defs>
</svg>
