<svg width="16" height="16" viewBox="0 0 16 16" fill="none" xmlns="http://www.w3.org/2000/svg">
<path d="M4.49964 11.721L2.78732 13.4285L1.5918 12.233L3.30188 10.5229L4.49964 11.721Z" fill="#B75F25"/>
<path d="M4.49964 11.7208L2.78729 13.4284L1.5918 12.2329L1.82995 11.9948L2.55869 12.7235C2.68491 12.8497 2.88975 12.8497 3.01597 12.7235L3.79234 11.9518C3.9209 11.8233 3.92096 11.6185 3.79235 11.4899L3.06361 10.7611L3.30176 10.5229L4.49964 11.7208Z" fill="#AA5821"/>
<path d="M13.5466 3.04144L10.1323 6.71824L7.78344 9.24949L5.94664 11.2271L5.07305 12.1646L2.85547 9.95027L3.79625 9.07668L5.85063 7.16949L8.23469 4.95824L11.9851 1.47668C12.3142 1.17091 12.6646 1.35481 13.2939 1.35824C13.4955 1.37425 13.6523 1.53105 13.6651 1.72949C13.6701 2.34787 13.8584 2.70645 13.5466 3.04144Z" fill="#D0D0F7"/>
<path d="M10.1322 6.7185L7.78339 9.2497L5.85059 7.1697L8.23459 4.9585L10.1322 6.7185Z" fill="#C2C2EF"/>
<path d="M5.07388 12.1663L4.77148 11.8639L5.51448 11.0637L13.1162 2.87607C13.4268 2.54202 13.239 2.1696 13.2353 1.56625C13.2282 1.48293 13.1972 1.40909 13.1496 1.34717L13.2949 1.35903C13.4949 1.37333 13.6521 1.53055 13.6664 1.73056C13.6701 2.33515 13.8576 2.7066 13.5473 3.04038L5.94549 11.228L5.07388 12.1663Z" fill="#C2C2EF"/>
<path d="M5.07354 12.1661L2.85645 9.949L3.79469 9.07739L3.91376 9.19647C3.93044 9.21315 3.9519 9.22507 3.97097 9.22507L5.00211 9.31316C5.37803 9.35275 5.67253 9.64762 5.70701 10.0181L5.79276 11.0469C5.7952 11.0635 5.80706 11.0898 5.82608 11.1088L5.94515 11.2279L5.07354 12.1661Z" fill="#D0D0F7"/>
<path d="M4.09225 10.9303C3.99854 10.8365 3.99854 10.6846 4.09229 10.5909L11.5186 3.1665C11.6124 3.07275 11.7643 3.07275 11.858 3.1665C11.9517 3.26025 11.9517 3.41213 11.858 3.50588L4.43166 10.9303C4.33791 11.024 4.186 11.024 4.09225 10.9303Z" fill="#C2C2EF"/>
<path d="M6.8502 13.3428C6.5239 13.6691 5.99522 13.669 5.66899 13.3428C5.48085 13.1546 5.40224 12.8999 5.43079 12.6521L2.37065 9.59193C2.12297 9.62054 1.87058 9.53955 1.68243 9.3514C1.35614 9.02511 1.35376 8.49886 1.68006 8.17257C2.00868 7.84395 2.53736 7.84389 2.86365 8.17018C3.05179 8.35833 3.13034 8.61317 3.10173 8.86085L3.67564 9.43477C3.74948 9.50861 3.84716 9.55385 3.94955 9.561L4.97115 9.64908C5.18319 9.67053 5.35227 9.83961 5.37366 10.0516L5.45703 11.0733C5.46889 11.1756 5.51412 11.2733 5.58796 11.3471L6.16187 11.921C6.40961 11.8925 6.66206 11.9734 6.85021 12.1616C7.17644 12.4878 7.17882 13.0142 6.8502 13.3428Z" fill="#F9B938"/>
<path d="M6.8502 13.3427C6.5239 13.669 5.99522 13.6689 5.66899 13.3427C5.48085 13.1545 5.40224 12.8998 5.43079 12.652L2.37065 9.59182C2.12297 9.62043 1.87058 9.53944 1.68243 9.35129C1.35614 9.025 1.35376 8.49875 1.68006 8.17246C1.72053 8.13199 1.76338 8.09867 1.80861 8.06763C1.61098 8.35107 1.61569 8.75115 1.82767 9.02976C1.97291 9.22268 2.17297 9.33228 2.38496 9.36321C2.53496 9.3846 2.67787 9.44658 2.78503 9.55374L5.46655 12.2353C5.57609 12.3448 5.63801 12.4877 5.65946 12.6378C5.68801 12.8521 5.79993 13.0593 5.99523 13.2022C6.27384 13.4094 6.6692 13.4094 6.95497 13.2141C6.92398 13.2594 6.89066 13.3022 6.8502 13.3427Z" fill="#ECB021"/>
<path d="M6.65407 13.0653C6.82809 12.8473 6.7926 12.5297 6.57481 12.3558C6.35702 12.1819 6.0394 12.2176 5.86538 12.4355C5.69136 12.6534 5.72685 12.9711 5.94464 13.145C6.16242 13.3189 6.48005 13.2832 6.65407 13.0653Z" fill="#FC6559"/>
<path d="M2.66774 9.07674C2.84176 8.85881 2.80628 8.54117 2.58849 8.36726C2.3707 8.19335 2.05307 8.22903 1.87905 8.44696C1.70504 8.66489 1.74052 8.98253 1.95831 9.15644C2.1761 9.33035 2.49372 9.29467 2.66774 9.07674Z" fill="#FC6559"/>
<path d="M6.74329 12.8926C6.72416 12.8116 6.68131 12.7354 6.617 12.6711C6.41938 12.4734 6.10024 12.4734 5.90494 12.6687C5.84064 12.733 5.7954 12.8116 5.77633 12.8925C5.72401 12.7211 5.76924 12.5282 5.90262 12.3948C6.10025 12.1972 6.41939 12.1972 6.61706 12.3948C6.75044 12.5282 6.79567 12.7211 6.74329 12.8926ZM2.75667 8.89638C2.73521 8.81783 2.69236 8.74161 2.63044 8.67968C2.43282 8.48206 2.11368 8.482 1.916 8.67969C1.85408 8.74161 1.81123 8.81783 1.79216 8.89877C1.73745 8.72975 1.7803 8.53921 1.91606 8.40345C2.1113 8.20821 2.43283 8.20577 2.6305 8.40345C2.76388 8.53683 2.80667 8.7273 2.75667 8.89638Z" fill="#F05543"/>
<path d="M2.78929 13.4288L1.59255 12.2316C1.2645 12.2214 0.933005 12.3389 0.680226 12.5916C0.197626 13.0741 0.201789 13.8541 0.684079 14.3366C1.16637 14.8191 1.94637 14.8235 2.42897 14.3411C2.68175 14.0883 2.7993 13.7569 2.78929 13.4288Z" fill="#F9B938"/>
<path d="M2.42773 14.3407C1.94428 14.8242 1.16791 14.8193 0.684467 14.3359C0.351086 14.0025 0.246319 13.531 0.370106 13.1118C0.372487 13.4237 0.491617 13.7381 0.732146 13.9787C1.21559 14.4621 1.99666 14.4669 2.47773 13.9858C2.62774 13.8358 2.73019 13.6572 2.78734 13.4714C2.78728 13.7858 2.66826 14.1002 2.42773 14.3407Z" fill="#ECB021"/>
<path d="M2.13972 13.9298C2.39689 13.6077 2.3444 13.1383 2.02248 12.8812C1.70056 12.6241 1.23111 12.6768 0.973946 12.9989C0.716777 13.321 0.769268 13.7904 1.09119 14.0475C1.41311 14.3045 1.88255 14.2518 2.13972 13.9298Z" fill="#FC6559"/>
<path d="M2.28269 13.6428C2.2517 13.5118 2.18734 13.3855 2.08495 13.2832C1.79203 12.9902 1.32051 12.9902 1.02758 13.2832C0.92758 13.3832 0.863274 13.5047 0.832342 13.6308C0.775133 13.3879 0.841824 13.126 1.02997 12.9378C1.32051 12.6473 1.79442 12.6449 2.08495 12.9355C2.27548 13.126 2.34217 13.3975 2.28269 13.6428Z" fill="#F05543"/>
<path d="M11.5 11.721L13.2123 13.4285L14.4078 12.233L12.6978 10.5229L11.5 11.721Z" fill="#B75F25"/>
<path d="M11.5 11.7208L13.2123 13.4284L14.4078 12.2329L14.1697 11.9948L13.441 12.7235C13.3147 12.8497 13.1099 12.8497 12.9837 12.7235L12.2073 11.9518C12.0787 11.8233 12.0787 11.6185 12.2073 11.4899L12.936 10.7611L12.6979 10.5229L11.5 11.7208Z" fill="#AA5821"/>
<path d="M10.9264 12.1661L13.1435 9.94899L12.2053 9.07738L4.01527 1.47794C3.68092 1.16707 3.33454 1.35503 2.70545 1.35886C2.50545 1.37317 2.34823 1.53038 2.33393 1.73039C2.33026 2.33499 2.14268 2.70644 2.45302 3.04022L10.0548 11.2279L10.9264 12.1661Z" fill="#E4E3FF"/>
<path d="M10.9264 12.1663L11.2288 11.8639C6.84295 7.14003 4.08114 4.16539 2.88408 2.87607C2.57349 2.54202 2.76132 2.1696 2.76499 1.56625C2.77214 1.48293 2.80307 1.40909 2.85069 1.34717L2.70545 1.35903C2.50545 1.37333 2.34823 1.53055 2.33393 1.73056C2.33026 2.33515 2.14268 2.7066 2.45302 3.04038L10.0548 11.228L10.9264 12.1663Z" fill="#D0D0F7"/>
<path d="M10.9263 12.1661L13.1434 9.949L12.2052 9.07739L12.0861 9.19647C12.0694 9.21315 12.0479 9.22507 12.0289 9.22507L10.9977 9.31316C10.6218 9.35275 10.3273 9.64762 10.2928 10.0181L10.2071 11.0469C10.2046 11.0635 10.1928 11.0898 10.1738 11.1088L10.0547 11.2279L10.9263 12.1661Z" fill="#D0D0F7"/>
<path d="M11.568 10.9303L4.14161 3.50588C4.04786 3.41213 4.04786 3.26025 4.14157 3.1665C4.23528 3.07275 4.38719 3.07275 4.48098 3.1665L11.9073 10.5909C12.0011 10.6846 12.0011 10.8365 11.9074 10.9303C11.8136 11.024 11.6617 11.024 11.568 10.9303Z" fill="#D0D0F7"/>
<path d="M9.14987 13.3428C9.47617 13.6691 10.0048 13.669 10.3311 13.3428C10.5192 13.1546 10.5978 12.8999 10.5693 12.6521L13.6294 9.59193C13.8771 9.62054 14.1295 9.53955 14.3176 9.3514C14.6439 9.02511 14.6463 8.49886 14.32 8.17257C13.9914 7.84395 13.4627 7.84389 13.1364 8.17018C12.9483 8.35833 12.8697 8.61317 12.8983 8.86085L12.3244 9.43477C12.2506 9.50861 12.1529 9.55385 12.0505 9.561L11.0289 9.64908C10.8169 9.67053 10.6478 9.83961 10.6264 10.0516L10.543 11.0733C10.5312 11.1756 10.4859 11.2733 10.4121 11.3471L9.8382 11.921C9.59046 11.8925 9.33801 11.9734 9.14986 12.1616C8.82363 12.4878 8.82125 13.0142 9.14987 13.3428Z" fill="#F9B938"/>
<path d="M9.14969 13.3427C9.47599 13.669 10.0047 13.6689 10.3309 13.3427C10.519 13.1545 10.5976 12.8998 10.5691 12.652L13.6292 9.59182C13.8769 9.62043 14.1293 9.53944 14.3175 9.35129C14.6437 9.025 14.6461 8.49875 14.3198 8.17246C14.2794 8.13199 14.2365 8.09867 14.1913 8.06763C14.3889 8.35107 14.3842 8.75115 14.1722 9.02976C14.027 9.22268 13.8269 9.33228 13.6149 9.36321C13.4649 9.3846 13.322 9.44658 13.2149 9.55374L10.5333 12.2353C10.4238 12.3448 10.3619 12.4877 10.3404 12.6378C10.3119 12.8521 10.2 13.0593 10.0047 13.2022C9.72605 13.4094 9.33069 13.4094 9.04492 13.2141C9.07591 13.2594 9.10923 13.3022 9.14969 13.3427Z" fill="#ECB021"/>
<path d="M10.245 12.763C10.2518 12.4843 10.0313 12.253 9.75247 12.2462C9.47367 12.2394 9.24217 12.4598 9.2354 12.7384C9.22863 13.0171 9.44916 13.2484 9.72795 13.2552C10.0068 13.262 10.2383 13.0416 10.245 12.763Z" fill="#FC6559"/>
<path d="M14.2323 8.77395C14.2391 8.49533 14.0186 8.26396 13.7398 8.25719C13.461 8.25041 13.2295 8.47079 13.2227 8.74942C13.2159 9.02804 13.4365 9.2594 13.7153 9.26617C13.9941 9.27295 14.2256 9.05257 14.2323 8.77395Z" fill="#FC6559"/>
<path d="M9.53846 13.2121C9.48871 13.1454 9.45786 13.0636 9.44994 12.973C9.42558 12.6946 9.63067 12.4501 9.90582 12.426C9.99641 12.4181 10.0857 12.434 10.16 12.4714C10.0623 12.3211 9.88544 12.2318 9.69753 12.2482C9.41911 12.2726 9.21392 12.517 9.23829 12.7955C9.25473 12.9834 9.37344 13.142 9.53846 13.2121ZM13.5198 9.21865C13.4734 9.15172 13.4426 9.0699 13.4349 8.98266C13.4106 8.70425 13.6157 8.45973 13.8942 8.43537C13.9814 8.42774 14.0673 8.44391 14.1416 8.48132C14.0473 8.33077 13.8738 8.24112 13.6825 8.25786C13.4075 8.28192 13.1989 8.52665 13.2233 8.80515C13.2397 8.99306 13.3581 9.14827 13.5198 9.21865Z" fill="#F05543"/>
<path d="M13.211 13.4288L14.4078 12.2316C14.7358 12.2214 15.0673 12.3389 15.3201 12.5916C15.8027 13.0741 15.7985 13.8541 15.3162 14.3366C14.834 14.8191 14.054 14.8235 13.5714 14.3411C13.3186 14.0883 13.201 13.7569 13.211 13.4288Z" fill="#F9B938"/>
<path d="M13.572 14.3407C14.0555 14.8242 14.8318 14.8193 15.3153 14.3359C15.6487 14.0025 15.7534 13.531 15.6296 13.1118C15.6273 13.4237 15.5081 13.7381 15.2676 13.9787C14.7842 14.4621 14.0031 14.4669 13.522 13.9858C13.372 13.8358 13.2696 13.6572 13.2124 13.4714C13.2125 13.7858 13.3315 14.1002 13.572 14.3407Z" fill="#ECB021"/>
<path d="M15.1894 13.4817C15.1994 13.0699 14.8735 12.7279 14.4615 12.7179C14.0494 12.7079 13.7073 13.0336 13.6973 13.4455C13.6873 13.8573 14.0132 14.1993 14.4252 14.2093C14.8372 14.2193 15.1794 13.8936 15.1894 13.4817Z" fill="#FC6559"/>
<path d="M14.1134 14.1346C14.0329 14.0267 13.9776 13.8963 13.965 13.752C13.9289 13.3393 14.232 12.9781 14.6447 12.942C14.7855 12.9297 14.92 12.9586 15.0365 13.016C14.8872 12.816 14.6437 12.6987 14.3786 12.7219C13.9693 12.7577 13.6628 13.1192 13.6986 13.5285C13.7221 13.797 13.8872 14.0225 14.1134 14.1346Z" fill="#F05543"/>
<g opacity="0.4">
<path opacity="0.4" d="M10.7708 8.30688C10.7132 8.37407 10.6108 8.37719 10.5468 8.31962L10.1436 7.95485C10.0796 7.89407 10.0732 7.79165 10.134 7.72766C10.1916 7.6636 10.294 7.65719 10.3612 7.71485L10.7612 8.08282C10.8252 8.14048 10.8316 8.24282 10.7708 8.30688ZM9.94836 7.3436C10.0156 7.40446 10.0188 7.50688 9.96115 7.57087C9.90035 7.63485 9.80115 7.64126 9.73397 7.58048L8.13397 6.12766C8.06676 6.06688 8.06356 5.96766 8.12115 5.90048C8.18196 5.83641 8.28115 5.83001 8.34836 5.89087L9.94836 7.3436Z" fill="white"/>
</g>
<path opacity="0.3" d="M5.54271 11.9287L5.33342 11.7195C5.27086 11.6569 5.27086 11.5556 5.33334 11.4931C5.39581 11.4306 5.49714 11.4306 5.5597 11.4932L5.76899 11.7024C5.83155 11.765 5.83155 11.8663 5.76907 11.9288C5.70659 11.9913 5.60527 11.9913 5.54271 11.9287ZM4.94173 11.3278L3.89703 10.2832C3.83447 10.2207 3.83447 10.1193 3.89694 10.0569C3.95942 9.99439 4.06074 9.99438 4.12331 10.0569L5.16801 11.1015C5.23057 11.1641 5.23057 11.2654 5.16809 11.3279C5.10561 11.3904 5.00429 11.3904 4.94173 11.3278Z" fill="white"/>
<path opacity="0.3" d="M13.6775 12.044L13.5733 11.9398C13.5245 11.891 13.5245 11.8119 13.5732 11.7631C13.622 11.7143 13.7011 11.7143 13.75 11.7631L13.8542 11.8673C13.903 11.9162 13.903 11.9953 13.8543 12.044C13.8055 12.0928 13.7264 12.0928 13.6775 12.044ZM13.3234 11.6899L12.8272 11.1938C12.7783 11.1449 12.7783 11.0658 12.8271 11.0171C12.8759 10.9683 12.955 10.9683 13.0038 11.0171L13.5 11.5132C13.5489 11.562 13.5489 11.6411 13.5001 11.6899C13.4513 11.7387 13.3722 11.7387 13.3234 11.6899Z" fill="white"/>
</svg>
