<svg width="24" height="25" viewBox="0 0 24 25" fill="none" xmlns="http://www.w3.org/2000/svg">
<path d="M12.9087 13.2875C14.4275 13.2875 15.6587 14.5187 15.6587 16.0375L15.6572 17.4094C15.8458 20.7764 13.2526 22.4555 8.44355 22.4555C3.65007 22.4555 1 20.7984 1 17.4575V16.0375C1 14.5187 2.23119 13.2875 3.74995 13.2875H12.9087ZM20.243 13.2875C21.7618 13.2875 22.993 14.5187 22.993 16.0375L22.9916 17.0028C23.1573 20.0231 20.866 21.5374 16.6776 21.5374C16.1091 21.5374 15.5746 21.5097 15.0754 21.4542C16.0594 20.5456 16.5857 19.3126 16.5839 17.7545L16.5725 17.3582L16.5753 16.0375C16.5753 14.9419 16.0949 13.9586 15.3332 13.2868L20.243 13.2875ZM8.3332 2.28772C10.8649 2.28772 12.9172 4.34004 12.9172 6.87171C12.9172 9.40338 10.8649 11.4557 8.3332 11.4557C5.80153 11.4557 3.74921 9.40338 3.74921 6.87171C3.74921 4.34004 5.80153 2.28772 8.3332 2.28772ZM17.4997 4.12102C19.5247 4.12102 21.1663 5.76261 21.1663 7.78762C21.1663 9.81262 19.5247 11.4542 17.4997 11.4542C15.4747 11.4542 13.8331 9.81262 13.8331 7.78762C13.8331 5.76261 15.4747 4.12102 17.4997 4.12102Z" fill="url(#paint0_linear_11385_32728)"/>
<path d="M22.9914 16.989L22.9928 16.0237C22.8734 13.8352 21.0518 13.2758 20.2428 13.2737L15.333 13.2729C15.9249 13.8539 16.1767 14.2465 16.4596 15.107L20.2428 15.107C20.7491 15.107 21.1595 15.5174 21.1595 16.0237V17.0393C21.2562 18.8261 19.9484 19.6903 16.6775 19.6903L16.258 19.6854C15.9101 20.5608 15.6139 20.8837 15.0742 21.4515C15.7275 21.5056 16.0766 21.5315 16.6775 21.5326C20.8658 21.5326 23.1572 20.0093 22.9914 16.989Z" fill="white"/>
<defs>
<linearGradient id="paint0_linear_11385_32728" x1="1" y1="12.3717" x2="23" y2="12.3717" gradientUnits="userSpaceOnUse">
<stop stop-color="#D51F40"/>
<stop offset="1" stop-color="#F37024"/>
</linearGradient>
</defs>
</svg>
