<svg width="25" height="25" viewBox="0 0 25 25" fill="none" xmlns="http://www.w3.org/2000/svg">
<path d="M12.5 3.45581L4.5 8.79581V21.2558C4.5 21.521 4.60536 21.7754 4.79289 21.9629C4.98043 22.1505 5.23478 22.2558 5.5 22.2558H19.5C19.7652 22.2558 20.0196 22.1505 20.2071 21.9629C20.3946 21.7754 20.5 21.521 20.5 21.2558V8.79581L12.5 3.45581Z" fill="url(#paint0_linear_2838_8638)"/>
<path d="M21.5 10.2558C21.3034 10.2581 21.111 10.1986 20.95 10.0858L12.5 4.45582L4.05 10.0858C3.94164 10.1731 3.81626 10.2368 3.68188 10.2729C3.54749 10.3089 3.40706 10.3166 3.26956 10.2953C3.13206 10.2739 3.00052 10.2242 2.88335 10.1491C2.76618 10.0741 2.66597 9.97541 2.58911 9.85943C2.51225 9.74344 2.46044 9.61269 2.437 9.47554C2.41355 9.33839 2.41899 9.19785 2.45295 9.06292C2.48692 8.92799 2.54867 8.80164 2.63426 8.69193C2.71985 8.58223 2.82739 8.49159 2.95 8.42582L11.95 2.42582C12.1133 2.31829 12.3045 2.26099 12.5 2.26099C12.6955 2.26099 12.8867 2.31829 13.05 2.42582L22.05 8.42582C22.2273 8.54498 22.3619 8.71781 22.4338 8.91897C22.5058 9.12014 22.5115 9.33907 22.45 9.54368C22.3885 9.74829 22.2631 9.92783 22.0921 10.056C21.9212 10.1841 21.7137 10.2542 21.5 10.2558ZM15.5 18.2558H9.5C9.23479 18.2558 8.98043 18.1505 8.7929 17.9629C8.60536 17.7754 8.5 17.521 8.5 17.2558C8.5 16.9906 8.60536 16.7362 8.7929 16.5487C8.98043 16.3612 9.23479 16.2558 9.5 16.2558H15.5C15.7652 16.2558 16.0196 16.3612 16.2071 16.5487C16.3946 16.7362 16.5 16.9906 16.5 17.2558C16.5 17.521 16.3946 17.7754 16.2071 17.9629C16.0196 18.1505 15.7652 18.2558 15.5 18.2558Z" fill="white"/>
<defs>
<linearGradient id="paint0_linear_2838_8638" x1="4.5" y1="12.8559" x2="20.5" y2="12.8559" gradientUnits="userSpaceOnUse">
<stop stop-color="#D51F40"/>
<stop offset="1" stop-color="#F37024"/>
</linearGradient>
</defs>
</svg>
