<svg width="18" height="18" viewBox="0 0 18 18" fill="none" xmlns="http://www.w3.org/2000/svg">
<path d="M16.1624 6.12753L9.41243 1.62753C9.28998 1.54689 9.14656 1.50391 8.99993 1.50391C8.85331 1.50391 8.70989 1.54689 8.58743 1.62753L1.83743 6.12753C1.74547 6.17686 1.66482 6.24484 1.60063 6.32712C1.53644 6.40939 1.49012 6.50416 1.46465 6.60536C1.43917 6.70656 1.4351 6.81196 1.45268 6.91482C1.47026 7.01769 1.50912 7.11575 1.56676 7.20274C1.62441 7.28973 1.69957 7.36373 1.78744 7.42001C1.87532 7.4763 1.97398 7.51362 2.0771 7.52961C2.18022 7.54559 2.28555 7.53987 2.38634 7.51282C2.48713 7.48578 2.58116 7.438 2.66243 7.37253L2.99993 7.15503V15.75C2.99993 15.9489 3.07895 16.1397 3.2196 16.2804C3.36026 16.421 3.55102 16.5 3.74993 16.5H14.2499C14.4488 16.5 14.6396 16.421 14.7803 16.2804C14.9209 16.1397 14.9999 15.9489 14.9999 15.75V7.15503L15.3374 7.37253C15.4582 7.45713 15.6025 7.50172 15.7499 7.50003C15.9102 7.4988 16.0658 7.44627 16.194 7.35016C16.3222 7.25404 16.4163 7.11939 16.4624 6.96593C16.5085 6.81247 16.5043 6.64827 16.4503 6.4974C16.3963 6.34652 16.2954 6.2169 16.1624 6.12753ZM13.4999 15H4.49993V6.15003L8.99993 3.15003L13.4999 6.15003V15ZM6.74993 12H11.2499C11.4488 12 11.6396 12.079 11.7803 12.2197C11.9209 12.3604 11.9999 12.5511 11.9999 12.75C11.9999 12.9489 11.9209 13.1397 11.7803 13.2804C11.6396 13.421 11.4488 13.5 11.2499 13.5H6.74993C6.55102 13.5 6.36026 13.421 6.2196 13.2804C6.07895 13.1397 5.99993 12.9489 5.99993 12.75C5.99993 12.5511 6.07895 12.3604 6.2196 12.2197C6.36026 12.079 6.55102 12 6.74993 12Z" fill="#D4D6D8"/>
</svg>
