<svg width="12" height="12" viewBox="0 0 12 12" fill="none" xmlns="http://www.w3.org/2000/svg">
<path fill-rule="evenodd" clip-rule="evenodd" d="M8.91667 3.08333H9.5C10.4665 3.08333 11.25 3.86684 11.25 4.83333V9.5C11.25 10.4665 10.4665 11.25 9.5 11.25H4.83333C3.86684 11.25 3.08333 10.4665 3.08333 9.5V8.91667H2.5C1.5335 8.91667 0.75 8.13319 0.75 7.16667V2.5C0.75 1.5335 1.5335 0.75 2.5 0.75H7.16667C8.13319 0.75 8.91667 1.5335 8.91667 2.5V3.08333ZM7.16667 1.625H2.5C2.01675 1.625 1.625 2.01675 1.625 2.5V7.16667C1.625 7.6499 2.01675 8.04167 2.5 8.04167H3.08333V4.83333C3.08333 3.86684 3.86684 3.08333 4.83333 3.08333H8.04167V2.5C8.04167 2.01675 7.6499 1.625 7.16667 1.625ZM3.95833 4.83333C3.95833 4.35008 4.35008 3.95833 4.83333 3.95833H9.5C9.98323 3.95833 10.375 4.35008 10.375 4.83333V9.5C10.375 9.98323 9.98323 10.375 9.5 10.375H4.83333C4.35008 10.375 3.95833 9.98323 3.95833 9.5V4.83333Z" fill="#F37024"/>
</svg>
