<svg width="29" height="28" viewBox="0 0 29 28" fill="none" xmlns="http://www.w3.org/2000/svg">
<path d="M20.8468 7.2758L20.7302 7.01943C20.4152 6.35516 20.0535 5.58601 19.8318 5.14318C19.2952 4.09434 18.3735 3.51166 17.2418 3.5H11.7468C10.6152 3.51166 9.70516 4.09434 9.1685 5.14318C8.93516 5.60932 8.5385 6.44839 8.21183 7.13596L8.14183 7.2758C8.10683 7.36904 8.0135 7.41565 7.92016 7.41565C5.1085 7.41565 2.8335 9.69978 2.8335 12.4966V19.4189C2.8335 22.2159 5.1085 24.5 7.92016 24.5H21.0802C23.8802 24.5 26.1668 22.2159 26.1668 19.4189V12.4966C26.1668 9.69978 23.8802 7.41565 21.0802 7.41565C20.9752 7.41565 20.8935 7.35738 20.8468 7.2758Z" fill="#4E5156"/>
<path fill-rule="evenodd" clip-rule="evenodd" d="M19.9948 11.7509C19.9948 12.3336 20.4614 12.7997 21.0448 12.7997C21.6281 12.7997 22.1064 12.3336 22.1064 11.7509C22.1064 11.1682 21.6281 10.6904 21.0448 10.6904C20.4614 10.6904 19.9948 11.1682 19.9948 11.7509ZM17.7314 18.7897C16.9031 19.6172 15.7598 20.13 14.4998 20.13C13.2748 20.13 12.1314 19.6521 11.2564 18.7897C10.3931 17.9158 9.91476 16.7737 9.91476 15.55C9.90309 14.3381 10.3814 13.196 11.2448 12.322C12.1198 11.4479 13.2748 10.9701 14.4998 10.9701C15.7248 10.9701 16.8798 11.4479 17.7431 12.3103C18.6064 13.1844 19.0848 14.3381 19.0848 15.55C19.0731 16.8203 18.5598 17.9623 17.7314 18.7897ZM14.4998 12.7182C13.7414 12.7182 13.0298 13.0095 12.4814 13.5572C11.9448 14.0933 11.6531 14.8042 11.6648 15.5383V15.55C11.6648 16.3075 11.9564 17.0184 12.4931 17.5545C13.0298 18.0905 13.7414 18.3819 14.4998 18.3819C16.0631 18.3819 17.3231 17.1116 17.3348 15.55C17.3348 14.7925 17.0431 14.0816 16.5064 13.5456C15.9698 13.0095 15.2581 12.7182 14.4998 12.7182Z" fill="#27282B"/>
</svg>
