<svg width="24" height="24" viewBox="0 0 24 24" fill="none" xmlns="http://www.w3.org/2000/svg">
<path d="M16.9256 9.84282L11.2556 15.5128C11.0778 15.6892 10.8378 15.7886 10.5874 15.7896C10.4618 15.7904 10.3372 15.7663 10.2209 15.7188C10.1046 15.6713 9.99885 15.6013 9.90966 15.5128L7.04602 12.6492C6.95656 12.5604 6.88554 12.4549 6.83708 12.3386C6.78862 12.2222 6.76367 12.0975 6.76367 11.9715C6.76367 11.8454 6.78862 11.7207 6.83708 11.6044C6.88554 11.488 6.95656 11.3825 7.04602 11.2937C7.22487 11.1159 7.4668 11.0162 7.71898 11.0162C7.97116 11.0162 8.21309 11.1159 8.39193 11.2937L10.5588 13.4605L15.551 8.45873C15.7299 8.28094 15.9718 8.18115 16.224 8.18115C16.4762 8.18115 16.7181 8.28094 16.8969 8.45873C16.9927 8.54594 17.0697 8.65173 17.1232 8.76965C17.1768 8.88756 17.2058 9.01514 17.2084 9.14462C17.2111 9.2741 17.1874 9.40278 17.1388 9.52281C17.0902 9.64284 17.0176 9.75172 16.9256 9.84282Z" fill="#1E976C"/>
<path opacity="0.4" d="M12 1.5C9.9233 1.5 7.89323 2.11581 6.16652 3.26957C4.4398 4.42332 3.09399 6.0632 2.29927 7.98182C1.50455 9.90045 1.29661 12.0116 1.70176 14.0484C2.1069 16.0852 3.10693 17.9562 4.57538 19.4246C6.04383 20.8931 7.91476 21.8931 9.95156 22.2982C11.9884 22.7034 14.0996 22.4955 16.0182 21.7007C17.9368 20.906 19.5767 19.5602 20.7304 17.8335C21.8842 16.1068 22.5 14.0767 22.5 12C22.5 9.21523 21.3938 6.54451 19.4246 4.57538C17.4555 2.60625 14.7848 1.5 12 1.5ZM16.9255 9.84273L11.2555 15.5127C11.0777 15.6891 10.8377 15.7885 10.5873 15.7895C10.4617 15.7903 10.3371 15.7662 10.2208 15.7187C10.1045 15.6712 9.99874 15.6012 9.90955 15.5127L7.04591 12.6491C6.95645 12.5604 6.88543 12.4548 6.83697 12.3385C6.78851 12.2221 6.76356 12.0974 6.76356 11.9714C6.76356 11.8454 6.78851 11.7206 6.83697 11.6043C6.88543 11.4879 6.95645 11.3824 7.04591 11.2936C7.22476 11.1158 7.46669 11.0161 7.71887 11.0161C7.97105 11.0161 8.21298 11.1158 8.39182 11.2936L10.5586 13.4605L15.5509 8.45863C15.7298 8.28085 15.9717 8.18106 16.2239 8.18106C16.476 8.18106 16.718 8.28085 16.8968 8.45863C16.9926 8.54585 17.0696 8.65164 17.1231 8.76955C17.1767 8.88747 17.2057 9.01505 17.2083 9.14453C17.211 9.27401 17.1873 9.40268 17.1387 9.52271C17.0901 9.64275 17.0175 9.75162 16.9255 9.84273Z" fill="#136045"/>
</svg>
