<svg width="16" height="16" viewBox="0 0 16 16" fill="none" xmlns="http://www.w3.org/2000/svg">
<rect width="16" height="16" rx="2.4" fill="#D02B20"/>
<g filter="url(#filter0_d_1904_4932)">
<path d="M8.7197 13.3334C7.93822 13.3334 7.21608 13.2057 6.5533 12.9503C5.90041 12.6851 5.33161 12.3168 4.84689 11.8453C4.36217 11.364 3.98626 10.7993 3.71917 10.151C3.46197 9.49296 3.33337 8.77104 3.33337 7.98528C3.33337 7.21917 3.47187 6.51199 3.74885 5.86374C4.02583 5.21549 4.40668 4.65564 4.8914 4.18418C5.38602 3.70291 5.96471 3.32967 6.62749 3.06448C7.30017 2.79928 8.03219 2.66669 8.82357 2.66669C9.31818 2.66669 9.8029 2.73053 10.2777 2.85822C10.7526 2.9859 11.1928 3.17743 11.5983 3.4328C12.0138 3.67835 12.3699 3.97301 12.6667 4.31678L11.1235 6.07C10.9158 5.85392 10.6932 5.6673 10.4558 5.51015C10.2283 5.34317 9.97602 5.21549 9.69904 5.12709C9.42205 5.03869 9.12529 4.99449 8.80873 4.99449C8.41304 4.99449 8.03714 5.06816 7.68102 5.21549C7.33479 5.353 7.02813 5.55435 6.76104 5.81954C6.50384 6.07491 6.30105 6.38921 6.15266 6.76245C6.00428 7.13568 5.93009 7.55312 5.93009 8.01475C5.93009 8.46656 6.00428 8.87909 6.15266 9.25232C6.30105 9.61573 6.50879 9.93004 6.77588 10.1952C7.04297 10.4604 7.36447 10.6618 7.74037 10.7993C8.12617 10.9368 8.55154 11.0055 9.01647 11.0055C9.33302 11.0055 9.63474 10.9613 9.92161 10.8729C10.2085 10.7845 10.4706 10.6667 10.708 10.5194C10.9554 10.3622 11.173 10.1854 11.3609 9.98897L12.5777 11.9043C12.3304 12.1793 11.999 12.4248 11.5835 12.6409C11.1779 12.857 10.7229 13.0289 10.2184 13.1566C9.72377 13.2744 9.22421 13.3334 8.7197 13.3334Z" fill="#F4F4F5"/>
</g>
<defs>
<filter id="filter0_d_1904_4932" x="3.33337" y="2.66669" width="9.45337" height="10.9067" filterUnits="userSpaceOnUse" color-interpolation-filters="sRGB">
<feFlood flood-opacity="0" result="BackgroundImageFix"/>
<feColorMatrix in="SourceAlpha" type="matrix" values="0 0 0 0 0 0 0 0 0 0 0 0 0 0 0 0 0 0 127 0" result="hardAlpha"/>
<feOffset dx="0.12" dy="0.24"/>
<feComposite in2="hardAlpha" operator="out"/>
<feColorMatrix type="matrix" values="0 0 0 0 0 0 0 0 0 0 0 0 0 0 0 0 0 0 0.25 0"/>
<feBlend mode="normal" in2="BackgroundImageFix" result="effect1_dropShadow_1904_4932"/>
<feBlend mode="normal" in="SourceGraphic" in2="effect1_dropShadow_1904_4932" result="shape"/>
</filter>
</defs>
</svg>
