<svg width="24" height="24" viewBox="0 0 24 24" fill="none" xmlns="http://www.w3.org/2000/svg">
<path d="M10.4901 7.12174L14.749 11.3807C14.8308 11.4618 14.8957 11.5583 14.94 11.6647C14.9843 11.771 15.0071 11.8851 15.0071 12.0003C15.0071 12.1155 14.9843 12.2296 14.94 12.3359C14.8957 12.4423 14.8308 12.5388 14.749 12.6199L10.4901 16.8788C10.4087 16.9602 10.3121 17.0248 10.2058 17.0688C10.0995 17.1128 9.98551 17.1355 9.87044 17.1355C9.75536 17.1355 9.64141 17.1128 9.53509 17.0688C9.42877 17.0248 9.33217 16.9602 9.2508 16.8788C9.16943 16.7975 9.10488 16.7009 9.06084 16.5945C9.0168 16.4882 8.99414 16.3743 8.99414 16.2592C8.99414 16.1441 9.0168 16.0302 9.06084 15.9239C9.10488 15.8175 9.16943 15.7209 9.2508 15.6396L12.8726 12.0003L9.22462 8.36102C9.14325 8.27964 9.0787 8.18304 9.03466 8.07673C8.99062 7.97041 8.96796 7.85646 8.96796 7.74138C8.96796 7.6263 8.99062 7.51235 9.03466 7.40604C9.0787 7.29972 9.14325 7.20312 9.22462 7.12174C9.30599 7.04037 9.40259 6.97583 9.50891 6.93179C9.61523 6.88775 9.72918 6.86508 9.84425 6.86508C9.95933 6.86508 10.0733 6.88775 10.1796 6.93179C10.2859 6.97583 10.3825 7.04037 10.4639 7.12174L10.4901 7.12174Z" fill="#94989E"/>
</svg>
