<svg width="16" height="16" viewBox="0 0 16 16" fill="none" xmlns="http://www.w3.org/2000/svg">
<path d="M11.2836 6.56188L7.50363 10.3419C7.3851 10.4594 7.22512 10.5257 7.05818 10.5264C6.97443 10.5269 6.89141 10.5109 6.81387 10.4792C6.73634 10.4475 6.66582 10.4009 6.60636 10.3419L4.69727 8.43279C4.63762 8.37363 4.59028 8.30325 4.55797 8.2257C4.52567 8.14815 4.50903 8.06498 4.50903 7.98097C4.50903 7.89696 4.52567 7.81379 4.55797 7.73624C4.59028 7.65869 4.63762 7.58831 4.69727 7.52915C4.8165 7.41063 4.97779 7.3441 5.1459 7.3441C5.31402 7.3441 5.47531 7.41063 5.59454 7.52915L7.03909 8.9737L10.3673 5.63915C10.4865 5.52063 10.6478 5.4541 10.8159 5.4541C10.984 5.4541 11.1453 5.52063 11.2645 5.63915C11.3284 5.6973 11.3797 5.76782 11.4154 5.84643C11.4511 5.92504 11.4704 6.0101 11.4722 6.09642C11.474 6.18274 11.4582 6.26852 11.4258 6.34854C11.3934 6.42856 11.345 6.50114 11.2836 6.56188Z" fill="#26BD87"/>
<path opacity="0.3" d="M8 1C6.61553 1 5.26216 1.41054 4.11101 2.17971C2.95987 2.94888 2.06266 4.04213 1.53285 5.32122C1.00303 6.6003 0.86441 8.00776 1.13451 9.36563C1.4046 10.7235 2.07129 11.9708 3.05026 12.9497C4.02922 13.9287 5.2765 14.5954 6.63437 14.8655C7.99224 15.1356 9.3997 14.997 10.6788 14.4672C11.9579 13.9373 13.0511 13.0401 13.8203 11.889C14.5895 10.7378 15 9.38447 15 8C15 6.14348 14.2625 4.36301 12.9497 3.05025C11.637 1.7375 9.85652 1 8 1ZM11.2836 6.56182L7.50364 10.3418C7.38511 10.4594 7.22513 10.5257 7.05818 10.5264C6.97443 10.5268 6.89141 10.5108 6.81388 10.4791C6.73635 10.4475 6.66583 10.4008 6.60637 10.3418L4.69728 8.43273C4.63763 8.37357 4.59029 8.30319 4.55798 8.22564C4.52567 8.14809 4.50904 8.06492 4.50904 7.98091C4.50904 7.8969 4.52567 7.81372 4.55798 7.73618C4.59029 7.65863 4.63763 7.58825 4.69728 7.52909C4.81651 7.41057 4.97779 7.34404 5.14591 7.34404C5.31403 7.34404 5.47532 7.41057 5.59455 7.52909L7.03909 8.97363L10.3673 5.63909C10.4865 5.52057 10.6478 5.45404 10.8159 5.45404C10.984 5.45404 11.1453 5.52057 11.2645 5.63909C11.3284 5.69723 11.3797 5.76776 11.4154 5.84637C11.4511 5.92498 11.4704 6.01003 11.4722 6.09635C11.474 6.18267 11.4582 6.26846 11.4258 6.34848C11.3934 6.4285 11.345 6.50108 11.2836 6.56182Z" fill="#26BD87"/>
</svg>
