<svg width="16" height="16" viewBox="0 0 16 16" fill="none" xmlns="http://www.w3.org/2000/svg">
<path d="M13.0549 12.077C13.0549 12.1281 13.0294 12.1536 13.0039 12.2047C12.6209 12.7408 10.5528 13.1749 8.05072 13.1749C5.54861 13.1749 3.455 12.7664 3.09756 12.2047C3.07202 12.1791 3.04649 12.1281 3.04649 12.077C2.81671 11.4132 3.32734 10.7749 3.32734 10.7749C3.32734 10.7749 4.04223 11.1068 4.34861 11.2345C6.34009 10.7494 9.76135 10.7494 11.7784 11.2345C12.0847 11.0813 12.7996 10.7749 12.7996 10.7749C12.7996 10.7749 13.2847 11.4387 13.0549 12.077Z" fill="#FCB116"/>
<path opacity="0.1" d="M11.728 11.2599C11.5492 11.2088 11.3705 11.1833 11.1663 11.1322C11.2939 11.2599 11.4216 11.362 11.5237 11.5152C11.6514 11.7195 11.728 11.9748 11.7024 12.2301C11.6769 12.3322 11.6514 12.4599 11.6003 12.562C11.5492 12.6642 11.4982 12.7663 11.4471 12.8429C12.2641 12.6642 12.8258 12.4344 13.0045 12.179C13.0301 12.128 13.0556 12.1025 13.0556 12.0514C13.2854 11.3876 12.7748 10.7493 12.7748 10.7493C12.7748 10.7493 12.0599 11.1322 11.728 11.2599Z" fill="#231F20"/>
<path opacity="0.15" d="M4.32287 11.2599C4.5016 11.2088 4.68032 11.1833 4.88457 11.1322C4.75691 11.2599 4.62926 11.362 4.52713 11.5152C4.39947 11.7195 4.32287 11.9748 4.34841 12.2301C4.37394 12.3322 4.39947 12.4599 4.45053 12.562C4.5016 12.6642 4.55266 12.7663 4.60372 12.8429C3.78671 12.6642 3.22501 12.4344 3.04629 12.179C3.02076 12.128 2.99522 12.1025 2.99522 12.0514C2.76544 11.3876 3.27607 10.7493 3.27607 10.7493C3.27607 10.7493 4.01649 11.1322 4.32287 11.2599Z" fill="white"/>
<path d="M12.8258 10.9531C12.8258 11.5658 10.6811 12.0509 8.0258 12.0509C5.3705 12.0509 3.22583 11.5658 3.22583 10.9531C3.25136 9.49774 12.8258 9.49774 12.8258 10.9531Z" fill="#FDC134"/>
<path d="M13.4386 6.35645C13.4386 7.78623 13.1578 9.3692 12.6727 10.8245C12.6471 11.4117 10.5791 11.8713 8.02589 11.8713C5.47272 11.8713 3.40464 11.4117 3.37911 10.8245C2.89401 9.3692 2.61316 7.78623 2.61316 6.35645C2.61316 5.94794 2.63869 5.56497 2.66422 5.18199H3.65996C3.86422 6.66283 4.60464 7.7607 5.47272 7.7607C6.49399 7.7607 7.33654 6.20326 7.33654 4.28838V4.05859H8.68972C8.63866 5.5139 9.22589 7.7607 10.5535 7.7607C11.4216 7.7607 12.1365 6.66283 12.3663 5.18199H13.362C13.4131 5.53944 13.4386 5.94794 13.4386 6.35645Z" fill="#FCB116"/>
<path d="M8.05092 4.0332H7.36156V4.26299C7.36156 6.17787 6.51901 7.73531 5.49774 7.73531C4.62966 7.73531 3.91477 6.63744 3.68499 5.1566H2.68925C2.63818 5.53958 2.63818 5.94808 2.63818 6.33106C2.63818 7.76084 2.91903 9.34381 3.40414 10.7991C3.42967 11.3863 5.49774 11.8459 8.05092 11.8459H8.07645V4.0332H8.05092Z" fill="#FDE74A"/>
<path d="M7.36156 4.46826V4.67252C7.36156 6.5874 6.51901 8.14483 5.49774 8.14483C4.62966 8.14483 3.91477 7.04697 3.68499 5.56613H2.68925C2.66372 5.89804 2.63818 6.22995 2.63818 6.53633V6.33208C2.63818 5.92357 2.66372 5.5406 2.68925 5.15762H3.68499C3.88924 6.63846 4.62966 7.73633 5.49774 7.73633C6.49348 7.73633 7.3105 6.28102 7.36156 4.46826Z" fill="#F99B1F"/>
<path d="M7.36182 4.26299V4.0332H8.715V4.44171H7.36182V4.26299Z" fill="#F99B1F"/>
<path d="M13.4377 6.35761V6.56187C13.4377 6.22995 13.4122 5.89804 13.3867 5.59166H12.3909C12.1867 7.0725 11.4463 8.17037 10.5782 8.17037C9.225 8.17037 8.6633 5.89804 8.71436 4.46826C8.84202 8.42568 11.8548 8.98738 12.3909 5.18315H13.3611C13.4122 5.5406 13.4377 5.9491 13.4377 6.35761Z" fill="#F99B1F"/>
<path opacity="0.1" d="M13.3617 5.15723H12.366C12.1873 6.48488 11.5745 7.48062 10.8596 7.68487L10.3745 11.6934C11.7277 11.5146 12.6468 11.1827 12.6724 10.7997C13.1575 9.34444 13.4383 7.76147 13.4383 6.33169C13.4383 5.94871 13.4128 5.5402 13.3617 5.15723Z" fill="#231F20"/>
<path opacity="0.15" d="M2.68975 5.15723H3.68549C3.86422 6.48488 4.47698 7.48062 5.19187 7.68487L5.67697 11.6934C4.32379 11.5146 3.40464 11.1827 3.37911 10.7997C2.89401 9.34444 2.61316 7.76147 2.61316 6.33169C2.61316 5.94871 2.63869 5.5402 2.68975 5.15723Z" fill="white"/>
<path d="M12.8768 6.12766C13.4973 6.12766 14.0002 5.62469 14.0002 5.00426C14.0002 4.38382 13.4973 3.88086 12.8768 3.88086C12.2564 3.88086 11.7534 4.38382 11.7534 5.00426C11.7534 5.62469 12.2564 6.12766 12.8768 6.12766Z" fill="#FDC134"/>
<path opacity="0.2" d="M12.8005 5.89793C13.3364 5.89793 13.7707 5.46356 13.7707 4.92773C13.7707 4.3919 13.3364 3.95752 12.8005 3.95752C12.2647 3.95752 11.8303 4.3919 11.8303 4.92773C11.8303 5.46356 12.2647 5.89793 12.8005 5.89793Z" fill="white"/>
<path opacity="0.2" d="M12.723 5.6936C13.1742 5.6936 13.54 5.32781 13.54 4.87659C13.54 4.42536 13.1742 4.05957 12.723 4.05957C12.2718 4.05957 11.906 4.42536 11.906 4.87659C11.906 5.32781 12.2718 5.6936 12.723 5.6936Z" fill="white"/>
<path opacity="0.2" d="M12.647 5.36147C12.9714 5.36147 13.2343 5.09856 13.2343 4.77424C13.2343 4.44992 12.9714 4.18701 12.647 4.18701C12.3227 4.18701 12.0598 4.44992 12.0598 4.77424C12.0598 5.09856 12.3227 5.36147 12.647 5.36147Z" fill="white"/>
<path d="M3.12364 6.12766C3.74408 6.12766 4.24704 5.62469 4.24704 5.00426C4.24704 4.38382 3.74408 3.88086 3.12364 3.88086C2.50321 3.88086 2.00024 4.38382 2.00024 5.00426C2.00024 5.62469 2.50321 6.12766 3.12364 6.12766Z" fill="#FDC134"/>
<path opacity="0.2" d="M3.07226 5.89793C3.60809 5.89793 4.04246 5.46356 4.04246 4.92773C4.04246 4.3919 3.60809 3.95752 3.07226 3.95752C2.53643 3.95752 2.10205 4.3919 2.10205 4.92773C2.10205 5.46356 2.53643 5.89793 3.07226 5.89793Z" fill="white"/>
<path opacity="0.2" d="M2.99597 5.6936C3.4472 5.6936 3.81299 5.32781 3.81299 4.87659C3.81299 4.42536 3.4472 4.05957 2.99597 4.05957C2.54475 4.05957 2.17896 4.42536 2.17896 4.87659C2.17896 5.32781 2.54475 5.6936 2.99597 5.6936Z" fill="white"/>
<path opacity="0.2" d="M2.91877 5.36147C3.24309 5.36147 3.506 5.09856 3.506 4.77424C3.506 4.44992 3.24309 4.18701 2.91877 4.18701C2.59446 4.18701 2.33154 4.44992 2.33154 4.77424C2.33154 5.09856 2.59446 5.36147 2.91877 5.36147Z" fill="white"/>
<path d="M8.02638 5.36159C8.84422 5.36159 9.50722 4.69859 9.50722 3.88074C9.50722 3.0629 8.84422 2.3999 8.02638 2.3999C7.20853 2.3999 6.54553 3.0629 6.54553 3.88074C6.54553 4.69859 7.20853 5.36159 8.02638 5.36159Z" fill="#FDC134"/>
<path opacity="0.2" d="M7.94918 5.00358C8.64012 5.00358 9.20023 4.44346 9.20023 3.75252C9.20023 3.06158 8.64012 2.50146 7.94918 2.50146C7.25824 2.50146 6.69812 3.06158 6.69812 3.75252C6.69812 4.44346 7.25824 5.00358 7.94918 5.00358Z" fill="white"/>
<path opacity="0.2" d="M7.84785 4.77455C8.44008 4.77455 8.92018 4.29445 8.92018 3.70222C8.92018 3.10998 8.44008 2.62988 7.84785 2.62988C7.25561 2.62988 6.77551 3.10998 6.77551 3.70222C6.77551 4.29445 7.25561 4.77455 7.84785 4.77455Z" fill="white"/>
<path opacity="0.2" d="M7.74532 4.3405C8.16835 4.3405 8.51128 3.99757 8.51128 3.57455C8.51128 3.15152 8.16835 2.80859 7.74532 2.80859C7.3223 2.80859 6.97937 3.15152 6.97937 3.57455C6.97937 3.99757 7.3223 4.3405 7.74532 4.3405Z" fill="white"/>
<path opacity="0.2" d="M7.84711 13.072C8.43935 13.072 8.91945 12.8548 8.91945 12.5869C8.91945 12.319 8.43935 12.1018 7.84711 12.1018C7.25488 12.1018 6.77478 12.319 6.77478 12.5869C6.77478 12.8548 7.25488 13.072 7.84711 13.072Z" fill="white"/>
<path opacity="0.2" d="M7.84741 12.9948C8.29864 12.9948 8.66443 12.8577 8.66443 12.6885C8.66443 12.5193 8.29864 12.3821 7.84741 12.3821C7.39619 12.3821 7.0304 12.5193 7.0304 12.6885C7.0304 12.8577 7.39619 12.9948 7.84741 12.9948Z" fill="white"/>
</svg>
