<svg width="24" height="24" viewBox="0 0 24 24" fill="none" xmlns="http://www.w3.org/2000/svg">
<path d="M3.92513 3.92513C4.27674 3.57353 4.75342 3.37569 5.25065 3.375H18.7493C19.2466 3.37569 19.7233 3.57353 20.0749 3.92513C20.4266 4.27688 20.6245 4.75379 20.625 5.25123V18.7488C20.6245 19.2462 20.4266 19.7231 20.0749 20.0749C19.7231 20.4266 19.2462 20.6245 18.7488 20.625H5.25123C4.75379 20.6245 4.27688 20.4266 3.92513 20.0749C3.57353 19.7233 3.37569 19.2466 3.375 18.7493V5.25065C3.37569 4.75342 3.57353 4.27674 3.92513 3.92513Z" stroke="url(#paint0_linear)" stroke-width="2.25"/>
<defs>
<linearGradient id="paint0_linear" x1="4.85" y1="6.3125" x2="18.6625" y2="18.5" gradientUnits="userSpaceOnUse">
<stop offset="0.442708" stop-color="#D51F40"/>
<stop offset="0.682292" stop-color="#E24134"/>
<stop offset="0.859375" stop-color="#E8542E"/>
<stop offset="1" stop-color="#F37024"/>
</linearGradient>
</defs>
</svg>
