<svg width="16" height="16" viewBox="0 0 16 16" fill="none" xmlns="http://www.w3.org/2000/svg">
<path d="M12.9486 3.04909C12.1345 2.23541 11.1324 1.63502 10.0309 1.30108C8.92941 0.967151 7.76258 0.909979 6.63373 1.13463C5.50488 1.35928 4.44884 1.85883 3.55913 2.58903C2.66942 3.31922 1.97349 4.25755 1.53298 5.3209C1.09246 6.38425 0.920947 7.53983 1.03363 8.68529C1.14631 9.83074 1.5397 10.9307 2.17897 11.8879C2.81825 12.845 3.68367 13.6297 4.69861 14.1726C5.71355 14.7154 6.84669 14.9996 7.99767 15C9.85351 15.0023 11.6343 14.2675 12.9486 12.9573C13.5999 12.3071 14.1166 11.5349 14.4692 10.6848C14.8217 9.83472 15.0032 8.92347 15.0032 8.00318C15.0032 7.08289 14.8217 6.17164 14.4692 5.32156C14.1166 4.47148 13.5999 3.69926 12.9486 3.04909ZM10.6959 9.80091C10.8144 9.92014 10.8809 10.0814 10.8809 10.2495C10.8809 10.4177 10.8144 10.5789 10.6959 10.6982C10.5766 10.8167 10.4153 10.8832 10.2472 10.8832C10.0791 10.8832 9.91781 10.8167 9.79858 10.6982L7.99767 8.89727L6.19677 10.6982C6.07754 10.8167 5.91625 10.8832 5.74813 10.8832C5.58001 10.8832 5.41872 10.8167 5.29949 10.6982C5.18097 10.5789 5.11444 10.4177 5.11444 10.2495C5.11444 10.0814 5.18097 9.92014 5.29949 9.80091L7.1004 8L5.29949 6.19909C5.19524 6.07735 5.14076 5.92076 5.14695 5.7606C5.15314 5.60044 5.21953 5.44852 5.33286 5.33519C5.4462 5.22185 5.59812 5.15546 5.75828 5.14927C5.91844 5.14309 6.07503 5.19756 6.19677 5.30182L7.99767 7.10273L9.79858 5.30182C9.85563 5.2352 9.92583 5.1811 10.0048 5.1429C10.0837 5.1047 10.1697 5.08324 10.2574 5.07985C10.345 5.07647 10.4324 5.09124 10.5141 5.12323C10.5957 5.15522 10.6699 5.20375 10.7319 5.26577C10.7939 5.32778 10.8425 5.40195 10.8744 5.48361C10.9064 5.56527 10.9212 5.65267 10.9178 5.7403C10.9144 5.82794 10.893 5.91394 10.8548 5.99289C10.8166 6.07184 10.7625 6.14204 10.6959 6.19909L8.89495 8L10.6959 9.80091Z" fill="#4E5156"/>
<path d="M10.8267 9.88679C10.9509 10.0117 11.0205 10.1807 11.0205 10.3568C11.0205 10.5329 10.9509 10.7019 10.8267 10.8268C10.7018 10.951 10.5328 11.0207 10.3567 11.0207C10.1806 11.0207 10.0116 10.951 9.88669 10.8268L8.00002 8.94012L6.11335 10.8268C5.98845 10.951 5.81948 11.0207 5.64335 11.0207C5.46723 11.0207 5.29826 10.951 5.17335 10.8268C5.04919 10.7019 4.97949 10.5329 4.97949 10.3568C4.97949 10.1807 5.04919 10.0117 5.17335 9.88679L7.06002 8.00013L5.17335 6.11346C5.06414 5.98592 5.00707 5.82187 5.01355 5.65409C5.02003 5.48631 5.08958 5.32715 5.20831 5.20842C5.32704 5.08969 5.4862 5.02013 5.65398 5.01365C5.82177 5.00717 5.98582 5.06424 6.11335 5.17346L8.00002 7.06013L9.88669 5.17346C9.94645 5.10367 10.02 5.04699 10.1027 5.00698C10.1854 4.96696 10.2755 4.94447 10.3673 4.94093C10.4591 4.93738 10.5507 4.95285 10.6362 4.98637C10.7218 5.01988 10.7995 5.07072 10.8645 5.13569C10.9294 5.20066 10.9803 5.27836 11.0138 5.36391C11.0473 5.44946 11.0628 5.54102 11.0592 5.63283C11.0557 5.72464 11.0332 5.81473 10.9932 5.89744C10.9532 5.98015 10.8965 6.05369 10.8267 6.11346L8.94002 8.00013L10.8267 9.88679Z" fill="#F45A64"/>
</svg>
