<svg width="24" height="24" viewBox="0 0 24 24" fill="none" xmlns="http://www.w3.org/2000/svg">
<path d="M19.5 3.00005H18.75V2.27115C18.75 1.86755 18.4397 1.52115 18.0361 1.50099C17.9347 1.49611 17.8333 1.51186 17.7382 1.5473C17.6431 1.58274 17.5561 1.63712 17.4826 1.70716C17.4091 1.77719 17.3506 1.86142 17.3106 1.95474C17.2706 2.04806 17.25 2.14853 17.25 2.25005V3.00005H6.75V2.27115C6.75 1.86755 6.43969 1.52115 6.03609 1.50099C5.93469 1.49611 5.83334 1.51186 5.7382 1.5473C5.64307 1.58274 5.55611 1.63712 5.48261 1.70716C5.40911 1.77719 5.3506 1.86142 5.31062 1.95474C5.27063 2.04806 5.25001 2.14853 5.25 2.25005V3.00005H4.5C3.70435 3.00005 2.94129 3.31612 2.37868 3.87873C1.81607 4.44134 1.5 5.2044 1.5 6.00005V19.5001C1.5 20.2957 1.81607 21.0588 2.37868 21.6214C2.94129 22.184 3.70435 22.5001 4.5 22.5001H19.5C20.2956 22.5001 21.0587 22.184 21.6213 21.6214C22.1839 21.0588 22.5 20.2957 22.5 19.5001V6.00005C22.5 5.2044 22.1839 4.44134 21.6213 3.87873C21.0587 3.31612 20.2956 3.00005 19.5 3.00005ZM6.375 19.5001C6.1525 19.5001 5.93499 19.4341 5.74998 19.3105C5.56498 19.1868 5.42078 19.0111 5.33564 18.8056C5.25049 18.6 5.22821 18.3738 5.27162 18.1556C5.31502 17.9373 5.42217 17.7369 5.5795 17.5796C5.73684 17.4222 5.93729 17.3151 6.15552 17.2717C6.37375 17.2283 6.59995 17.2505 6.80552 17.3357C7.01109 17.4208 7.18679 17.565 7.3104 17.75C7.43402 17.935 7.5 18.1525 7.5 18.3751C7.5 18.6734 7.38147 18.9596 7.1705 19.1705C6.95952 19.3815 6.67337 19.5001 6.375 19.5001ZM6.375 15.7501C6.1525 15.7501 5.93499 15.6841 5.74998 15.5605C5.56498 15.4368 5.42078 15.2611 5.33564 15.0556C5.25049 14.85 5.22821 14.6238 5.27162 14.4056C5.31502 14.1873 5.42217 13.9869 5.5795 13.8296C5.73684 13.6722 5.93729 13.5651 6.15552 13.5217C6.37375 13.4783 6.59995 13.5005 6.80552 13.5857C7.01109 13.6708 7.18679 13.815 7.3104 14C7.43402 14.185 7.5 14.4025 7.5 14.6251C7.5 14.9234 7.38147 15.2096 7.1705 15.4205C6.95952 15.6315 6.67337 15.7501 6.375 15.7501ZM10.125 19.5001C9.9025 19.5001 9.68499 19.4341 9.49998 19.3105C9.31498 19.1868 9.17078 19.0111 9.08564 18.8056C9.00049 18.6 8.97821 18.3738 9.02162 18.1556C9.06502 17.9373 9.17217 17.7369 9.3295 17.5796C9.48684 17.4222 9.68729 17.3151 9.90552 17.2717C10.1238 17.2283 10.35 17.2505 10.5555 17.3357C10.7611 17.4208 10.9368 17.565 11.0604 17.75C11.184 17.935 11.25 18.1525 11.25 18.3751C11.25 18.6734 11.1315 18.9596 10.9205 19.1705C10.7095 19.3815 10.4234 19.5001 10.125 19.5001ZM10.125 15.7501C9.9025 15.7501 9.68499 15.6841 9.49998 15.5605C9.31498 15.4368 9.17078 15.2611 9.08564 15.0556C9.00049 14.85 8.97821 14.6238 9.02162 14.4056C9.06502 14.1873 9.17217 13.9869 9.3295 13.8296C9.48684 13.6722 9.68729 13.5651 9.90552 13.5217C10.1238 13.4783 10.35 13.5005 10.5555 13.5857C10.7611 13.6708 10.9368 13.815 11.0604 14C11.184 14.185 11.25 14.4025 11.25 14.6251C11.25 14.9234 11.1315 15.2096 10.9205 15.4205C10.7095 15.6315 10.4234 15.7501 10.125 15.7501ZM13.875 19.5001C13.6525 19.5001 13.435 19.4341 13.25 19.3105C13.065 19.1868 12.9208 19.0111 12.8356 18.8056C12.7505 18.6 12.7282 18.3738 12.7716 18.1556C12.815 17.9373 12.9222 17.7369 13.0795 17.5796C13.2368 17.4222 13.4373 17.3151 13.6555 17.2717C13.8738 17.2283 14.1 17.2505 14.3055 17.3357C14.5111 17.4208 14.6868 17.565 14.8104 17.75C14.934 17.935 15 18.1525 15 18.3751C15 18.6734 14.8815 18.9596 14.6705 19.1705C14.4595 19.3815 14.1734 19.5001 13.875 19.5001ZM13.875 15.7501C13.6525 15.7501 13.435 15.6841 13.25 15.5605C13.065 15.4368 12.9208 15.2611 12.8356 15.0556C12.7505 14.85 12.7282 14.6238 12.7716 14.4056C12.815 14.1873 12.9222 13.9869 13.0795 13.8296C13.2368 13.6722 13.4373 13.5651 13.6555 13.5217C13.8738 13.4783 14.1 13.5005 14.3055 13.5857C14.5111 13.6708 14.6868 13.815 14.8104 14C14.934 14.185 15 14.4025 15 14.6251C15 14.9234 14.8815 15.2096 14.6705 15.4205C14.4595 15.6315 14.1734 15.7501 13.875 15.7501ZM13.875 12.0001C13.6525 12.0001 13.435 11.9341 13.25 11.8105C13.065 11.6868 12.9208 11.5111 12.8356 11.3056C12.7505 11.1 12.7282 10.8738 12.7716 10.6556C12.815 10.4373 12.9222 10.2369 13.0795 10.0796C13.2368 9.92222 13.4373 9.81508 13.6555 9.77167C13.8738 9.72826 14.1 9.75054 14.3055 9.83569C14.5111 9.92084 14.6868 10.065 14.8104 10.25C14.934 10.435 15 10.6525 15 10.8751C15 11.1734 14.8815 11.4596 14.6705 11.6705C14.4595 11.8815 14.1734 12.0001 13.875 12.0001ZM17.625 15.7501C17.4025 15.7501 17.185 15.6841 17 15.5605C16.815 15.4368 16.6708 15.2611 16.5856 15.0556C16.5005 14.85 16.4782 14.6238 16.5216 14.4056C16.565 14.1873 16.6722 13.9869 16.8295 13.8296C16.9868 13.6722 17.1873 13.5651 17.4055 13.5217C17.6238 13.4783 17.85 13.5005 18.0555 13.5857C18.2611 13.6708 18.4368 13.815 18.5604 14C18.684 14.185 18.75 14.4025 18.75 14.6251C18.75 14.9234 18.6315 15.2096 18.4205 15.4205C18.2095 15.6315 17.9234 15.7501 17.625 15.7501ZM17.625 12.0001C17.4025 12.0001 17.185 11.9341 17 11.8105C16.815 11.6868 16.6708 11.5111 16.5856 11.3056C16.5005 11.1 16.4782 10.8738 16.5216 10.6556C16.565 10.4373 16.6722 10.2369 16.8295 10.0796C16.9868 9.92222 17.1873 9.81508 17.4055 9.77167C17.6238 9.72826 17.85 9.75054 18.0555 9.83569C18.2611 9.92084 18.4368 10.065 18.5604 10.25C18.684 10.435 18.75 10.6525 18.75 10.8751C18.75 11.1734 18.6315 11.4596 18.4205 11.6705C18.2095 11.8815 17.9234 12.0001 17.625 12.0001ZM21 6.37505V7.12505C21 7.22451 20.9605 7.31989 20.8902 7.39022C20.8198 7.46055 20.7245 7.50005 20.625 7.50005H3.375C3.27554 7.50005 3.18016 7.46055 3.10984 7.39022C3.03951 7.31989 3 7.22451 3 7.12505V6.00005C3.00111 5.60257 3.15951 5.22169 3.44057 4.94062C3.72163 4.65956 4.10252 4.50117 4.5 4.50005H19.5C19.8975 4.50117 20.2784 4.65956 20.5594 4.94062C20.8405 5.22169 20.9989 5.60257 21 6.00005V6.37505Z" fill="white"/>
</svg>
