<svg width="18" height="18" viewBox="0 0 18 18" fill="none" xmlns="http://www.w3.org/2000/svg">
<path d="M13.5 15.75H4.5C4.05245 15.75 3.62322 15.5722 3.30676 15.2557C2.99029 14.9393 2.8125 14.5101 2.8125 14.0625V4.5C2.8125 4.05245 2.99029 3.62322 3.30676 3.30676C3.62322 2.99029 4.05245 2.8125 4.5 2.8125H13.5C13.9476 2.8125 14.3768 2.99029 14.6932 3.30676C15.0097 3.62322 15.1875 4.05245 15.1875 4.5V14.0625C15.1875 14.5101 15.0097 14.9393 14.6932 15.2557C14.3768 15.5722 13.9476 15.75 13.5 15.75ZM4.5 3.9375C4.35082 3.9375 4.20774 3.99676 4.10225 4.10225C3.99676 4.20774 3.9375 4.35082 3.9375 4.5V14.0625C3.9375 14.2117 3.99676 14.3548 4.10225 14.4602C4.20774 14.5657 4.35082 14.625 4.5 14.625H13.5C13.6492 14.625 13.7923 14.5657 13.8977 14.4602C14.0032 14.3548 14.0625 14.2117 14.0625 14.0625V4.5C14.0625 4.35082 14.0032 4.20774 13.8977 4.10225C13.7923 3.99676 13.6492 3.9375 13.5 3.9375H4.5Z" fill="#DBD2CF"/>
<path d="M14.625 6.82031H3.375C3.22582 6.82031 3.08274 6.76105 2.97725 6.65556C2.87176 6.55007 2.8125 6.407 2.8125 6.25781C2.8125 6.10863 2.87176 5.96555 2.97725 5.86006C3.08274 5.75458 3.22582 5.69531 3.375 5.69531H14.625C14.7742 5.69531 14.9173 5.75458 15.0227 5.86006C15.1282 5.96555 15.1875 6.10863 15.1875 6.25781C15.1875 6.407 15.1282 6.55007 15.0227 6.65556C14.9173 6.76105 14.7742 6.82031 14.625 6.82031ZM5.625 5.0625C5.47582 5.0625 5.33274 5.00324 5.22725 4.89775C5.12176 4.79226 5.0625 4.64918 5.0625 4.5V2.25C5.0625 2.10082 5.12176 1.95774 5.22725 1.85225C5.33274 1.74676 5.47582 1.6875 5.625 1.6875C5.77418 1.6875 5.91726 1.74676 6.02275 1.85225C6.12824 1.95774 6.1875 2.10082 6.1875 2.25V4.5C6.1875 4.64918 6.12824 4.79226 6.02275 4.89775C5.91726 5.00324 5.77418 5.0625 5.625 5.0625ZM12.375 5.0625C12.2258 5.0625 12.0827 5.00324 11.9773 4.89775C11.8718 4.79226 11.8125 4.64918 11.8125 4.5V2.25C11.8125 2.10082 11.8718 1.95774 11.9773 1.85225C12.0827 1.74676 12.2258 1.6875 12.375 1.6875C12.5242 1.6875 12.6673 1.74676 12.7727 1.85225C12.8782 1.95774 12.9375 2.10082 12.9375 2.25V4.5C12.9375 4.64918 12.8782 4.79226 12.7727 4.89775C12.6673 5.00324 12.5242 5.0625 12.375 5.0625ZM8.4375 12.9375C8.28833 12.9375 8.14528 12.8782 8.03981 12.7727L6.35231 11.0852C6.24985 10.9791 6.19315 10.837 6.19443 10.6895C6.19572 10.542 6.25487 10.401 6.35916 10.2967C6.46346 10.1924 6.60454 10.1332 6.75202 10.1319C6.89951 10.1307 7.0416 10.1873 7.14769 10.2898L8.40263 11.5448L9.75262 9.95006L11.1026 8.35538C11.199 8.2414 11.3367 8.17037 11.4854 8.15793C11.6342 8.14548 11.7818 8.19263 11.8958 8.289C12.0097 8.38537 12.0808 8.52308 12.0932 8.67182C12.1056 8.82056 12.0585 8.96815 11.9621 9.08212L8.86837 12.7384C8.81816 12.7977 8.7562 12.846 8.68639 12.8801C8.61659 12.9143 8.54046 12.9337 8.46281 12.9369L8.4375 12.9375Z" fill="#DBD2CF"/>
<path d="M8.03974 12.7727C8.1452 12.8782 8.28825 12.9375 8.43742 12.9375L8.46274 12.937C8.54039 12.9337 8.61651 12.9144 8.68632 12.8802C8.75612 12.846 8.81808 12.7977 8.8683 12.7384L11.962 9.08217C12.0584 8.96819 12.1056 8.8206 12.0931 8.67186C12.0807 8.52312 12.0097 8.38542 11.8957 8.28904C11.7817 8.19267 11.6341 8.14552 11.4854 8.15797C11.3366 8.17042 11.1989 8.24144 11.1025 8.35542L9.75255 9.9501L8.40255 11.5448L7.14761 10.2899C7.04152 10.1874 6.89943 10.1307 6.75195 10.132C6.60446 10.1333 6.46338 10.1924 6.35909 10.2967C6.2548 10.401 6.19564 10.5421 6.19436 10.6896C6.19308 10.8371 6.24977 10.9791 6.35224 11.0852L8.03974 12.7727Z" fill="#F37024"/>
</svg>
