<svg width="24" height="24" viewBox="0 0 24 24" fill="none" xmlns="http://www.w3.org/2000/svg">
<path fill-rule="evenodd" clip-rule="evenodd" d="M13.2756 20.4516L16.8278 15.8054C17.455 15.0755 16.9366 13.9482 15.9756 13.9482L8.86938 13.9482C7.90844 13.9482 7.39 15.0755 8.01532 15.8054L11.5675 20.4516C11.6731 20.5748 11.8041 20.6737 11.9515 20.7415C12.099 20.8093 12.2593 20.8444 12.4216 20.8444C12.5838 20.8444 12.7442 20.8093 12.8916 20.7415C13.039 20.6737 13.17 20.5748 13.2756 20.4516ZM13.2756 3.39274L16.8278 8.039C17.455 8.76885 16.9366 9.89619 15.9756 9.89619L8.86938 9.89619C7.90844 9.89619 7.39 8.76885 8.01532 8.039L11.5675 3.39274C11.6731 3.26956 11.8041 3.17068 11.9515 3.10289C12.099 3.0351 12.2593 3 12.4216 3C12.5838 3 12.7442 3.0351 12.8916 3.10289C13.039 3.17068 13.17 3.26956 13.2756 3.39274Z" fill="white"/>
</svg>
