<svg width="16" height="16" viewBox="0 0 16 16" fill="none" xmlns="http://www.w3.org/2000/svg">
<path d="M13.8182 0H2.18182C1.60316 0 1.04821 0.229869 0.63904 0.63904C0.229869 1.04821 0 1.60316 0 2.18182V13.8182C0 14.3968 0.229869 14.9518 0.63904 15.361C1.04821 15.7701 1.60316 16 2.18182 16H13.8182C14.3968 16 14.9518 15.7701 15.361 15.361C15.7701 14.9518 16 14.3968 16 13.8182V2.18182C16 1.60316 15.7701 1.04821 15.361 0.63904C14.9518 0.229869 14.3968 0 13.8182 0ZM12.0655 10.2909C11.9975 10.3583 11.9169 10.4116 11.8283 10.4478C11.7397 10.484 11.6448 10.5024 11.5491 10.5018C11.4534 10.5024 11.3585 10.484 11.2699 10.4478C11.1813 10.4116 11.1007 10.3583 11.0327 10.2909L8 7.27273L4.96727 10.2909C4.89946 10.3587 4.81896 10.4125 4.73036 10.4492C4.64177 10.4859 4.54681 10.5048 4.45091 10.5048C4.35501 10.5048 4.26005 10.4859 4.17146 10.4492C4.08286 10.4125 4.00236 10.3587 3.93455 10.2909C3.86674 10.2231 3.81295 10.1426 3.77625 10.054C3.73955 9.9654 3.72066 9.87044 3.72066 9.77455C3.72066 9.67865 3.73955 9.58369 3.77625 9.49509C3.81295 9.40649 3.86674 9.32599 3.93455 9.25818L7.48364 5.70909C7.55125 5.64093 7.63168 5.58682 7.72031 5.5499C7.80893 5.51297 7.90399 5.49397 8 5.49397C8.09601 5.49397 8.19107 5.51297 8.27969 5.5499C8.36832 5.58682 8.44875 5.64093 8.51636 5.70909L12.0655 9.25818C12.1336 9.32579 12.1877 9.40623 12.2246 9.49485C12.2616 9.58348 12.2806 9.67854 12.2806 9.77455C12.2806 9.87055 12.2616 9.96561 12.2246 10.0542C12.1877 10.1429 12.1336 10.2233 12.0655 10.2909Z" fill="#F37024"/>
<path d="M12.0655 10.2911C11.9975 10.3585 11.9169 10.4118 11.8283 10.448C11.7397 10.4842 11.6448 10.5025 11.5491 10.502C11.4534 10.5025 11.3585 10.4842 11.2699 10.448C11.1813 10.4118 11.1007 10.3585 11.0328 10.2911L8.00004 7.2729L4.96732 10.2911C4.89951 10.3589 4.819 10.4127 4.73041 10.4494C4.64181 10.4861 4.54685 10.505 4.45095 10.505C4.35505 10.505 4.2601 10.4861 4.1715 10.4494C4.0829 10.4127 4.0024 10.3589 3.93459 10.2911C3.86678 10.2233 3.81299 10.1428 3.77629 10.0542C3.73959 9.96558 3.7207 9.87062 3.7207 9.77472C3.7207 9.67882 3.73959 9.58387 3.77629 9.49527C3.81299 9.40667 3.86678 9.32617 3.93459 9.25836L7.48368 5.70927C7.55129 5.6411 7.63173 5.587 7.72035 5.55007C7.80898 5.51315 7.90403 5.49414 8.00004 5.49414C8.09605 5.49414 8.19111 5.51315 8.27974 5.55007C8.36836 5.587 8.4488 5.6411 8.51641 5.70927L12.0655 9.25836C12.1337 9.32597 12.1878 9.4064 12.2247 9.49503C12.2616 9.58365 12.2806 9.67871 12.2806 9.77472C12.2806 9.87073 12.2616 9.96579 12.2247 10.0544C12.1878 10.143 12.1337 10.2235 12.0655 10.2911Z" fill="#27282B"/>
</svg>
