<svg width="27" height="22" viewBox="0 0 27 22" fill="none" xmlns="http://www.w3.org/2000/svg">
<path d="M22.1452 2.26321C20.4622 1.44201 18.6626 0.845202 16.7812 0.505371C16.5501 0.941022 16.2802 1.52698 16.0941 1.99311C14.0941 1.67945 12.1125 1.67945 10.1493 1.99311C9.96317 1.52698 9.6871 0.941022 9.45397 0.505371C7.57052 0.845202 5.76887 1.44421 4.08584 2.26756C0.691138 7.61725 -0.229109 12.8341 0.231016 17.9768C2.48256 19.7302 4.66458 20.7954 6.80977 21.4924C7.33943 20.7322 7.81181 19.9241 8.21876 19.0724C7.44371 18.7653 6.70138 18.3863 5.99997 17.9463C6.18605 17.8025 6.36807 17.6522 6.54392 17.4976C10.822 19.5843 15.4703 19.5843 19.6974 17.4976C19.8753 17.6522 20.0573 17.8025 20.2413 17.9463C19.5378 18.3885 18.7935 18.7675 18.0184 19.0746C18.4254 19.9241 18.8957 20.7344 19.4274 21.4946C21.5747 20.7976 23.7587 19.7324 26.0103 17.9768C26.5501 12.015 25.088 6.84615 22.1452 2.26321ZM8.8016 14.8141C7.51735 14.8141 6.46416 13.5637 6.46416 12.0412C6.46416 10.5186 7.49486 9.26615 8.8016 9.26615C10.1084 9.26615 11.1615 10.5164 11.139 12.0412C11.1411 13.5637 10.1084 14.8141 8.8016 14.8141ZM17.4397 14.8141C16.1554 14.8141 15.1022 13.5637 15.1022 12.0412C15.1022 10.5186 16.1329 9.26615 17.4397 9.26615C18.7464 9.26615 19.7996 10.5164 19.7771 12.0412C19.7771 13.5637 18.7464 14.8141 17.4397 14.8141Z" fill="white"/>
</svg>
