<svg width="16" height="16" viewBox="0 0 16 16" fill="none" xmlns="http://www.w3.org/2000/svg">
<path d="M13.8182 0H2.18182C1.60316 0 1.04821 0.229869 0.63904 0.63904C0.229869 1.04821 0 1.60316 0 2.18182V13.8182C0 14.3968 0.229869 14.9518 0.63904 15.361C1.04821 15.7701 1.60316 16 2.18182 16H13.8182C14.3968 16 14.9518 15.7701 15.361 15.361C15.7701 14.9518 16 14.3968 16 13.8182V2.18182C16 1.60316 15.7701 1.04821 15.361 0.63904C14.9518 0.229869 14.3968 0 13.8182 0ZM12.0655 6.74182L8.51636 10.2909C8.44875 10.3591 8.36832 10.4132 8.27969 10.4501C8.19107 10.487 8.09601 10.506 8 10.506C7.90399 10.506 7.80893 10.487 7.72031 10.4501C7.63168 10.4132 7.55125 10.3591 7.48364 10.2909L3.93455 6.74182C3.86674 6.67401 3.81295 6.59351 3.77625 6.50491C3.73955 6.41631 3.72066 6.32135 3.72066 6.22545C3.72066 6.12956 3.73955 6.0346 3.77625 5.946C3.81295 5.8574 3.86674 5.7769 3.93455 5.70909C4.00236 5.64128 4.08286 5.58749 4.17146 5.55079C4.26005 5.51409 4.35501 5.49521 4.45091 5.49521C4.54681 5.49521 4.64177 5.51409 4.73036 5.55079C4.81896 5.58749 4.89946 5.64128 4.96727 5.70909L8 8.72727L11.0327 5.68727C11.1005 5.61946 11.181 5.56567 11.2696 5.52898C11.3582 5.49228 11.4532 5.47339 11.5491 5.47339C11.645 5.47339 11.7399 5.49228 11.8285 5.52898C11.9171 5.56567 11.9976 5.61946 12.0655 5.68727C12.1333 5.75508 12.1871 5.83559 12.2238 5.92418C12.2605 6.01278 12.2793 6.10774 12.2793 6.20364C12.2793 6.29953 12.2605 6.39449 12.2238 6.48309C12.1871 6.57169 12.1333 6.65219 12.0655 6.72V6.74182Z" fill="#94989E"/>
<path d="M12.0655 6.74206L8.51641 10.2912C8.4488 10.3593 8.36836 10.4134 8.27974 10.4503C8.19111 10.4873 8.09605 10.5063 8.00004 10.5063C7.90403 10.5063 7.80898 10.4873 7.72035 10.4503C7.63173 10.4134 7.55129 10.3593 7.48368 10.2912L3.93459 6.74206C3.86678 6.67425 3.81299 6.59375 3.77629 6.50515C3.73959 6.41656 3.7207 6.3216 3.7207 6.2257C3.7207 6.1298 3.73959 6.03484 3.77629 5.94625C3.81299 5.85765 3.86678 5.77715 3.93459 5.70934C4.0024 5.64153 4.0829 5.58774 4.1715 5.55104C4.2601 5.51434 4.35505 5.49545 4.45095 5.49545C4.54685 5.49545 4.64181 5.51434 4.73041 5.55104C4.819 5.58774 4.89951 5.64153 4.96732 5.70934L8.00004 8.72752L11.0328 5.68752C11.1006 5.61971 11.1811 5.56592 11.2697 5.52922C11.3583 5.49252 11.4532 5.47363 11.5491 5.47363C11.645 5.47363 11.74 5.49252 11.8286 5.52922C11.9172 5.56592 11.9977 5.61971 12.0655 5.68752C12.1333 5.75533 12.1871 5.83583 12.2238 5.92443C12.2605 6.01303 12.2794 6.10798 12.2794 6.20388C12.2794 6.29978 12.2605 6.39474 12.2238 6.48334C12.1871 6.57193 12.1333 6.65244 12.0655 6.72025V6.74206Z" fill="#27282B"/>
</svg>
