<svg width="18" height="18" viewBox="0 0 18 18" fill="none" xmlns="http://www.w3.org/2000/svg">
<path d="M12.75 3.75H5.25V14.25H12.75V13.5C12.75 13.0858 13.0858 12.75 13.5 12.75C13.9142 12.75 14.25 13.0858 14.25 13.5V14.4C14.25 15.1456 13.6456 15.75 12.9 15.75H5.1C4.35442 15.75 3.75 15.1456 3.75 14.4V3.6C3.75 2.85442 4.35442 2.25 5.1 2.25H12.9C13.6456 2.25 14.25 2.85442 14.25 3.6V4.5C14.25 4.91421 13.9142 5.25 13.5 5.25C13.0858 5.25 12.75 4.91421 12.75 4.5V3.75ZM12.3326 9.76619L7.49829 9.75C7.08407 9.74905 6.74906 9.4125 6.75 8.99829C6.75095 8.58407 7.0875 8.24906 7.50171 8.25L12.3488 8.26622V8.25L11.4057 7.30685C11.0981 6.99931 11.0981 6.50069 11.4057 6.19315C11.7132 5.88562 12.2118 5.88562 12.5193 6.19315L14.7693 8.44315C15.0769 8.75069 15.0769 9.24931 14.7693 9.55685L12.5193 11.8068C12.2118 12.1144 11.7132 12.1144 11.4057 11.8068C11.0981 11.4993 11.0981 11.0007 11.4057 10.6932L12.3326 9.76619Z" fill="#D4D6D8"/>
</svg>
