<svg width="18" height="18" viewBox="0 0 18 18" fill="none" xmlns="http://www.w3.org/2000/svg">
<path d="M14.2502 15H3.75022C3.55131 15 3.36054 15.079 3.21989 15.2197C3.07924 15.3603 3.00022 15.5511 3.00022 15.75C3.00022 15.9489 3.07924 16.1397 3.21989 16.2803C3.36054 16.421 3.55131 16.5 3.75022 16.5H14.2502C14.4491 16.5 14.6399 16.421 14.7806 16.2803C14.9212 16.1397 15.0002 15.9489 15.0002 15.75C15.0002 15.5511 14.9212 15.3603 14.7806 15.2197C14.6399 15.079 14.4491 15 14.2502 15ZM3.75022 13.5H3.81772L6.94522 13.215C7.28782 13.1809 7.60825 13.0299 7.85272 12.7875L14.6027 6.03752C14.8647 5.76074 15.0063 5.3914 14.9965 5.01042C14.9866 4.62944 14.8262 4.2679 14.5502 4.00502L12.4952 1.95002C12.227 1.69809 11.8756 1.55353 11.5077 1.54385C11.1399 1.53417 10.7813 1.66004 10.5002 1.89752L3.75022 8.64751C3.5078 8.89199 3.35685 9.21242 3.32272 9.55501L3.00022 12.6825C2.99012 12.7924 3.00437 12.9031 3.04197 13.0068C3.07956 13.1105 3.13957 13.2047 3.21772 13.2825C3.2878 13.352 3.37091 13.407 3.46229 13.4443C3.55367 13.4817 3.65152 13.5006 3.75022 13.5ZM11.4527 3.00002L13.5002 5.04752L12.0002 6.51002L9.99022 4.50002L11.4527 3.00002ZM4.77772 9.68252L9.00022 5.49002L11.0252 7.51502L6.82522 11.715L4.57522 11.925L4.77772 9.68252Z" fill="#D4D6D8"/>
</svg>
