<svg width="20" height="20" viewBox="0 0 20 20" fill="none" xmlns="http://www.w3.org/2000/svg">
<path d="M16.5756 8.77C15.3788 7.24079 12.9321 4.68103 10 4.68103C7.06791 4.68103 4.62118 7.24079 3.42441 8.77C3.14942 9.12104 3 9.5541 3 10C3 10.4459 3.14942 10.879 3.42441 11.23C4.62118 12.7592 7.06791 15.319 10 15.319C12.9321 15.319 15.3788 12.7592 16.5756 11.23C16.8506 10.879 17 10.4459 17 10C17 9.5541 16.8506 9.12104 16.5756 8.77ZM10 11.3298C9.64733 11.3298 9.3091 11.1897 9.05973 10.9403C8.81035 10.6909 8.67025 10.3527 8.67025 10V9.94018C8.77645 9.98037 8.88914 10.0007 9.00269 10C9.26719 10 9.52086 9.89494 9.7079 9.70791C9.89493 9.52088 10 9.26721 10 9.0027C10.0006 8.88916 9.98036 8.77646 9.94016 8.67027H10C10.3527 8.67027 10.6909 8.81037 10.9403 9.05974C11.1896 9.30912 11.3297 9.64734 11.3297 10C11.3297 10.3527 11.1896 10.6909 10.9403 10.9403C10.6909 11.1897 10.3527 11.3298 10 11.3298Z" fill="#F37024"/>
<path d="M11.9946 9.99999C11.9946 10.529 11.7845 11.0363 11.4104 11.4104C11.0363 11.7845 10.529 11.9946 9.99999 11.9946C9.47098 11.9946 8.96364 11.7845 8.58958 11.4104C8.21552 11.0363 8.00537 10.529 8.00537 9.99999V9.90691C8.16443 9.96842 8.33349 9.99997 8.50403 9.99999C8.70073 10.0009 8.89565 9.96278 9.07755 9.88791C9.25944 9.81304 9.42471 9.70288 9.56379 9.56379C9.70288 9.42471 9.81304 9.25944 9.88791 9.07755C9.96278 8.89565 10.0009 8.70073 9.99999 8.50403C9.99997 8.33349 9.96842 8.16443 9.90691 8.00537H9.99999C10.529 8.00537 11.0363 8.21552 11.4104 8.58958C11.7845 8.96364 11.9946 9.47098 11.9946 9.99999Z" fill="#1A1817"/>
</svg>
