<svg width="24" height="24" viewBox="0 0 24 24" fill="none" xmlns="http://www.w3.org/2000/svg">
<path d="M20.25 21C20.1515 21.0001 20.0539 20.9808 19.9629 20.9431C19.8719 20.9053 19.7893 20.85 19.7198 20.7801L3.21982 4.28013C3.0851 4.13833 3.01111 3.94952 3.01361 3.75395C3.01612 3.55838 3.09492 3.37152 3.23322 3.23322C3.37152 3.09492 3.55838 3.01612 3.75395 3.01361C3.94952 3.01111 4.13833 3.0851 4.28013 3.21982L20.7801 19.7198C20.8849 19.8247 20.9563 19.9583 20.9852 20.1038C21.0141 20.2492 20.9993 20.3999 20.9426 20.5369C20.8858 20.6739 20.7897 20.791 20.6665 20.8735C20.5432 20.9559 20.3983 20.9999 20.25 21Z" fill="url(#paint0_linear)"/>
<path d="M11.625 14.8054L9.19736 12.3778C9.18345 12.364 9.16557 12.3549 9.14623 12.3518C9.12688 12.3487 9.10705 12.3517 9.08952 12.3604C9.07199 12.3692 9.05763 12.3832 9.04847 12.4005C9.03931 12.4178 9.03581 12.4376 9.03846 12.457C9.13646 13.0868 9.43219 13.6692 9.88291 14.1199C10.3336 14.5706 10.916 14.8663 11.5458 14.9643C11.5652 14.967 11.585 14.9635 11.6023 14.9543C11.6196 14.9452 11.6336 14.9308 11.6424 14.9133C11.6511 14.8957 11.6541 14.8759 11.651 14.8566C11.6479 14.8372 11.6388 14.8193 11.625 14.8054Z" fill="url(#paint1_linear)"/>
<path d="M12.375 9.19455L14.8064 11.625C14.8203 11.639 14.8382 11.6483 14.8577 11.6515C14.8771 11.6547 14.8971 11.6517 14.9147 11.6429C14.9324 11.6342 14.9468 11.6201 14.956 11.6026C14.9651 11.5852 14.9686 11.5653 14.9658 11.5458C14.868 10.9151 14.5721 10.3319 14.1208 9.88063C13.6695 9.42935 13.0863 9.1334 12.4556 9.03564C12.4361 9.03263 12.4161 9.03586 12.3985 9.04489C12.381 9.05391 12.3667 9.06825 12.3577 9.08588C12.3488 9.1035 12.3457 9.1235 12.3488 9.14301C12.3519 9.16253 12.361 9.18057 12.375 9.19455Z" fill="url(#paint2_linear)"/>
<path d="M23.0156 12.8137C23.1708 12.5702 23.2528 12.2872 23.252 11.9984C23.2512 11.7096 23.1675 11.427 23.0109 11.1844C21.7706 9.26624 20.1614 7.63687 18.3576 6.47203C16.3593 5.18203 14.1562 4.5 11.985 4.5C10.8403 4.50157 9.70347 4.6882 8.61841 5.05266C8.58804 5.06276 8.56076 5.08046 8.53917 5.10409C8.51758 5.12771 8.5024 5.15647 8.49507 5.18763C8.48774 5.21878 8.4885 5.25129 8.49729 5.28207C8.50608 5.31284 8.5226 5.34085 8.54528 5.36344L10.7597 7.57781C10.7827 7.60086 10.8113 7.61751 10.8427 7.62614C10.8741 7.63477 10.9072 7.63508 10.9387 7.62703C11.6893 7.44411 12.4743 7.45752 13.2182 7.66595C13.9622 7.87438 14.6399 8.27082 15.1862 8.81709C15.7324 9.36337 16.1289 10.0411 16.3373 10.785C16.5457 11.5289 16.5591 12.3139 16.3762 13.0645C16.3683 13.096 16.3686 13.129 16.3772 13.1603C16.3859 13.1916 16.4025 13.2202 16.4254 13.2431L19.6106 16.4306C19.6437 16.4638 19.6881 16.4834 19.735 16.4855C19.7818 16.4875 19.8278 16.472 19.8637 16.4419C21.0898 15.3968 22.1522 14.1739 23.0156 12.8137Z" fill="url(#paint3_linear)"/>
<path d="M12 16.4999C11.3188 16.5 10.6465 16.3454 10.0337 16.0477C9.42094 15.7501 8.88375 15.3173 8.46263 14.7818C8.04151 14.2464 7.74745 13.6223 7.60262 12.9567C7.45779 12.291 7.46598 11.6012 7.62656 10.9392C7.63452 10.9077 7.63417 10.8747 7.62555 10.8434C7.61692 10.8121 7.60031 10.7835 7.57734 10.7606L4.44422 7.62604C4.41099 7.59278 4.36649 7.57321 4.31952 7.57121C4.27255 7.56922 4.22655 7.58494 4.19062 7.61526C3.04734 8.59073 1.9875 9.7776 1.01859 11.1646C0.84899 11.4081 0.755584 11.6964 0.750243 11.993C0.744901 12.2897 0.827865 12.5812 0.988591 12.8306C2.22656 14.7679 3.81937 16.3996 5.59547 17.5485C7.59656 18.8437 9.74625 19.4999 11.985 19.4999C13.1412 19.4968 14.2899 19.3142 15.39 18.9585C15.4206 18.9488 15.4482 18.9312 15.4702 18.9077C15.4921 18.8842 15.5076 18.8554 15.5152 18.8241C15.5227 18.7929 15.5222 18.7602 15.5134 18.7292C15.5047 18.6982 15.4882 18.67 15.4655 18.6473L13.2403 16.4226C13.2174 16.3996 13.1888 16.383 13.1575 16.3744C13.1262 16.3658 13.0932 16.3654 13.0617 16.3734C12.7141 16.4576 12.3577 16.5001 12 16.4999Z" fill="url(#paint4_linear)"/>
<defs>
<linearGradient id="paint0_linear" x1="5.41169" y1="6.76072" x2="18.152" y2="18.002" gradientUnits="userSpaceOnUse">
<stop offset="0.442708" stop-color="#D51F40"/>
<stop offset="0.682292" stop-color="#E24134"/>
<stop offset="0.859375" stop-color="#E8542E"/>
<stop offset="1" stop-color="#F37024"/>
</linearGradient>
<linearGradient id="paint1_linear" x1="9.38621" y1="12.8953" x2="11.2382" y2="14.5294" gradientUnits="userSpaceOnUse">
<stop offset="0.442708" stop-color="#D51F40"/>
<stop offset="0.682292" stop-color="#E24134"/>
<stop offset="0.859375" stop-color="#E8542E"/>
<stop offset="1" stop-color="#F37024"/>
</linearGradient>
<linearGradient id="paint2_linear" x1="12.6968" y1="9.58" x2="14.5515" y2="11.217" gradientUnits="userSpaceOnUse">
<stop offset="0.442708" stop-color="#D51F40"/>
<stop offset="0.682292" stop-color="#E24134"/>
<stop offset="0.859375" stop-color="#E8542E"/>
<stop offset="1" stop-color="#F37024"/>
</linearGradient>
<linearGradient id="paint3_linear" x1="10.4583" y1="6.99701" x2="18.9852" y2="16.2635" gradientUnits="userSpaceOnUse">
<stop offset="0.442708" stop-color="#D51F40"/>
<stop offset="0.682292" stop-color="#E24134"/>
<stop offset="0.859375" stop-color="#E8542E"/>
<stop offset="1" stop-color="#F37024"/>
</linearGradient>
<linearGradient id="paint4_linear" x1="2.71939" y1="10.0562" x2="11.2021" y2="19.3238" gradientUnits="userSpaceOnUse">
<stop offset="0.442708" stop-color="#D51F40"/>
<stop offset="0.682292" stop-color="#E24134"/>
<stop offset="0.859375" stop-color="#E8542E"/>
<stop offset="1" stop-color="#F37024"/>
</linearGradient>
</defs>
</svg>
