<svg width="20" height="20" viewBox="0 0 20 20" fill="none" xmlns="http://www.w3.org/2000/svg">
<path d="M15.6309 11.7439C15.4816 11.7461 15.3367 11.6932 15.2239 11.5954C15.0928 11.4869 15.0097 11.3311 14.9928 11.1618C14.9759 10.9925 15.0264 10.8233 15.1335 10.6911L15.2046 10.5942C15.2582 10.5374 15.3079 10.477 15.3531 10.4133C15.4432 10.2993 15.4922 10.1582 15.4922 10.0129C15.4922 9.86753 15.4432 9.72644 15.3531 9.6124C14.5522 8.55956 12.3948 6.12447 9.99849 6.12447C9.4474 6.1338 8.90338 6.25006 8.39662 6.4668C8.2373 6.5319 8.05865 6.53104 7.89997 6.46442C7.74129 6.3978 7.61557 6.27087 7.55047 6.11155C7.48538 5.95224 7.48623 5.77359 7.55286 5.6149C7.61948 5.45622 7.74641 5.3305 7.90573 5.2654C8.5694 4.98922 9.27971 4.84234 9.99849 4.83264C12.8534 4.83264 15.2239 7.32587 16.3866 8.80501C16.6553 9.14658 16.8014 9.56857 16.8014 10.0032C16.8014 10.4378 16.6553 10.8598 16.3866 11.2014C16.3478 11.2595 16.2768 11.337 16.2057 11.421L16.1347 11.5049C16.0739 11.5799 15.9971 11.6402 15.9099 11.6816C15.8227 11.723 15.7274 11.7442 15.6309 11.7439ZM14.0032 13.5912C12.8836 14.5522 11.4727 15.1075 9.99849 15.1673C7.14355 15.1673 4.77304 12.674 3.6104 11.1949C3.34166 10.8533 3.19556 10.4313 3.19556 9.99672C3.19556 9.56211 3.34166 9.14012 3.6104 8.79855C4.03151 8.25977 4.48903 7.75046 4.97973 7.2742L6.06487 8.06221L7.58277 9.09567C7.47191 9.38428 7.41499 9.69079 7.41483 9.99995C7.41969 10.4917 7.56478 10.9718 7.83303 11.3839C8.10129 11.796 8.48158 12.123 8.92923 12.3265C9.37689 12.5299 9.87331 12.6015 10.3602 12.5326C10.8471 12.4637 11.3042 12.2573 11.6779 11.9377L12.8857 12.7838L14.0032 13.5912Z" fill="#4E5156"/>
<path d="M16.9872 14.8896C16.9279 14.9752 16.8487 15.0451 16.7565 15.0935C16.6643 15.1418 16.5617 15.1672 16.4576 15.1673C16.3259 15.167 16.1974 15.1265 16.0894 15.0511L14.0031 13.5913L11.6778 11.9378C11.3042 12.2574 10.847 12.4638 10.3602 12.5327C9.87327 12.6015 9.37685 12.53 8.92919 12.3265C8.48154 12.1231 8.10125 11.7961 7.83299 11.3839C7.56473 10.9718 7.41965 10.4917 7.41479 10C7.41495 9.69086 7.47187 9.38435 7.58273 9.09575L6.06483 8.06228L4.97969 7.27427L3.17113 5.98244C3.06723 5.87383 3.00445 5.73238 2.99362 5.58246C2.98279 5.43254 3.02459 5.28354 3.11181 5.16112C3.19903 5.03871 3.32622 4.95054 3.47145 4.91182C3.61669 4.87309 3.77089 4.88624 3.90747 4.94898L16.8258 13.9918C16.966 14.0896 17.0618 14.239 17.0921 14.4073C17.1224 14.5756 17.0846 14.749 16.9872 14.8896Z" fill="#B4B7BB"/>
</svg>
