<svg width="18" height="18" viewBox="0 0 18 18" fill="none" xmlns="http://www.w3.org/2000/svg">
<path d="M11.9167 6.5C11.5706 6.5 11.2323 6.60264 10.9445 6.79493C10.6567 6.98722 10.4324 7.26053 10.3 7.5803C10.1675 7.90007 10.1329 8.25194 10.2004 8.59141C10.2679 8.93087 10.4346 9.2427 10.6793 9.48744C10.9241 9.73218 11.2359 9.89885 11.5753 9.96637C11.9148 10.0339 12.2667 9.99924 12.5864 9.86679C12.9062 9.73434 13.1795 9.51003 13.3718 9.22225C13.5641 8.93446 13.6667 8.59612 13.6667 8.25C13.6662 7.78603 13.4817 7.3412 13.1536 7.01313C12.8255 6.68505 12.3807 6.50051 11.9167 6.5ZM11.9167 8.83333C11.8014 8.83333 11.6886 8.79912 11.5927 8.73502C11.4967 8.67093 11.422 8.57982 11.3778 8.47323C11.3337 8.36664 11.3221 8.24935 11.3446 8.1362C11.3671 8.02304 11.4227 7.9191 11.5043 7.83752C11.5859 7.75594 11.6898 7.70038 11.8029 7.67788C11.9161 7.65537 12.0334 7.66692 12.14 7.71107C12.2466 7.75522 12.3377 7.82999 12.4018 7.92592C12.4659 8.02185 12.5001 8.13463 12.5001 8.25C12.4999 8.40467 12.4384 8.55296 12.3291 8.66233C12.2197 8.77169 12.0714 8.83319 11.9167 8.83333Z" fill="#F37024"/>
<path d="M7.24992 7.66667H6.66659V7.08333C6.66659 6.92862 6.60513 6.78025 6.49573 6.67085C6.38633 6.56146 6.23796 6.5 6.08325 6.5C5.92854 6.5 5.78017 6.56146 5.67077 6.67085C5.56138 6.78025 5.49992 6.92862 5.49992 7.08333V7.66667H4.91659C4.76188 7.66667 4.6135 7.72812 4.50411 7.83752C4.39471 7.94692 4.33325 8.09529 4.33325 8.25C4.33325 8.40471 4.39471 8.55308 4.50411 8.66248C4.6135 8.77187 4.76188 8.83333 4.91659 8.83333H5.49992V9.41667C5.49992 9.57138 5.56138 9.71975 5.67077 9.82915C5.78017 9.93854 5.92854 10 6.08325 10C6.23796 10 6.38633 9.93854 6.49573 9.82915C6.60513 9.71975 6.66659 9.57138 6.66659 9.41667V8.83333H7.24992C7.40463 8.83333 7.553 8.77187 7.6624 8.66248C7.77179 8.55308 7.83325 8.40471 7.83325 8.25C7.83325 8.09529 7.77179 7.94692 7.6624 7.83752C7.553 7.72812 7.40463 7.66667 7.24992 7.66667Z" fill="#DBD2CF"/>
<path d="M11.3333 3.58325H6.66667C5.42899 3.58325 4.242 4.07492 3.36683 4.95009C2.49167 5.82526 2 7.01224 2 8.24992C2 9.4876 2.49167 10.6746 3.36683 11.5498C4.242 12.4249 5.42899 12.9166 6.66667 12.9166C7.37753 12.9183 8.07914 12.7555 8.71662 12.4409C8.80449 12.3966 8.90156 12.3734 9 12.3734C9.09844 12.3734 9.19551 12.3966 9.28338 12.4409C9.92086 12.7555 10.6225 12.9183 11.3333 12.9166C12.571 12.9166 13.758 12.4249 14.6332 11.5498C15.5083 10.6746 16 9.4876 16 8.24992C16 7.01224 15.5083 5.82526 14.6332 4.95009C13.758 4.07492 12.571 3.58325 11.3333 3.58325ZM11.3333 11.7499C10.8011 11.7515 10.2757 11.6297 9.79841 11.3941C9.5502 11.2712 9.27697 11.2072 9 11.2072C8.72303 11.2072 8.4498 11.2712 8.20159 11.3941C7.72431 11.6297 7.19893 11.7515 6.66667 11.7499C5.73841 11.7499 4.84817 11.3812 4.19179 10.7248C3.53542 10.0684 3.16667 9.17818 3.16667 8.24992C3.16667 7.32166 3.53542 6.43142 4.19179 5.77504C4.84817 5.11867 5.73841 4.74992 6.66667 4.74992H11.3333C12.2616 4.74992 13.1518 5.11867 13.8082 5.77504C14.4646 6.43142 14.8333 7.32166 14.8333 8.24992C14.8333 9.17818 14.4646 10.0684 13.8082 10.7248C13.1518 11.3812 12.2616 11.7499 11.3333 11.7499Z" fill="#DBD2CF"/>
</svg>
