<svg width="24" height="24" viewBox="0 0 24 24" fill="none" xmlns="http://www.w3.org/2000/svg">
<path d="M12.2606 4.74745C12.1908 4.68069 12.098 4.64343 12.0014 4.64343C11.9048 4.64343 11.8119 4.68069 11.7422 4.74745L3.11247 12.9914C3.07582 13.0264 3.04667 13.0686 3.02677 13.1152C3.00686 13.1618 2.99663 13.2121 2.99669 13.2628L2.99529 21C2.99529 21.3978 3.15332 21.7793 3.43462 22.0606C3.71593 22.3419 4.09746 22.5 4.49529 22.5H8.99997C9.19888 22.5 9.38965 22.4209 9.5303 22.2803C9.67095 22.1396 9.74997 21.9489 9.74997 21.75V15.375C9.74997 15.2755 9.78948 15.1801 9.85981 15.1098C9.93013 15.0395 10.0255 15 10.125 15H13.875C13.9744 15 14.0698 15.0395 14.1401 15.1098C14.2105 15.1801 14.25 15.2755 14.25 15.375V21.75C14.25 21.9489 14.329 22.1396 14.4696 22.2803C14.6103 22.4209 14.8011 22.5 15 22.5H19.5028C19.9006 22.5 20.2821 22.3419 20.5634 22.0606C20.8447 21.7793 21.0028 21.3978 21.0028 21V13.2628C21.0028 13.2121 20.9926 13.1618 20.9727 13.1152C20.9528 13.0686 20.9237 13.0264 20.887 12.9914L12.2606 4.74745Z" fill="white"/>
<path d="M23.0114 11.4445L19.5051 8.09016V3C19.5051 2.80109 19.4261 2.61032 19.2855 2.46967C19.1448 2.32902 18.9541 2.25 18.7551 2.25H16.5051C16.3062 2.25 16.1155 2.32902 15.9748 2.46967C15.8342 2.61032 15.7551 2.80109 15.7551 3V4.5L13.0401 1.90406C12.7861 1.64719 12.4083 1.5 12 1.5C11.5931 1.5 11.2162 1.64719 10.9622 1.90453L0.991862 11.4436C0.7003 11.7249 0.663737 12.1875 0.92905 12.4922C0.995674 12.5691 1.07725 12.6317 1.16881 12.676C1.26038 12.7204 1.36002 12.7457 1.46166 12.7503C1.56331 12.755 1.66484 12.7389 1.76007 12.7031C1.8553 12.6672 1.94225 12.6124 2.01561 12.5419L11.7422 3.2475C11.812 3.18074 11.9048 3.14348 12.0014 3.14348C12.098 3.14348 12.1908 3.18074 12.2606 3.2475L21.9881 12.5419C22.1314 12.6793 22.3233 12.7543 22.5218 12.7504C22.7203 12.7466 22.9092 12.6642 23.047 12.5213C23.3348 12.2231 23.3109 11.731 23.0114 11.4445Z" fill="white"/>
</svg>
