<svg width="18" height="18" viewBox="0 0 18 18" fill="none" xmlns="http://www.w3.org/2000/svg">
<path d="M16.1624 6.12753L9.41237 1.62753C9.28991 1.54689 9.1465 1.50391 8.99987 1.50391C8.85324 1.50391 8.70983 1.54689 8.58737 1.62753L1.83737 6.12753C1.74541 6.17686 1.66476 6.24484 1.60057 6.32712C1.53638 6.40939 1.49006 6.50416 1.46459 6.60536C1.43911 6.70656 1.43503 6.81196 1.45262 6.91482C1.4702 7.01769 1.50906 7.11575 1.5667 7.20274C1.62434 7.28973 1.69951 7.36373 1.78738 7.42001C1.87526 7.4763 1.97391 7.51362 2.07704 7.52961C2.18016 7.54559 2.28549 7.53987 2.38628 7.51282C2.48707 7.48578 2.5811 7.438 2.66237 7.37253L2.99987 7.15503V15.75C2.99987 15.9489 3.07889 16.1397 3.21954 16.2804C3.3602 16.421 3.55096 16.5 3.74987 16.5H14.2499C14.4488 16.5 14.6396 16.421 14.7802 16.2804C14.9209 16.1397 14.9999 15.9489 14.9999 15.75V7.15503L15.3374 7.37253C15.4582 7.45713 15.6024 7.50172 15.7499 7.50003C15.9101 7.4988 16.0657 7.44627 16.194 7.35016C16.3222 7.25404 16.4162 7.11939 16.4623 6.96593C16.5085 6.81247 16.5042 6.64827 16.4502 6.4974C16.3963 6.34652 16.2954 6.2169 16.1624 6.12753ZM13.4999 15H4.49987V6.15003L8.99987 3.15003L13.4999 6.15003V15ZM6.74987 12H11.2499C11.4488 12 11.6396 12.079 11.7802 12.2197C11.9209 12.3604 11.9999 12.5511 11.9999 12.75C11.9999 12.9489 11.9209 13.1397 11.7802 13.2804C11.6396 13.421 11.4488 13.5 11.2499 13.5H6.74987C6.55096 13.5 6.3602 13.421 6.21954 13.2804C6.07889 13.1397 5.99987 12.9489 5.99987 12.75C5.99987 12.5511 6.07889 12.3604 6.21954 12.2197C6.3602 12.079 6.55096 12 6.74987 12Z" fill="#D4D6D8"/>
</svg>
