<svg width="26" height="26" viewBox="0 0 26 26" fill="none" xmlns="http://www.w3.org/2000/svg">
<path d="M13.004 0.680847C7.85949 0.680847 6.35491 0.686154 6.06245 0.710416C5.0067 0.798173 4.34975 0.964401 3.63404 1.32074C3.08248 1.59463 2.64748 1.91211 2.21817 2.35715C1.43631 3.16877 0.962455 4.16727 0.79092 5.35418C0.707522 5.93039 0.683261 6.0479 0.678333 8.9911C0.676437 9.97217 0.678333 11.2633 0.678333 12.9952C0.678333 18.1355 0.684019 19.6386 0.708659 19.9305C0.793953 20.9578 0.955063 21.6041 1.29624 22.3111C1.94826 23.6645 3.19355 24.6804 4.6606 25.0595C5.16857 25.1903 5.72961 25.2623 6.44987 25.2964C6.75503 25.3097 9.86541 25.3192 12.9777 25.3192C16.0899 25.3192 19.2022 25.3154 19.4998 25.3002C20.3338 25.261 20.8181 25.196 21.3535 25.0576C22.0809 24.871 22.7589 24.528 23.34 24.0523C23.9211 23.5766 24.3913 22.9798 24.7179 22.3035C25.0524 21.6136 25.2221 20.9426 25.2988 19.969C25.3155 19.7567 25.3225 16.372 25.3225 12.9919C25.3225 9.61128 25.3149 6.2329 25.2983 6.02061C25.2205 5.0312 25.0509 4.36591 24.7056 3.66271C24.4222 3.08708 24.1076 2.6572 23.6508 2.21765C22.8357 1.43901 21.8387 0.965159 20.6505 0.793814C20.0749 0.710605 19.9602 0.685965 17.0147 0.680847H13.004Z" fill="url(#paint0_radial_1768_4921)"/>
<path d="M13.004 0.680847C7.85949 0.680847 6.35491 0.686154 6.06245 0.710416C5.0067 0.798173 4.34975 0.964401 3.63404 1.32074C3.08248 1.59463 2.64748 1.91211 2.21817 2.35715C1.43631 3.16877 0.962455 4.16727 0.79092 5.35418C0.707522 5.93039 0.683261 6.0479 0.678333 8.9911C0.676437 9.97217 0.678333 11.2633 0.678333 12.9952C0.678333 18.1355 0.684019 19.6386 0.708659 19.9305C0.793953 20.9578 0.955063 21.6041 1.29624 22.3111C1.94826 23.6645 3.19355 24.6804 4.6606 25.0595C5.16857 25.1903 5.72961 25.2623 6.44987 25.2964C6.75503 25.3097 9.86541 25.3192 12.9777 25.3192C16.0899 25.3192 19.2022 25.3154 19.4998 25.3002C20.3338 25.261 20.8181 25.196 21.3535 25.0576C22.0809 24.871 22.7589 24.528 23.34 24.0523C23.9211 23.5766 24.3913 22.9798 24.7179 22.3035C25.0524 21.6136 25.2221 20.9426 25.2988 19.969C25.3155 19.7567 25.3225 16.372 25.3225 12.9919C25.3225 9.61128 25.3149 6.2329 25.2983 6.02061C25.2205 5.0312 25.0509 4.36591 24.7056 3.66271C24.4222 3.08708 24.1076 2.6572 23.6508 2.21765C22.8357 1.43901 21.8387 0.965159 20.6505 0.793814C20.0749 0.710605 19.9602 0.685965 17.0147 0.680847H13.004Z" fill="#4E5156"/>
<path d="M12.9982 3.90253C10.5274 3.90253 10.2173 3.91333 9.24681 3.95749C8.27825 4.00185 7.61714 4.15519 7.03865 4.38017C6.44027 4.61255 5.93268 4.9234 5.42698 5.42928C4.92091 5.93498 4.61006 6.44257 4.37692 7.04076C4.15137 7.61944 3.99784 8.28075 3.95425 9.24892C3.91103 10.2194 3.89966 10.5297 3.89966 13.0005C3.89966 15.4714 3.91065 15.7805 3.95463 16.751C3.99917 17.7195 4.15251 18.3807 4.3773 18.9591C4.60987 19.5575 4.92072 20.0651 5.4266 20.5708C5.93211 21.0769 6.4397 21.3885 7.03771 21.6209C7.61657 21.8458 8.27788 21.9992 9.24624 22.0435C10.2167 22.0877 10.5266 22.0985 12.9973 22.0985C15.4683 22.0985 15.7775 22.0877 16.7479 22.0435C17.7165 21.9992 18.3784 21.8458 18.9572 21.6209C19.5554 21.3885 20.0622 21.0769 20.5677 20.5708C21.0738 20.0651 21.3847 19.5575 21.6178 18.9593C21.8415 18.3807 21.995 17.7193 22.0405 16.7512C22.0841 15.7807 22.0954 15.4714 22.0954 13.0005C22.0954 10.5297 22.0841 10.2196 22.0405 9.24911C21.995 8.28056 21.8415 7.61943 21.6178 7.04095C21.3847 6.44257 21.0738 5.93498 20.5677 5.42928C20.0617 4.92321 19.5556 4.61236 18.9566 4.38017C18.3766 4.15519 17.7151 4.00185 16.7466 3.95749C15.7761 3.91333 15.4672 3.90253 12.9956 3.90253H12.9982ZM12.1821 5.54206C12.4243 5.54168 12.6946 5.54206 12.9982 5.54206C15.4274 5.54206 15.7153 5.55078 16.6746 5.59437C17.5616 5.63494 18.0431 5.78316 18.3638 5.90769C18.7883 6.07259 19.091 6.26971 19.4093 6.58814C19.7277 6.90657 19.9248 7.20984 20.0901 7.63441C20.2146 7.95473 20.363 8.43617 20.4034 9.32322C20.447 10.2823 20.4565 10.5704 20.4565 12.9984C20.4565 15.4265 20.447 15.7146 20.4034 16.6736C20.3629 17.5607 20.2146 18.0421 20.0901 18.3625C19.9252 18.787 19.7277 19.0893 19.4093 19.4076C19.0908 19.726 18.7885 19.9231 18.3638 20.088C18.0434 20.2131 17.5616 20.361 16.6746 20.4015C15.7155 20.4451 15.4274 20.4546 12.9982 20.4546C10.5689 20.4546 10.281 20.4451 9.32187 20.4015C8.43482 20.3606 7.95338 20.2124 7.63249 20.0879C7.20791 19.923 6.90465 19.7258 6.58622 19.4074C6.26779 19.089 6.07067 18.7865 5.90539 18.3617C5.78086 18.0414 5.63245 17.5599 5.59207 16.6729C5.54848 15.7138 5.53976 15.4257 5.53976 12.9962C5.53976 10.5666 5.54848 10.28 5.59207 9.32095C5.63264 8.4339 5.78086 7.95246 5.90539 7.63176C6.07029 7.20718 6.26779 6.90392 6.58622 6.58549C6.90465 6.26706 7.20791 6.06993 7.63249 5.90465C7.95319 5.77956 8.43482 5.63171 9.32187 5.59096C10.1612 5.55305 10.4864 5.54168 12.1821 5.53979V5.54206ZM17.8546 7.05271C17.6387 7.05271 17.4276 7.11675 17.2481 7.23673C17.0685 7.35671 16.9286 7.52724 16.846 7.72675C16.7633 7.92627 16.7417 8.14581 16.7839 8.3576C16.8261 8.56939 16.9301 8.76392 17.0828 8.91659C17.2355 9.06926 17.4301 9.17321 17.6419 9.21529C17.8537 9.25738 18.0732 9.2357 18.2727 9.15301C18.4722 9.07032 18.6427 8.93033 18.7626 8.75074C18.8825 8.57115 18.9465 8.36003 18.9464 8.14409C18.9464 7.54134 18.4574 7.05233 17.8546 7.05233V7.05271ZM12.9982 8.32832C10.418 8.32832 8.32602 10.4203 8.32602 13.0005C8.32602 15.5807 10.418 17.6718 12.9982 17.6718C15.5784 17.6718 17.6698 15.5807 17.6698 13.0005C17.6698 10.4203 15.5783 8.32832 12.998 8.32832H12.9982ZM12.9982 9.96785C14.673 9.96785 16.0309 11.3255 16.0309 13.0005C16.0309 14.6753 14.673 16.0332 12.9982 16.0332C11.3232 16.0332 9.96555 14.6753 9.96555 13.0005C9.96555 11.3255 11.3232 9.96785 12.9982 9.96785Z" fill="white"/>
<defs>
<radialGradient id="paint0_radial_1768_4921" cx="0" cy="0" r="1" gradientUnits="userSpaceOnUse" gradientTransform="translate(7.22386 27.2168) rotate(-90) scale(24.4184 22.7172)">
<stop stop-color="#FFDD55"/>
<stop offset="0.1" stop-color="#FFDD55"/>
<stop offset="0.5" stop-color="#FF543E"/>
<stop offset="1" stop-color="#C837AB"/>
</radialGradient>
</defs>
</svg>
