<svg width="26" height="26" viewBox="0 0 26 26" fill="none" xmlns="http://www.w3.org/2000/svg">
<path d="M13 0.525574C6.1075 0.525574 0.5 6.17408 0.5 13.117C0.5 20.0599 6.1075 25.7084 13 25.7084C19.8925 25.7084 25.5 20.0599 25.5 13.117C25.5 6.17408 19.8925 0.525574 13 0.525574ZM13 5.68805C13.3214 5.68805 13.6356 5.78405 13.9028 5.96392C14.17 6.14378 14.3783 6.39943 14.5013 6.69853C14.6243 6.99763 14.6565 7.32675 14.5938 7.64427C14.5311 7.9618 14.3763 8.25346 14.149 8.48239C13.9218 8.71131 13.6322 8.8672 13.317 8.93036C13.0018 8.99352 12.6751 8.96111 12.3781 8.83722C12.0812 8.71333 11.8274 8.50352 11.6489 8.23434C11.4703 7.96515 11.375 7.64868 11.375 7.32493C11.375 6.89081 11.5462 6.47446 11.851 6.16748C12.1557 5.86051 12.569 5.68805 13 5.68805ZM16 19.9163H10.5C10.2348 19.9163 9.98043 19.8102 9.79289 19.6213C9.60536 19.4324 9.5 19.1762 9.5 18.909C9.5 18.6419 9.60536 18.3857 9.79289 18.1968C9.98043 18.0078 10.2348 17.9017 10.5 17.9017H12.25V12.3615H11.25C10.9848 12.3615 10.7304 12.2554 10.5429 12.0665C10.3554 11.8776 10.25 11.6213 10.25 11.3542C10.25 11.087 10.3554 10.8308 10.5429 10.6419C10.7304 10.453 10.9848 10.3469 11.25 10.3469H13.25C13.5152 10.3469 13.7696 10.453 13.9571 10.6419C14.1446 10.8308 14.25 11.087 14.25 11.3542V17.9017H16C16.2652 17.9017 16.5196 18.0078 16.7071 18.1968C16.8946 18.3857 17 18.6419 17 18.909C17 19.1762 16.8946 19.4324 16.7071 19.6213C16.5196 19.8102 16.2652 19.9163 16 19.9163Z" fill="#F37024"/>
</svg>
