<svg width="25" height="25" viewBox="0 0 25 25" fill="none" xmlns="http://www.w3.org/2000/svg">
<path d="M20 3.5H5C4.20462 3.50087 3.44206 3.81722 2.87964 4.37964C2.31722 4.94206 2.00087 5.70462 2 6.5V18.5C2.00087 19.2954 2.31722 20.0579 2.87964 20.6204C3.44206 21.1828 4.20462 21.4991 5 21.5H20C20.7954 21.4991 21.5579 21.1828 22.1204 20.6204C22.6828 20.0579 22.9991 19.2954 23 18.5V6.5C22.9991 5.70462 22.6828 4.94206 22.1204 4.37964C21.5579 3.81722 20.7954 3.50087 20 3.5ZM16.25 6.5C16.695 6.5 17.13 6.63196 17.5 6.87919C17.87 7.12643 18.1584 7.47783 18.3287 7.88896C18.499 8.3001 18.5436 8.7525 18.4568 9.18895C18.37 9.62541 18.1557 10.0263 17.841 10.341C17.5263 10.6557 17.1254 10.87 16.689 10.9568C16.2525 11.0436 15.8001 10.999 15.389 10.8287C14.9778 10.6584 14.6264 10.37 14.3792 10C14.132 9.63002 14 9.19501 14 8.75C14.0006 8.15345 14.2379 7.58152 14.6597 7.15969C15.0815 6.73787 15.6535 6.50062 16.25 6.5ZM5 20C4.60218 20 4.22064 19.842 3.93934 19.5607C3.65804 19.2794 3.5 18.8978 3.5 18.5V15.3298L7.94562 11.3783C8.37455 10.9979 8.93238 10.7953 9.50545 10.8119C10.0785 10.8284 10.6237 11.0628 11.03 11.4673L14.0745 14.5053L8.57984 20H5ZM21.5 18.5C21.5 18.8978 21.342 19.2794 21.0607 19.5607C20.7794 19.842 20.3978 20 20 20H10.7014L16.393 14.3084C16.7959 13.9657 17.3073 13.777 17.8363 13.7756C18.3653 13.7742 18.8776 13.9603 19.2823 14.3009L21.5 16.1488V18.5Z" fill="white"/>
</svg>
