<svg width="24" height="23" viewBox="0 0 24 23" fill="none" xmlns="http://www.w3.org/2000/svg">
<g filter="url(#filter0_d_1718_8040)">
<path d="M20.6629 11.8697C20.6957 11.9224 20.6857 11.9651 20.6922 12.0342C20.6415 12.8337 18.7861 14.6107 16.2038 16.2186C13.6215 17.8266 11.1983 18.7504 10.4684 18.4004C10.4257 18.3905 10.3665 18.3542 10.3337 18.3015C9.66993 17.7641 9.78673 16.7772 9.78673 16.7772C9.78673 16.7772 10.7378 16.6603 11.1361 16.5952C12.8796 14.8147 16.4105 12.6161 18.8039 11.8205C19.0217 11.4655 19.5626 10.6899 19.5626 10.6899C19.5626 10.6899 20.4898 11.0632 20.6629 11.8697Z" fill="#FCB116"/>
<path opacity="0.1" d="M18.7687 11.8789C18.5514 11.9411 18.3506 12.0296 18.107 12.1081C18.3207 12.1579 18.5181 12.1812 18.722 12.2737C18.985 12.4024 19.2281 12.6167 19.3658 12.8966C19.4051 13.0184 19.4608 13.1666 19.4737 13.3048C19.4867 13.443 19.4996 13.5812 19.4961 13.6931C20.2245 12.9836 20.6565 12.3855 20.6769 12.0071C20.6704 11.938 20.6803 11.8953 20.6475 11.8426C20.4581 11.0098 19.5209 10.6792 19.5209 10.6792C19.5209 10.6792 19.0292 11.5339 18.7687 11.8789Z" fill="#231F20"/>
<path opacity="0.15" d="M11.1264 16.6373C11.278 16.4698 11.4461 16.3286 11.624 16.1446C11.5743 16.3584 11.5082 16.5458 11.5013 16.7695C11.5008 17.0624 11.5858 17.3751 11.7762 17.6222C11.8682 17.7112 11.9766 17.8265 12.0949 17.8991C12.2133 17.9717 12.3316 18.0443 12.4335 18.0905C11.4755 18.4311 10.7481 18.5549 10.3996 18.4063C10.3404 18.37 10.2976 18.3601 10.2648 18.3074C9.60108 17.7699 9.71789 16.783 9.71789 16.783C9.71789 16.783 10.7282 16.7025 11.1264 16.6373Z" fill="white"/>
<path d="M19.7052 10.8575C20.099 11.4899 18.1973 13.3688 15.457 15.0752C12.7166 16.7816 10.1914 17.6593 9.79762 17.0269C8.88873 15.5085 18.77 9.35557 19.7052 10.8575Z" fill="#FDC134"/>
<path d="M17.384 5.72075C18.3028 7.19634 19.0302 9.01053 19.4648 10.8242C19.8158 11.4467 17.9768 13.25 15.3418 14.8908C12.7068 16.5316 10.2772 17.3863 9.87343 16.7967C8.43753 15.6065 7.1304 14.1532 6.21156 12.6776C5.94904 12.2561 5.72927 11.8444 5.50951 11.4327L6.53716 10.7928C7.69961 12.1899 9.16929 12.8471 10.0652 12.2892C11.1192 11.6329 10.9879 9.48411 9.75728 7.50786L9.60961 7.27071L11.0062 6.4011C11.8887 7.93586 13.9386 9.87728 15.3088 9.02407C16.2047 8.46621 16.237 6.87374 15.5225 5.19778L16.5501 4.55787C16.8326 4.89396 17.1214 5.29915 17.384 5.72075Z" fill="#FCB116"/>
<path d="M10.3298 6.78546L9.6184 7.22847L9.76607 7.46562C10.9966 9.44187 11.128 11.5907 10.074 12.247C9.17808 12.8049 7.73475 12.1312 6.54594 10.7506L5.51829 11.3905C5.71171 11.8186 5.97424 12.2402 6.22035 12.6354C7.13919 14.111 8.44632 15.5642 9.88222 16.7544C10.2859 17.3441 12.7156 16.4893 15.3506 14.8486L15.377 14.8321L10.3562 6.76906L10.3298 6.78546Z" fill="#FDE74A"/>
<path d="M9.89721 7.67647L10.0285 7.88727C11.2591 9.86352 11.3904 12.0123 10.3364 12.6686C9.44048 13.2265 7.99715 12.5529 6.80834 11.1722L5.7807 11.8121C5.96765 12.1711 6.1546 12.5301 6.35149 12.8463L6.22023 12.6355C5.9577 12.2139 5.73794 11.8022 5.51817 11.3905L6.54582 10.7506C7.70827 12.1477 9.17796 12.8049 10.0739 12.247C11.1015 11.6071 11.0095 9.58014 9.89721 7.67647Z" fill="#F99B1F"/>
<path d="M9.76632 7.46566L9.61865 7.22852L11.0152 6.3589L11.2777 6.7805L9.88118 7.65011L9.76632 7.46566Z" fill="#F99B1F"/>
<path d="M17.3827 5.72149L17.514 5.93229C17.3007 5.58974 17.061 5.2636 16.8378 4.96381L15.8101 5.60371C16.551 7.26327 16.4924 8.87215 15.5965 9.43001C14.1999 10.2996 12.1599 8.31545 11.2938 6.80704C13.9688 10.8092 17.439 9.45282 15.5476 5.18212L16.5489 4.55862C16.8313 4.8947 17.1202 5.29989 17.3827 5.72149Z" fill="#F99B1F"/>
<path opacity="0.1" d="M16.5331 4.53146L15.5055 5.17136C16.1742 6.65642 16.1818 8.07785 15.5752 8.74807L17.6506 13.1968C18.9323 12.1427 19.6676 11.2095 19.4478 10.7978C19.0132 8.98412 18.2858 7.16993 17.3669 5.69434C17.1208 5.29909 16.832 4.89389 16.5331 4.53146Z" fill="#231F20"/>
<path opacity="0.15" d="M5.51899 11.3902L6.54664 10.7503C7.5843 12.0057 8.8566 12.6395 9.72566 12.3909L12.8023 16.2161C11.2909 16.9013 10.129 17.1494 9.85656 16.7706C8.42067 15.5804 7.11354 14.1271 6.1947 12.6516C5.94858 12.2563 5.71241 11.8183 5.51899 11.3902Z" fill="white"/>
<path d="M16.657 5.84368C17.2973 5.44496 17.4932 4.60266 17.0945 3.96234C16.6957 3.32202 15.8534 3.12616 15.2131 3.52488C14.5728 3.9236 14.3769 4.76591 14.7757 5.40623C15.1744 6.04654 16.0167 6.2424 16.657 5.84368Z" fill="#FDC134"/>
<path opacity="0.2" d="M16.4314 5.65498C16.9844 5.31063 17.1535 4.58319 16.8092 4.03019C16.4649 3.47718 15.7374 3.30804 15.1844 3.65238C14.6314 3.99673 14.4623 4.72418 14.8066 5.27718C15.1509 5.83018 15.8784 5.99933 16.4314 5.65498Z" fill="white"/>
<path opacity="0.2" d="M16.2195 5.4946C16.6852 5.20463 16.8276 4.59204 16.5376 4.12635C16.2476 3.66067 15.6351 3.51823 15.1694 3.8082C14.7037 4.09818 14.5612 4.71077 14.8512 5.17645C15.1412 5.64214 15.7538 5.78458 16.2195 5.4946Z" fill="white"/>
<path opacity="0.2" d="M15.9277 5.20093C16.2624 4.99251 16.3648 4.55221 16.1564 4.2175C15.948 3.88279 15.5077 3.78041 15.1729 3.98883C14.8382 4.19725 14.7359 4.63755 14.9443 4.97226C15.1527 5.30697 15.593 5.40935 15.9277 5.20093Z" fill="white"/>
<path d="M6.59059 12.1122C7.23091 11.7135 7.42676 10.8712 7.02804 10.2309C6.62933 9.59058 5.78702 9.39472 5.1467 9.79344C4.50639 10.1922 4.31053 11.0345 4.70925 11.6748C5.10797 12.3151 5.95027 12.511 6.59059 12.1122Z" fill="#FDC134"/>
<path opacity="0.2" d="M6.38989 11.9084C6.94289 11.5641 7.11204 10.8366 6.76769 10.2836C6.42335 9.7306 5.6959 9.56145 5.1429 9.9058C4.5899 10.2501 4.42075 10.9776 4.7651 11.5306C5.10944 12.0836 5.83689 12.2527 6.38989 11.9084Z" fill="white"/>
<path opacity="0.2" d="M6.17992 11.7463C6.6456 11.4563 6.78805 10.8437 6.49807 10.3781C6.20809 9.91238 5.59551 9.76994 5.12982 10.0599C4.66413 10.3499 4.52169 10.9625 4.81167 11.4282C5.10165 11.8938 5.71423 12.0363 6.17992 11.7463Z" fill="white"/>
<path opacity="0.2" d="M5.88669 11.4536C6.2214 11.2452 6.32378 10.8049 6.11536 10.4702C5.90694 10.1355 5.46664 10.0331 5.13193 10.2415C4.79722 10.4499 4.69484 10.8902 4.90326 11.2249C5.11168 11.5597 5.55197 11.662 5.88669 11.4536Z" fill="white"/>
<path d="M11.1582 8.17111C12.0022 7.64552 12.2604 6.53521 11.7348 5.69116C11.2092 4.8471 10.0989 4.58893 9.25486 5.11451C8.41081 5.64009 8.15263 6.7504 8.67821 7.59446C9.2038 8.43852 10.3141 8.69669 11.1582 8.17111Z" fill="#FDC134"/>
<path opacity="0.2" d="M10.8488 7.85156C11.5619 7.40753 11.78 6.46951 11.336 5.75643C10.892 5.04335 9.95394 4.82523 9.24085 5.26926C8.52777 5.71329 8.30966 6.65131 8.75369 7.36439C9.19772 8.07747 10.1357 8.29558 10.8488 7.85156Z" fill="white"/>
<path opacity="0.2" d="M10.5963 7.67954C11.2075 7.29895 11.3944 6.49493 11.0139 5.88372C10.6333 5.27251 9.82924 5.08555 9.21803 5.46615C8.60681 5.84674 8.41986 6.65076 8.80046 7.26197C9.18105 7.87318 9.98507 8.06014 10.5963 7.67954Z" fill="white"/>
<path opacity="0.2" d="M10.2115 7.29799C10.6481 7.02614 10.7816 6.45184 10.5098 6.01526C10.2379 5.57868 9.6636 5.44514 9.22702 5.717C8.79044 5.98885 8.6569 6.56315 8.92876 6.99973C9.20061 7.43631 9.77491 7.56985 10.2115 7.29799Z" fill="white"/>
<path opacity="0.2" d="M15.9284 16.2438C16.5397 15.8632 16.8956 15.3305 16.7234 15.054C16.5512 14.7775 15.9162 14.8619 15.3049 15.2425C14.6937 15.6231 14.3378 16.1558 14.51 16.4323C14.6822 16.7088 15.3172 16.6244 15.9284 16.2438Z" fill="white"/>
<path opacity="0.2" d="M15.8796 16.1652C16.3452 15.8752 16.6346 15.4986 16.5259 15.324C16.4171 15.1493 15.9515 15.2428 15.4858 15.5328C15.0201 15.8228 14.7307 16.1994 14.8395 16.3741C14.9482 16.5487 15.4139 16.4552 15.8796 16.1652Z" fill="white"/>
</g>
<defs>
<filter id="filter0_d_1718_8040" x="0.298178" y="3.1141" width="20.5985" height="19.5643" filterUnits="userSpaceOnUse" color-interpolation-filters="sRGB">
<feFlood flood-opacity="0" result="BackgroundImageFix"/>
<feColorMatrix in="SourceAlpha" type="matrix" values="0 0 0 0 0 0 0 0 0 0 0 0 0 0 0 0 0 0 127 0" result="hardAlpha"/>
<feOffset dx="-2" dy="2"/>
<feGaussianBlur stdDeviation="1.10213"/>
<feComposite in2="hardAlpha" operator="out"/>
<feColorMatrix type="matrix" values="0 0 0 0 0 0 0 0 0 0 0 0 0 0 0 0 0 0 0.12 0"/>
<feBlend mode="normal" in2="BackgroundImageFix" result="effect1_dropShadow_1718_8040"/>
<feBlend mode="normal" in="SourceGraphic" in2="effect1_dropShadow_1718_8040" result="shape"/>
</filter>
</defs>
</svg>
