<svg width="24" height="24" viewBox="0 0 24 24" fill="none" xmlns="http://www.w3.org/2000/svg">
<path d="M12 14.25C13.2426 14.25 14.25 13.2426 14.25 12C14.25 10.7574 13.2426 9.75 12 9.75C10.7574 9.75 9.75 10.7574 9.75 12C9.75 13.2426 10.7574 14.25 12 14.25Z" fill="url(#paint0_linear)"/>
<path d="M12 21.75C13.2426 21.75 14.25 20.7426 14.25 19.5C14.25 18.2574 13.2426 17.25 12 17.25C10.7574 17.25 9.75 18.2574 9.75 19.5C9.75 20.7426 10.7574 21.75 12 21.75Z" fill="url(#paint1_linear)"/>
<path d="M12 6.75C13.2426 6.75 14.25 5.74264 14.25 4.5C14.25 3.25736 13.2426 2.25 12 2.25C10.7574 2.25 9.75 3.25736 9.75 4.5C9.75 5.74264 10.7574 6.75 12 6.75Z" fill="url(#paint2_linear)"/>
<defs>
<linearGradient id="paint0_linear" x1="10.35" y1="10.6875" x2="13.5375" y2="13.5" gradientUnits="userSpaceOnUse">
<stop offset="0.442708" stop-color="#D51F40"/>
<stop offset="0.682292" stop-color="#E24134"/>
<stop offset="0.859375" stop-color="#E8542E"/>
<stop offset="1" stop-color="#F37024"/>
</linearGradient>
<linearGradient id="paint1_linear" x1="10.35" y1="18.1875" x2="13.5375" y2="21" gradientUnits="userSpaceOnUse">
<stop offset="0.442708" stop-color="#D51F40"/>
<stop offset="0.682292" stop-color="#E24134"/>
<stop offset="0.859375" stop-color="#E8542E"/>
<stop offset="1" stop-color="#F37024"/>
</linearGradient>
<linearGradient id="paint2_linear" x1="10.35" y1="3.1875" x2="13.5375" y2="6" gradientUnits="userSpaceOnUse">
<stop offset="0.442708" stop-color="#D51F40"/>
<stop offset="0.682292" stop-color="#E24134"/>
<stop offset="0.859375" stop-color="#E8542E"/>
<stop offset="1" stop-color="#F37024"/>
</linearGradient>
</defs>
</svg>
