<svg width="24" height="24" viewBox="0 0 24 24" fill="none" xmlns="http://www.w3.org/2000/svg">
<path d="M12 22.5C12.6773 22.4994 13.3419 22.3156 13.9232 21.9679C14.5046 21.6202 14.9809 21.1217 15.3019 20.5252C15.317 20.4966 15.3244 20.4646 15.3235 20.4322C15.3226 20.3999 15.3134 20.3684 15.2967 20.3407C15.28 20.313 15.2564 20.2901 15.2282 20.2742C15.2001 20.2583 15.1683 20.25 15.1359 20.25H8.86498C8.8326 20.2499 8.80074 20.2582 8.77251 20.274C8.74428 20.2899 8.72063 20.3128 8.70388 20.3405C8.68712 20.3682 8.67783 20.3997 8.6769 20.4321C8.67597 20.4645 8.68343 20.4965 8.69857 20.5252C9.01945 21.1216 9.49575 21.6201 10.077 21.9678C10.6582 22.3155 11.3227 22.4994 12 22.5Z" fill="white"/>
<path fill-rule="evenodd" clip-rule="evenodd" d="M20.5082 15.8527C20.548 15.9012 20.5882 15.95 20.6288 15.9989C20.8298 16.2417 20.957 16.537 20.9953 16.8499C21.0336 17.1628 20.9814 17.4801 20.8449 17.7642C20.5547 18.3708 19.9425 18.7486 19.2422 18.7486H4.76299C4.05939 18.7486 3.44299 18.3703 3.15377 17.7609C3.01784 17.4769 2.96613 17.1598 3.00476 16.8473C3.04339 16.5348 3.17074 16.2399 3.37174 15.9975C3.43993 15.9137 3.50705 15.8328 3.57308 15.7531C3.5824 15.7419 3.59169 15.7307 3.60096 15.7195C4.63314 14.4736 5.25611 13.7208 5.25611 10.1883C5.25611 6.98203 6.54049 4.89469 9.1833 3.80672C9.19756 3.79875 9.2104 3.78845 9.22127 3.77625C9.62861 2.41359 10.7428 1.5 12 1.5C12.9804 1.5 13.8741 2.05559 14.4134 2.94714C12.9568 3.93652 12 5.60652 12 7.5C12 10.5376 14.4624 13 17.5 13C17.993 13 18.4708 12.9351 18.9254 12.8135C19.1805 14.2464 19.6943 14.8679 20.3979 15.719L20.3995 15.7209C20.4355 15.7642 20.4717 15.8083 20.5082 15.8527Z" fill="white"/>
<g filter="url(#filter0_d)">
<circle cx="17.5" cy="7.5" r="4.5" fill="url(#paint0_linear)"/>
</g>
<defs>
<filter id="filter0_d" x="7" y="1" width="17" height="17" filterUnits="userSpaceOnUse" color-interpolation-filters="sRGB">
<feFlood flood-opacity="0" result="BackgroundImageFix"/>
<feColorMatrix in="SourceAlpha" type="matrix" values="0 0 0 0 0 0 0 0 0 0 0 0 0 0 0 0 0 0 127 0" result="hardAlpha"/>
<feOffset dx="-2" dy="2"/>
<feGaussianBlur stdDeviation="2"/>
<feColorMatrix type="matrix" values="0 0 0 0 0.835294 0 0 0 0 0.121569 0 0 0 0 0.25098 0 0 0 0.8 0"/>
<feBlend mode="normal" in2="BackgroundImageFix" result="effect1_dropShadow"/>
<feBlend mode="normal" in="SourceGraphic" in2="effect1_dropShadow" result="shape"/>
</filter>
<linearGradient id="paint0_linear" x1="14.2" y1="4.875" x2="20.575" y2="10.5" gradientUnits="userSpaceOnUse">
<stop offset="0.442708" stop-color="#D51F40"/>
<stop offset="0.682292" stop-color="#E24134"/>
<stop offset="0.859375" stop-color="#E8542E"/>
<stop offset="1" stop-color="#F37024"/>
</linearGradient>
</defs>
</svg>
