<svg width="25" height="24" viewBox="0 0 25 24" fill="none" xmlns="http://www.w3.org/2000/svg">
<path d="M22.5 12C22.5 10.8954 21.6046 10 20.5 10H18.5C17.3954 10 16.5 10.8954 16.5 12V18C16.5 18.5523 16.9477 19 17.5 19H21.5C22.0523 19 22.5 18.5523 22.5 18V12ZM21 16.5C21 16.6326 20.9473 16.7598 20.8536 16.8536C20.7598 16.9473 20.6326 17 20.5 17H18.5C18.3674 17 18.2402 16.9473 18.1464 16.8536C18.0527 16.7598 18 16.6326 18 16.5C18 16.3674 18.0527 16.2402 18.1464 16.1464C18.2402 16.0527 18.3674 16 18.5 16H20V15H18.5C18.3674 15 18.2402 14.9473 18.1464 14.8536C18.0527 14.7598 18 14.6326 18 14.5C18 14.3674 18.0527 14.2402 18.1464 14.1464C18.2402 14.0527 18.3674 14 18.5 14H20V13H18.5C18.3674 13 18.2402 12.9473 18.1464 12.8536C18.0527 12.7598 18 12.6326 18 12.5C18 12.3674 18.0527 12.2402 18.1464 12.1464C18.2402 12.0527 18.3674 12 18.5 12H20.5C20.6326 12 20.7598 12.0527 20.8536 12.1464C20.9473 12.2402 21 12.3674 21 12.5V16.5ZM15.5 4C15.5 2.89543 14.6046 2 13.5 2H11.5C10.3954 2 9.5 2.89543 9.5 4V18C9.5 18.5523 9.94772 19 10.5 19H14.5C15.0523 19 15.5 18.5523 15.5 18V4ZM13.5 9H11.5C11.3674 9 11.2402 8.94732 11.1464 8.85355C11.0527 8.75979 11 8.63261 11 8.5C11 8.36739 11.0527 8.24021 11.1464 8.14645C11.2402 8.05268 11.3674 8 11.5 8H12C12 5.36 12.06 5.64 11.855 5.855C11.7608 5.94915 11.6332 6.00205 11.5 6.00205C11.3668 6.00205 11.2392 5.94915 11.145 5.855C11.0508 5.76085 10.998 5.63315 10.998 5.5C10.998 5.36685 11.0508 5.23915 11.145 5.145C12.105 4.185 12.285 3.865 12.69 4.04C13.095 4.215 13 4.25 13 8H13.5C13.6326 8 13.7598 8.05268 13.8536 8.14645C13.9473 8.24021 14 8.36739 14 8.5C14 8.63261 13.9473 8.75979 13.8536 8.85355C13.7598 8.94732 13.6326 9 13.5 9ZM8.5 9C8.5 7.89543 7.60457 7 6.5 7H4.5C3.39543 7 2.5 7.89543 2.5 9V18C2.5 18.5523 2.94772 19 3.5 19H7.5C8.05228 19 8.5 18.5523 8.5 18V9ZM7 11.5C7 11.6326 6.94732 11.7598 6.85355 11.8536C6.75979 11.9473 6.63261 12 6.5 12H5V13H6.5C6.63261 13 6.75979 13.0527 6.85355 13.1464C6.94732 13.2402 7 13.3674 7 13.5C7 13.6326 6.94732 13.7598 6.85355 13.8536C6.75979 13.9473 6.63261 14 6.5 14H4.5C4.36739 14 4.24021 13.9473 4.14645 13.8536C4.05268 13.7598 4 13.6326 4 13.5V11.5C4 11.3674 4.05268 11.2402 4.14645 11.1464C4.24021 11.0527 4.36739 11 4.5 11H6V10H4.5C4.36739 10 4.24021 9.94732 4.14645 9.85355C4.05268 9.75979 4 9.63261 4 9.5C4 9.36739 4.05268 9.24021 4.14645 9.14645C4.24021 9.05268 4.36739 9 4.5 9H6.5C6.63261 9 6.75979 9.05268 6.85355 9.14645C6.94732 9.24021 7 9.36739 7 9.5V11.5Z" fill="url(#paint0_linear_2838_8851)"/>
<path d="M6.5 8.99996H4.5C4.36739 8.99996 4.24021 9.05264 4.14645 9.1464C4.05268 9.24017 4 9.36735 4 9.49996C4 9.63257 4.05268 9.75974 4.14645 9.85351C4.24021 9.94728 4.36739 9.99996 4.5 9.99996H6V11H4.5C4.36739 11 4.24021 11.0526 4.14645 11.1464C4.05268 11.2402 4 11.3673 4 11.5V13.5C4 13.6326 4.05268 13.7597 4.14645 13.8535C4.24021 13.9473 4.36739 14 4.5 14H6.5C6.63261 14 6.75979 13.9473 6.85355 13.8535C6.94732 13.7597 7 13.6326 7 13.5C7 13.3674 6.94732 13.2402 6.85355 13.1464C6.75979 13.0526 6.63261 13 6.5 13H5V12H6.5C6.63261 12 6.75979 11.9473 6.85355 11.8535C6.94732 11.7597 7 11.6326 7 11.5V9.49996C7 9.36735 6.94732 9.24017 6.85355 9.1464C6.75979 9.05264 6.63261 8.99996 6.5 8.99996ZM11.5 7.99996C11.3674 7.99996 11.2402 8.05264 11.1464 8.1464C11.0527 8.24017 11 8.36735 11 8.49996C11 8.63257 11.0527 8.75974 11.1464 8.85351C11.2402 8.94728 11.3674 8.99996 11.5 8.99996H13.5C13.6326 8.99996 13.7598 8.94728 13.8536 8.85351C13.9473 8.75974 14 8.63257 14 8.49996C14 8.36735 13.9473 8.24017 13.8536 8.1464C13.7598 8.05264 13.6326 7.99996 13.5 7.99996H13C13 4.25996 13.11 4.20996 12.69 4.03996C12.27 3.86996 12.105 4.18496 11.145 5.14496C11.0984 5.19158 11.0614 5.24692 11.0362 5.30783C11.0109 5.36874 10.998 5.43403 10.998 5.49996C10.998 5.63311 11.0508 5.76081 11.145 5.85496C11.2392 5.94911 11.3668 6.002 11.5 6.002C11.5659 6.002 11.6312 5.98902 11.6921 5.96379C11.753 5.93856 11.8084 5.90158 11.855 5.85496C12.05 5.65496 12 5.24496 12 7.99996H11.5ZM18.5 16C18.3674 16 18.2402 16.0526 18.1464 16.1464C18.0527 16.2402 18 16.3673 18 16.5C18 16.6326 18.0527 16.7597 18.1464 16.8535C18.2402 16.9473 18.3674 17 18.5 17H20.5C20.6326 17 20.7598 16.9473 20.8536 16.8535C20.9473 16.7597 21 16.6326 21 16.5V12.5C21 12.3674 20.9473 12.2402 20.8536 12.1464C20.7598 12.0526 20.6326 12 20.5 12H18.5C18.3674 12 18.2402 12.0526 18.1464 12.1464C18.0527 12.2402 18 12.3674 18 12.5C18 12.6326 18.0527 12.7597 18.1464 12.8535C18.2402 12.9473 18.3674 13 18.5 13H20V14H18.5C18.3674 14 18.2402 14.0526 18.1464 14.1464C18.0527 14.2402 18 14.3674 18 14.5C18 14.6326 18.0527 14.7597 18.1464 14.8535C18.2402 14.9473 18.3674 15 18.5 15H20V16H18.5Z" fill="white"/>
<path d="M23 20H2C1.44772 20 1 20.4477 1 21C1 21.5523 1.44772 22 2 22H23C23.5523 22 24 21.5523 24 21C24 20.4477 23.5523 20 23 20Z" fill="white"/>
<defs>
<linearGradient id="paint0_linear_2838_8851" x1="2.5" y1="10.5001" x2="22.5" y2="10.5001" gradientUnits="userSpaceOnUse">
<stop stop-color="#D51F40"/>
<stop offset="1" stop-color="#F37024"/>
</linearGradient>
</defs>
</svg>
