<svg width="16" height="16" viewBox="0 0 16 16" fill="none" xmlns="http://www.w3.org/2000/svg">
<circle opacity="0.2" cx="8" cy="8" r="7" fill="#F68F54"/>
<path d="M13.4502 11.5054C13.5627 11.5927 13.6361 11.721 13.6543 11.8623C13.6724 12.0036 13.6339 12.1463 13.5471 12.2592C12.8235 13.2036 11.8713 13.9477 10.7803 14.4214C9.68941 14.8952 8.49581 15.0828 7.31229 14.9665C6.12876 14.8503 4.99438 14.4341 4.0163 13.7572C3.03822 13.0803 2.24874 12.1651 1.72242 11.098C1.19611 10.0309 0.950334 8.84722 1.00832 7.65866C1.06631 6.47011 1.42615 5.31597 2.05384 4.30526C2.68153 3.29455 3.55635 2.46064 4.59567 1.88231C5.63499 1.30398 6.80449 1.00031 7.9937 1C8.13642 1 8.27329 1.05673 8.37421 1.15771C8.47512 1.25869 8.53182 1.39565 8.53182 1.53846C8.53182 1.68127 8.47512 1.81823 8.37421 1.91921C8.27329 2.02019 8.13642 2.07692 7.9937 2.07692C6.98725 2.07676 5.99738 2.33339 5.11762 2.82255C4.23787 3.31172 3.49729 4.01726 2.96587 4.87252C2.43445 5.72778 2.12973 6.7045 2.08052 7.71039C2.03131 8.71628 2.23923 9.71811 2.68463 10.6212C3.13003 11.5243 3.7982 12.2989 4.626 12.8717C5.4538 13.4445 6.41389 13.7966 7.41554 13.8948C8.4172 13.9931 9.42733 13.8341 10.3505 13.4329C11.2737 13.0318 12.0794 12.4017 12.6915 11.6023C12.7347 11.5458 12.7887 11.4984 12.8504 11.4629C12.912 11.4274 12.9801 11.4045 13.0506 11.3955C13.1212 11.3864 13.1928 11.3915 13.2614 11.4104C13.33 11.4293 13.3942 11.4615 13.4502 11.5054ZM13.2619 4.79615C13.3734 4.797 13.4825 4.76313 13.574 4.69923C13.6318 4.65801 13.6808 4.60577 13.7183 4.5455C13.7559 4.48523 13.7811 4.41814 13.7926 4.34807C13.8041 4.27801 13.8017 4.20636 13.7854 4.13725C13.7691 4.06814 13.7393 4.00293 13.6978 3.94538C13.6442 3.87007 13.5721 3.80983 13.4885 3.77047C13.4049 3.73111 13.3126 3.71395 13.2204 3.72065C13.1283 3.72735 13.0394 3.75768 12.9623 3.80871C12.8853 3.85975 12.8227 3.92978 12.7805 4.01205C12.7384 4.09432 12.7181 4.18607 12.7217 4.27845C12.7252 4.37084 12.7525 4.46075 12.8009 4.53953C12.8492 4.61831 12.9171 4.6833 12.9978 4.72825C13.0785 4.77319 13.1695 4.79658 13.2619 4.79615ZM11.8305 3.33692C11.9224 3.33668 12.0128 3.31287 12.0929 3.26776C12.1731 3.22265 12.2403 3.15774 12.2883 3.07923C12.3362 3.00072 12.3632 2.91122 12.3668 2.81928C12.3704 2.72734 12.3503 2.63602 12.3086 2.55404C12.2668 2.47206 12.2048 2.40214 12.1284 2.35097C12.052 2.2998 11.9637 2.26907 11.8721 2.26172C11.7804 2.25437 11.6884 2.27065 11.6048 2.309C11.5212 2.34734 11.4489 2.40648 11.3946 2.48077C11.3359 2.56114 11.3006 2.65623 11.2927 2.75546C11.2847 2.85469 11.3044 2.95418 11.3496 3.04288C11.3948 3.13159 11.4636 3.20603 11.5485 3.25793C11.6334 3.30984 11.731 3.33718 11.8305 3.33692ZM13.6493 6.25C13.6848 6.36346 13.7569 6.46197 13.8542 6.53015C13.9516 6.59833 14.0687 6.63236 14.1874 6.62692C14.2391 6.63518 14.2918 6.63518 14.3435 6.62692C14.4452 6.59553 14.5354 6.53466 14.6025 6.452C14.6696 6.36934 14.7108 6.26861 14.7207 6.16256C14.7306 6.0565 14.7089 5.94988 14.6582 5.85619C14.6076 5.7625 14.5303 5.68594 14.4362 5.63621C14.342 5.58647 14.2353 5.56579 14.1294 5.57678C14.0235 5.58778 13.9233 5.62994 13.8413 5.69796C13.7594 5.76597 13.6995 5.85677 13.6691 5.95887C13.6388 6.06097 13.6394 6.16978 13.6708 6.27154L13.6493 6.25ZM14.2735 9.61538C14.2068 9.5915 14.1359 9.58106 14.0651 9.58466C13.9943 9.58825 13.9249 9.60582 13.8609 9.63634C13.7969 9.66686 13.7396 9.70974 13.6922 9.76251C13.6448 9.81529 13.6083 9.87691 13.5847 9.94384C13.5377 10.0788 13.5461 10.2269 13.6081 10.3557C13.6702 10.4844 13.7808 10.5833 13.9157 10.6304C14.0506 10.6775 14.1986 10.6691 14.3273 10.607C14.456 10.5449 14.5547 10.4342 14.6018 10.2992C14.6483 10.165 14.6399 10.0177 14.5785 9.88964C14.517 9.76154 14.4074 9.66296 14.2735 9.61538ZM14.4619 7.56923C14.3192 7.56923 14.1823 7.62596 14.0814 7.72694C13.9805 7.82792 13.9238 7.96488 13.9238 8.10769C13.9238 8.2505 13.9805 8.38746 14.0814 8.48844C14.1823 8.58942 14.3192 8.64615 14.4619 8.64615C14.6046 8.64615 14.7415 8.58942 14.8424 8.48844C14.9433 8.38746 15 8.2505 15 8.10769C15 7.96488 14.9433 7.82792 14.8424 7.72694C14.7415 7.62596 14.6046 7.56923 14.4619 7.56923ZM10.017 2.4C10.115 2.39513 10.2097 2.36357 10.291 2.30874C10.3723 2.25391 10.4371 2.1779 10.4784 2.0889C10.5197 1.9999 10.5359 1.90131 10.5252 1.80378C10.5146 1.70624 10.4775 1.61347 10.418 1.53548C10.3585 1.45749 10.2789 1.39725 10.1877 1.36126C10.0964 1.32528 9.99713 1.31492 9.90045 1.3313C9.80377 1.34768 9.71341 1.39018 9.63912 1.45422C9.56482 1.51825 9.50942 1.60137 9.47891 1.69462C9.45174 1.77762 9.44516 1.86599 9.45973 1.95211C9.47431 2.03822 9.5096 2.1195 9.56256 2.18893C9.61553 2.25835 9.68457 2.31385 9.76375 2.35062C9.84292 2.38739 9.92985 2.40434 10.017 2.4ZM8.53182 3.91308C8.53182 3.77027 8.47512 3.63331 8.37421 3.53233C8.27329 3.43135 8.13642 3.37461 7.9937 3.37461C7.85098 3.37461 7.71411 3.43135 7.61319 3.53233C7.51228 3.63331 7.45558 3.77027 7.45558 3.91308V8C7.45602 8.11131 7.49093 8.21974 7.5555 8.31039C7.62006 8.40103 7.71111 8.46942 7.81612 8.50615L10.6843 9.51307C10.7412 9.53377 10.8013 9.54469 10.8619 9.54538C10.9907 9.54774 11.1161 9.50376 11.2152 9.42146C11.3144 9.33915 11.3808 9.22397 11.4023 9.09686C11.4238 8.96974 11.399 8.83913 11.3324 8.72875C11.2658 8.61838 11.1619 8.53557 11.0394 8.49538L8.53182 7.61769V3.91308Z" fill="#F68F54"/>
</svg>
