<svg width="24" height="24" viewBox="0 0 24 24" fill="none" xmlns="http://www.w3.org/2000/svg">
<path d="M15.4149 7.34949C15.1254 7.34965 14.845 7.45016 14.6214 7.6339C14.3977 7.81763 14.2447 8.07323 14.1884 8.35713C14.1321 8.64104 14.1759 8.93569 14.3125 9.19089C14.449 9.44608 14.6699 9.64603 14.9373 9.75667C15.2048 9.86731 15.5023 9.88179 15.7793 9.79765C16.0562 9.7135 16.2954 9.53594 16.4561 9.29521C16.6168 9.05448 16.6891 8.76548 16.6606 8.47745C16.6321 8.18942 16.5046 7.92017 16.2999 7.71558C16.1838 7.59924 16.0458 7.50701 15.8939 7.44418C15.742 7.38135 15.5792 7.34917 15.4149 7.34949Z" fill="white"/>
<path d="M22.38 2.34658C22.3798 2.34518 22.3798 2.34376 22.38 2.34236C22.3404 2.1686 22.2529 2.00938 22.1276 1.88265C22.0023 1.75593 21.8441 1.66675 21.6708 1.62517C20.2739 1.28439 18.0764 1.64767 15.6412 2.62267C13.1869 3.60705 10.8872 5.06017 9.33281 6.61736C8.83459 7.11293 8.37174 7.64282 7.94765 8.20314C6.90093 8.15627 5.9789 8.30533 5.20218 8.64423C2.49562 9.83533 1.72265 12.8836 1.51687 14.1352C1.48709 14.313 1.49875 14.4953 1.55094 14.6679C1.60313 14.8405 1.69444 14.9987 1.81776 15.1302C1.94109 15.2618 2.0931 15.3631 2.26197 15.4263C2.43085 15.4894 2.61202 15.5128 2.7914 15.4945H2.79749L5.81249 15.1655C5.81624 15.2039 5.82046 15.2391 5.82374 15.2714C5.86247 15.6388 6.02631 15.9817 6.28781 16.2427L7.75921 17.715C8.01977 17.9769 8.36262 18.1409 8.72999 18.1795L8.83078 18.1903L8.50265 21.2016C8.50265 21.2016 8.50265 21.2053 8.50265 21.2077C8.48588 21.3698 8.50314 21.5337 8.55332 21.6889C8.6035 21.844 8.6855 21.9869 8.79407 22.1086C8.90264 22.2302 9.0354 22.3279 9.18386 22.3953C9.33232 22.4627 9.49321 22.4983 9.65624 22.5C9.72142 22.5001 9.78648 22.4947 9.85077 22.4841C11.1094 22.2816 14.1562 21.518 15.3441 18.7969C15.6802 18.0253 15.8287 17.107 15.787 16.0622C16.3499 15.639 16.8817 15.1761 17.3784 14.677C18.9455 13.118 20.4033 10.837 21.3773 8.4183C22.3472 6.0108 22.7123 3.79689 22.38 2.34658ZM17.3616 10.5441C16.9764 10.9296 16.4855 11.1923 15.9511 11.2988C15.4166 11.4054 14.8626 11.351 14.359 11.1425C13.8555 10.9341 13.425 10.581 13.1222 10.1279C12.8194 9.67484 12.6577 9.1421 12.6577 8.59713C12.6577 8.05215 12.8194 7.51941 13.1222 7.06632C13.425 6.61322 13.8555 6.26013 14.359 6.05171C14.8626 5.84328 15.4166 5.7889 15.9511 5.89543C16.4855 6.00195 16.9764 6.26461 17.3616 6.65017C17.6197 6.90445 17.8247 7.20753 17.9647 7.54178C18.1046 7.87603 18.1767 8.23477 18.1767 8.59713C18.1767 8.95948 18.1046 9.31822 17.9647 9.65247C17.8247 9.98672 17.6197 10.2898 17.3616 10.5441Z" fill="white"/>
<path d="M7.59047 18.1144C7.40909 18.0919 7.22573 18.1364 7.07485 18.2396C6.77531 18.4444 6.47438 18.6469 6.17063 18.8443C5.5561 19.2437 4.8211 18.5424 5.18625 17.9068L5.75578 16.9224C5.83721 16.8033 5.88255 16.6632 5.88636 16.519C5.89018 16.3748 5.85232 16.2325 5.77731 16.1092C5.7023 15.986 5.59333 15.887 5.46347 15.8241C5.3336 15.7612 5.18836 15.7371 5.04516 15.7547C4.41305 15.8347 3.82549 16.1226 3.375 16.5732C3.20344 16.7452 2.68172 17.2674 2.40094 19.2572C2.32102 19.8288 2.27064 20.4041 2.25 20.9808C2.24744 21.0809 2.26494 21.1805 2.30148 21.2738C2.33802 21.367 2.39286 21.4519 2.46276 21.5236C2.53266 21.5953 2.61621 21.6523 2.70848 21.6912C2.80075 21.7301 2.89987 21.7501 3 21.7501H3.01875C3.59594 21.7296 4.1717 21.6796 4.74375 21.6001C6.73453 21.3188 7.25672 20.7966 7.42828 20.6251C7.88095 20.1744 8.16818 19.5841 8.24344 18.9497C8.26754 18.7524 8.2123 18.5536 8.08986 18.3969C7.96742 18.2403 7.7878 18.1387 7.59047 18.1144Z" fill="white"/>
</svg>
