<svg width="24" height="24" viewBox="0 0 24 24" fill="none" xmlns="http://www.w3.org/2000/svg">
<path d="M15.4149 7.34949C15.1254 7.34965 14.845 7.45016 14.6214 7.6339C14.3977 7.81763 14.2447 8.07323 14.1884 8.35713C14.1321 8.64104 14.1759 8.93569 14.3125 9.19089C14.449 9.44608 14.6699 9.64603 14.9373 9.75667C15.2048 9.86731 15.5023 9.88179 15.7793 9.79765C16.0562 9.7135 16.2954 9.53594 16.4561 9.29521C16.6168 9.05448 16.6891 8.76548 16.6606 8.47745C16.6321 8.18942 16.5046 7.92017 16.2999 7.71558C16.1838 7.59924 16.0458 7.50701 15.8939 7.44418C15.742 7.38135 15.5792 7.34917 15.4149 7.34949Z" fill="url(#paint0_linear)"/>
<path d="M22.38 2.34658C22.3798 2.34518 22.3798 2.34376 22.38 2.34236C22.3404 2.1686 22.253 2.00938 22.1276 1.88265C22.0023 1.75593 21.8441 1.66675 21.6708 1.62517C20.2739 1.28439 18.0764 1.64767 15.6413 2.62267C13.1869 3.60705 10.8872 5.06017 9.33282 6.61736C8.83461 7.11293 8.37175 7.64282 7.94767 8.20314C6.90095 8.15627 5.97892 8.30533 5.2022 8.64423C2.49563 9.83533 1.72267 12.8836 1.51688 14.1352C1.48711 14.313 1.49877 14.4953 1.55096 14.6679C1.60314 14.8405 1.69445 14.9987 1.81778 15.1302C1.9411 15.2618 2.09312 15.3631 2.26199 15.4263C2.43086 15.4894 2.61204 15.5128 2.79142 15.4945H2.79751L5.81251 15.1655C5.81626 15.2039 5.82048 15.2391 5.82376 15.2714C5.86248 15.6388 6.02633 15.9817 6.28782 16.2427L7.75923 17.715C8.01979 17.9769 8.36263 18.1409 8.73001 18.1795L8.83079 18.1903L8.50267 21.2016C8.50267 21.2016 8.50267 21.2053 8.50267 21.2077C8.4859 21.3698 8.50315 21.5337 8.55333 21.6889C8.60351 21.844 8.68551 21.9869 8.79408 22.1086C8.90266 22.2302 9.03542 22.3279 9.18388 22.3953C9.33234 22.4627 9.49323 22.4983 9.65626 22.5C9.72143 22.5001 9.7865 22.4947 9.85079 22.4841C11.1094 22.2816 14.1563 21.518 15.3441 18.7969C15.6802 18.0253 15.8288 17.107 15.787 16.0622C16.3499 15.639 16.8817 15.1761 17.3784 14.677C18.9455 13.118 20.4033 10.837 21.3774 8.4183C22.3472 6.0108 22.7124 3.79689 22.38 2.34658ZM17.3616 10.5441C16.9764 10.9296 16.4856 11.1923 15.9511 11.2988C15.4166 11.4054 14.8626 11.351 14.359 11.1425C13.8555 10.9341 13.4251 10.581 13.1222 10.1279C12.8194 9.67484 12.6577 9.1421 12.6577 8.59713C12.6577 8.05215 12.8194 7.51941 13.1222 7.06632C13.4251 6.61322 13.8555 6.26013 14.359 6.05171C14.8626 5.84328 15.4166 5.7889 15.9511 5.89543C16.4856 6.00195 16.9764 6.26461 17.3616 6.65017C17.6197 6.90445 17.8247 7.20753 17.9647 7.54178C18.1046 7.87603 18.1767 8.23477 18.1767 8.59713C18.1767 8.95948 18.1046 9.31822 17.9647 9.65247C17.8247 9.98672 17.6197 10.2898 17.3616 10.5441Z" fill="url(#paint1_linear)"/>
<path d="M7.59047 18.1144C7.40909 18.0919 7.22573 18.1364 7.07485 18.2396C6.77531 18.4444 6.47438 18.6469 6.17063 18.8443C5.5561 19.2437 4.8211 18.5424 5.18625 17.9068L5.75578 16.9224C5.83721 16.8033 5.88255 16.6632 5.88636 16.519C5.89018 16.3748 5.85232 16.2325 5.77731 16.1092C5.7023 15.986 5.59333 15.887 5.46347 15.8241C5.3336 15.7612 5.18836 15.7371 5.04516 15.7547C4.41305 15.8347 3.82549 16.1226 3.375 16.5732C3.20344 16.7452 2.68172 17.2674 2.40094 19.2572C2.32102 19.8288 2.27064 20.4041 2.25 20.9808C2.24744 21.0809 2.26494 21.1805 2.30148 21.2738C2.33802 21.367 2.39286 21.4519 2.46276 21.5236C2.53266 21.5953 2.61621 21.6523 2.70848 21.6912C2.80075 21.7301 2.89987 21.7501 3 21.7501H3.01875C3.59594 21.7296 4.1717 21.6796 4.74375 21.6001C6.73453 21.3188 7.25672 20.7966 7.42828 20.6251C7.88095 20.1744 8.16818 19.5841 8.24344 18.9497C8.26754 18.7524 8.2123 18.5536 8.08986 18.3969C7.96742 18.2403 7.7878 18.1387 7.59047 18.1144Z" fill="url(#paint2_linear)"/>
<defs>
<linearGradient id="paint0_linear" x1="14.4981" y1="7.87078" x2="16.2705" y2="9.43465" gradientUnits="userSpaceOnUse">
<stop offset="0.442708" stop-color="#D51F40"/>
<stop offset="0.682292" stop-color="#E24134"/>
<stop offset="0.859375" stop-color="#E8542E"/>
<stop offset="1" stop-color="#F37024"/>
</linearGradient>
<linearGradient id="paint1_linear" x1="4.3007" y1="5.8751" x2="19.1756" y2="18.9996" gradientUnits="userSpaceOnUse">
<stop offset="0.442708" stop-color="#D51F40"/>
<stop offset="0.682292" stop-color="#E24134"/>
<stop offset="0.859375" stop-color="#E8542E"/>
<stop offset="1" stop-color="#F37024"/>
</linearGradient>
<linearGradient id="paint2_linear" x1="3.04965" y1="16.9993" x2="7.30015" y2="20.7487" gradientUnits="userSpaceOnUse">
<stop offset="0.442708" stop-color="#D51F40"/>
<stop offset="0.682292" stop-color="#E24134"/>
<stop offset="0.859375" stop-color="#E8542E"/>
<stop offset="1" stop-color="#F37024"/>
</linearGradient>
</defs>
</svg>
