<svg width="16" height="16" viewBox="0 0 16 16" fill="none" xmlns="http://www.w3.org/2000/svg">
<path d="M12.9486 3.04909C12.1345 2.23541 11.1324 1.63502 10.0309 1.30108C8.92941 0.967151 7.76258 0.909979 6.63373 1.13463C5.50488 1.35928 4.44884 1.85883 3.55913 2.58903C2.66942 3.31922 1.97349 4.25755 1.53298 5.3209C1.09246 6.38425 0.920947 7.53983 1.03363 8.68529C1.14631 9.83074 1.5397 10.9307 2.17897 11.8879C2.81825 12.845 3.68367 13.6297 4.69861 14.1726C5.71355 14.7154 6.84669 14.9996 7.99767 15C9.85351 15.0023 11.6343 14.2675 12.9486 12.9573C13.5999 12.3071 14.1166 11.5349 14.4692 10.6848C14.8217 9.83472 15.0032 8.92347 15.0032 8.00318C15.0032 7.08289 14.8217 6.17164 14.4692 5.32156C14.1166 4.47148 13.5999 3.69926 12.9486 3.04909V3.04909ZM10.6959 9.80091C10.8144 9.92014 10.8809 10.0814 10.8809 10.2495C10.8809 10.4177 10.8144 10.5789 10.6959 10.6982C10.5766 10.8167 10.4153 10.8832 10.2472 10.8832C10.0791 10.8832 9.91781 10.8167 9.79858 10.6982L7.99767 8.89727L6.19677 10.6982C6.07754 10.8167 5.91625 10.8832 5.74813 10.8832C5.58001 10.8832 5.41872 10.8167 5.29949 10.6982C5.18097 10.5789 5.11444 10.4177 5.11444 10.2495C5.11444 10.0814 5.18097 9.92014 5.29949 9.80091L7.1004 8L5.29949 6.19909C5.19524 6.07735 5.14076 5.92076 5.14695 5.7606C5.15314 5.60044 5.21953 5.44852 5.33286 5.33519C5.4462 5.22185 5.59812 5.15546 5.75828 5.14927C5.91844 5.14309 6.07503 5.19756 6.19677 5.30182L7.99767 7.10272L9.79858 5.30182C9.85563 5.2352 9.92583 5.1811 10.0048 5.1429C10.0837 5.1047 10.1697 5.08324 10.2574 5.07985C10.345 5.07647 10.4324 5.09124 10.5141 5.12323C10.5957 5.15522 10.6699 5.20375 10.7319 5.26577C10.7939 5.32778 10.8424 5.40195 10.8744 5.48361C10.9064 5.56527 10.9212 5.65267 10.9178 5.74031C10.9144 5.82794 10.893 5.91394 10.8548 5.99289C10.8166 6.07184 10.7625 6.14204 10.6959 6.19909L8.89495 8L10.6959 9.80091Z" fill="#4E5156"/>
<path d="M10.8267 9.88667C10.9509 10.0116 11.0205 10.1805 11.0205 10.3567C11.0205 10.5328 10.9509 10.7018 10.8267 10.8267C10.7018 10.9508 10.5328 11.0205 10.3567 11.0205C10.1806 11.0205 10.0116 10.9508 9.88669 10.8267L8.00002 8.94L6.11335 10.8267C5.98845 10.9508 5.81948 11.0205 5.64335 11.0205C5.46723 11.0205 5.29826 10.9508 5.17335 10.8267C5.04919 10.7018 4.97949 10.5328 4.97949 10.3567C4.97949 10.1805 5.04919 10.0116 5.17335 9.88667L7.06002 8L5.17335 6.11334C5.06414 5.9858 5.00707 5.82175 5.01355 5.65397C5.02003 5.48618 5.08958 5.32702 5.20831 5.20829C5.32704 5.08956 5.4862 5.02001 5.65398 5.01353C5.82177 5.00705 5.98582 5.06412 6.11335 5.17334L8.00002 7.06L9.88669 5.17334C9.94645 5.10355 10.02 5.04687 10.1027 5.00685C10.1854 4.96684 10.2755 4.94435 10.3673 4.9408C10.4591 4.93726 10.5507 4.95273 10.6362 4.98625C10.7218 5.01976 10.7995 5.0706 10.8645 5.13557C10.9294 5.20054 10.9803 5.27824 11.0138 5.36379C11.0473 5.44934 11.0628 5.54089 11.0592 5.63271C11.0557 5.72452 11.0332 5.81461 10.9932 5.89732C10.9532 5.98003 10.8965 6.05357 10.8267 6.11334L8.94002 8L10.8267 9.88667Z" fill="#F45A64"/>
</svg>
