<svg width="18" height="18" viewBox="0 0 18 18" fill="none" xmlns="http://www.w3.org/2000/svg">
<path fill-rule="evenodd" clip-rule="evenodd" d="M8.2574 2.34188C7.69229 2.34194 7.36932 2.45251 7.19592 2.58789C7.05 2.70182 6.93458 2.8925 6.93458 3.28296L6.93457 13.0883H11.0634L11.0634 3.29195C11.0501 2.91199 10.884 2.70415 10.6607 2.56697C10.4064 2.41071 10.0592 2.34206 9.75145 2.34188C9.41542 2.34168 9.19778 2.34189 9.0054 2.34207H9.00535H9.00529H9.00522H9.00515C8.77354 2.34228 8.57849 2.34247 8.2574 2.34188ZM12.1884 13.0883H15.5813L15.5813 9.27968C15.5851 8.68598 15.4906 8.53127 15.4409 8.48258C15.3857 8.42843 15.2226 8.3411 14.637 8.33531H12.1884L12.1884 13.0883ZM12.1884 7.21031V3.28296L12.1882 3.26639C12.1647 2.46816 11.767 1.92628 11.2496 1.60843C10.7619 1.30877 10.1895 1.21713 9.75211 1.21688C9.41116 1.21668 9.19348 1.21689 9.00187 1.21707C8.77247 1.21729 8.58043 1.21747 8.25894 1.21688L8.25791 1.21688C7.58269 1.21688 6.96289 1.34255 6.50359 1.70115C6.01675 2.08125 5.80958 2.64237 5.80958 3.28296V4.96778L3.43192 4.96778L3.43077 4.96778C2.84467 4.96898 2.25337 5.03478 1.84668 5.43674C1.43894 5.83976 1.36257 6.43536 1.36045 7.05032L1.36045 13.6508C1.36045 13.9615 1.61229 14.2133 1.92295 14.2133H16.1438C16.4545 14.2133 16.7063 13.9615 16.7063 13.6508L16.7063 9.28493C16.71 8.67617 16.6391 8.082 16.2287 7.67944C15.8236 7.28202 15.2313 7.21587 14.645 7.21034L12.1884 7.21031ZM5.80958 6.09278H3.43256C2.85402 6.09402 2.69301 6.18203 2.63753 6.23686C2.58312 6.29064 2.48761 6.45469 2.48545 7.05325L2.48545 13.0883H5.80957L5.80958 6.09278ZM17.0625 15.3748H0.9375C0.62684 15.3748 0.375 15.6267 0.375 15.9373C0.375 16.248 0.62684 16.4998 0.9375 16.4998H17.0625C17.3732 16.4998 17.625 16.248 17.625 15.9373C17.625 15.6267 17.3732 15.3748 17.0625 15.3748ZM4.875 10.7831H3.375C3.27554 10.7831 3.18016 10.7436 3.10984 10.6733C3.03951 10.603 3 10.5076 3 10.4081V8.90814C3 8.80869 3.03951 8.7133 3.10984 8.64298C3.18016 8.57265 3.27554 8.53314 3.375 8.53314H4.5V7.78314H3.375C3.27554 7.78314 3.18016 7.74363 3.10984 7.67331C3.03951 7.60298 3 7.5076 3 7.40814C3 7.30869 3.03951 7.2133 3.10984 7.14298C3.18016 7.07265 3.27554 7.03314 3.375 7.03314H4.875C4.97446 7.03314 5.06984 7.07265 5.14017 7.14298C5.21049 7.2133 5.25 7.30869 5.25 7.40814V8.90814C5.25 9.0076 5.21049 9.10298 5.14017 9.17331C5.06984 9.24363 4.97446 9.28314 4.875 9.28314H3.75V10.0331H4.875C4.97446 10.0331 5.06984 10.0727 5.14017 10.143C5.21049 10.2133 5.25 10.3087 5.25 10.4081C5.25 10.5076 5.21049 10.603 5.14017 10.6733C5.06984 10.7436 4.97446 10.7831 4.875 10.7831ZM9.40922 6.28314H9.78422C9.88367 6.28314 9.97906 6.32265 10.0494 6.39298C10.1197 6.4633 10.1592 6.55869 10.1592 6.65814C10.1592 6.7576 10.1197 6.85298 10.0494 6.92331C9.97906 6.99363 9.88367 7.03314 9.78422 7.03314H8.28422C8.18476 7.03314 8.08938 6.99363 8.01905 6.92331C7.94873 6.85298 7.90922 6.7576 7.90922 6.65814C7.90922 6.55869 7.94873 6.4633 8.01905 6.39298C8.08938 6.32265 8.18476 6.28314 8.28422 6.28314H8.65962C8.66049 5.88137 8.6626 5.57002 8.66423 5.33019V5.33012C8.66824 4.73896 8.6693 4.58236 8.64156 4.57708C8.63157 4.57518 8.61783 4.59292 8.59915 4.61706L8.59915 4.61706L8.59914 4.61707C8.58565 4.6345 8.56958 4.65527 8.55047 4.67438C8.47985 4.74499 8.38408 4.78466 8.28422 4.78466C8.18436 4.78466 8.08858 4.74499 8.01797 4.67438C7.94735 4.60376 7.90768 4.50799 7.90768 4.40813C7.90768 4.30826 7.94735 4.21249 8.01797 4.14188L8.76797 3.39188C8.82042 3.33899 8.88743 3.30292 8.96046 3.28827C9.03349 3.27362 9.10923 3.28105 9.17802 3.30961C9.24682 3.33817 9.30554 3.38658 9.34672 3.44865C9.38789 3.51072 9.40965 3.58364 9.40922 3.65813V6.28314ZM13.1089 11.5331H14.2339V12.2831H13.1089C13.0095 12.2831 12.9141 12.3227 12.8437 12.393C12.7734 12.4633 12.7339 12.5587 12.7339 12.6581C12.7339 12.7576 12.7734 12.853 12.8437 12.9233C12.9141 12.9936 13.0095 13.0331 13.1089 13.0331H14.6089C14.7084 13.0331 14.8037 12.9936 14.8741 12.9233C14.9444 12.853 14.9839 12.7576 14.9839 12.6581V11.1581V9.65814C14.9839 9.55869 14.9444 9.4633 14.8741 9.39298C14.8037 9.32265 14.7084 9.28314 14.6089 9.28314H13.1089C13.0095 9.28314 12.9141 9.32265 12.8437 9.39298C12.7734 9.4633 12.7339 9.55869 12.7339 9.65814C12.7339 9.7576 12.7734 9.85298 12.8437 9.92331C12.9141 9.99363 13.0095 10.0331 13.1089 10.0331H14.2339V10.7831H13.1089C13.0095 10.7831 12.9141 10.8227 12.8437 10.893C12.7734 10.9633 12.7339 11.0587 12.7339 11.1581C12.7339 11.2576 12.7734 11.353 12.8437 11.4233C12.9141 11.4936 13.0095 11.5331 13.1089 11.5331Z" fill="#D4D6D8"/>
</svg>
