<svg width="18" height="19" viewBox="0 0 18 19" fill="none" xmlns="http://www.w3.org/2000/svg">
<circle cx="9" cy="9.36133" r="9" fill="#373942" fill-opacity="0.6"/>
<g clip-path="url(#clip0_13440:7714)">
<path d="M9.5392 7.38236L10.259 8.10222C10.5897 8.4329 10.852 8.82549 11.031 9.25757C11.2099 9.68965 11.302 10.1528 11.302 10.6204C11.302 11.0881 11.2099 11.5512 11.031 11.9833C10.852 12.4154 10.5897 12.808 10.259 13.1387L10.0789 13.3182C9.4111 13.9861 8.50536 14.3613 7.56094 14.3613C6.61652 14.3613 5.71078 13.9861 5.04298 13.3182C4.37517 12.6504 4 11.7445 4 10.8C4 9.8555 4.37517 8.94967 5.04298 8.2818L5.76276 9.00165C5.52488 9.23748 5.33593 9.51797 5.20673 9.82702C5.07754 10.1361 5.01066 10.4676 5.00993 10.8026C5.00919 11.1376 5.07462 11.4694 5.20246 11.779C5.3303 12.0886 5.51803 12.3699 5.75487 12.6068C5.9917 12.8437 6.27299 13.0314 6.58258 13.1593C6.89216 13.2871 7.22395 13.3525 7.55889 13.3518C7.89383 13.3511 8.22533 13.2842 8.53435 13.155C8.84338 13.0258 9.12384 12.8368 9.35964 12.5989L9.53971 12.4188C10.0165 11.9418 10.2844 11.2949 10.2844 10.6204C10.2844 9.94595 10.0165 9.29908 9.53971 8.82207L8.81993 8.10222L9.53971 7.38287L9.5392 7.38236ZM12.9565 10.4403L12.2372 9.721C12.4751 9.48518 12.6641 9.20469 12.7933 8.89563C12.9225 8.58658 12.9893 8.25505 12.9901 7.92007C12.9908 7.5851 12.9254 7.25328 12.7975 6.94366C12.6697 6.63404 12.482 6.35273 12.2451 6.11586C12.0083 5.879 11.727 5.69125 11.4174 5.5634C11.1078 5.43555 10.7761 5.37012 10.4411 5.37085C10.1062 5.37158 9.77467 5.43847 9.46565 5.56768C9.15663 5.69688 8.87616 5.88586 8.64036 6.12376L8.46029 6.30385C7.98348 6.78086 7.71562 7.42773 7.71562 8.10222C7.71562 8.7767 7.98348 9.42358 8.46029 9.90058L9.18007 10.6204L8.46029 11.3398L7.74102 10.6204C7.41033 10.2898 7.14801 9.89716 6.96905 9.46508C6.79008 9.033 6.69796 8.5699 6.69796 8.10222C6.69796 7.63453 6.79008 7.17143 6.96905 6.73935C7.14801 6.30727 7.41033 5.91468 7.74102 5.58399L7.92109 5.40441C8.5889 4.73654 9.49464 4.36133 10.4391 4.36133C11.3835 4.36133 12.2892 4.73654 12.957 5.40441C13.6248 6.07228 14 6.97812 14 7.92263C14 8.86715 13.6248 9.77298 12.957 10.4409L12.9565 10.4403Z" fill="white"/>
</g>
<defs>
<clipPath id="clip0_13440:7714">
<rect width="12" height="12" fill="white" transform="translate(3 3.36133)"/>
</clipPath>
</defs>
</svg>
