<svg width="24" height="24" viewBox="0 0 24 24" fill="none" xmlns="http://www.w3.org/2000/svg">
<path d="M18 15.75C17.5959 15.7499 17.196 15.8316 16.8245 15.9903C16.4529 16.149 16.1174 16.3814 15.8381 16.6734L8.90061 12.7702C9.03499 12.2655 9.03499 11.7345 8.90061 11.2299L15.8381 7.32657C16.3433 7.85032 17.0221 8.17192 17.7474 8.23111C18.4726 8.2903 19.1946 8.08302 19.778 7.6481C20.3615 7.21319 20.7663 6.58048 20.9167 5.8685C21.0671 5.15653 20.9527 4.41415 20.5951 3.78043C20.2374 3.14672 19.6609 2.66515 18.9737 2.42595C18.2864 2.18676 17.5356 2.20634 16.8617 2.48103C16.1879 2.75572 15.6373 3.26667 15.3131 3.91817C14.989 4.56966 14.9135 5.317 15.1008 6.02016L8.16327 9.92344C7.74887 9.49137 7.21467 9.19316 6.6294 9.06718C6.04412 8.9412 5.43454 8.99321 4.87907 9.21653C4.3236 9.43985 3.84765 9.82425 3.51244 10.3203C3.17724 10.8163 2.99812 11.4013 2.99812 12C2.99812 12.5987 3.17724 13.1837 3.51244 13.6797C3.84765 14.1758 4.3236 14.5602 4.87907 14.7835C5.43454 15.0068 6.04412 15.0588 6.6294 14.9328C7.21467 14.8069 7.74887 14.5086 8.16327 14.0766L15.1008 17.9799C14.9399 18.5854 14.9727 19.2261 15.1945 19.8121C15.4164 20.3981 15.8161 20.8999 16.3376 21.2472C16.8592 21.5944 17.4764 21.7696 18.1025 21.7483C18.7287 21.7269 19.3325 21.51 19.8292 21.128C20.3258 20.746 20.6904 20.2181 20.8718 19.6184C21.0532 19.0186 21.0422 18.3772 20.8404 17.784C20.6387 17.1908 20.2563 16.6757 19.7468 16.3109C19.2374 15.9461 18.6265 15.75 18 15.75Z" fill="white"/>
</svg>
