<svg width="25" height="24" viewBox="0 0 25 24" fill="none" xmlns="http://www.w3.org/2000/svg">
<path d="M21.5883 22C21.4686 22.0006 21.35 21.9777 21.2393 21.9325C21.1285 21.8872 21.0278 21.8206 20.9428 21.7363L19.1246 19.9181C18.9534 19.7469 18.8573 19.5148 18.8573 19.2727C18.8573 19.0306 18.9534 18.7984 19.1246 18.6272C19.2958 18.456 19.528 18.3599 19.7701 18.3599C20.0122 18.3599 20.2443 18.456 20.4155 18.6272L22.2337 20.4454C22.3189 20.5299 22.3866 20.6305 22.4327 20.7412C22.4789 20.852 22.5026 20.9709 22.5026 21.0909C22.5026 21.2109 22.4789 21.3297 22.4327 21.4405C22.3866 21.5513 22.3189 21.6518 22.2337 21.7363C22.1488 21.8206 22.048 21.8872 21.9373 21.9325C21.8265 21.9777 21.7079 22.0006 21.5883 22Z" fill="white"/>
<circle cx="11.5163" cy="11.1629" r="7.16287" stroke="url(#paint0_linear_2865_9236)" stroke-width="4"/>
<defs>
<linearGradient id="paint0_linear_2865_9236" x1="2.35345" y1="11.1629" x2="20.6792" y2="11.1629" gradientUnits="userSpaceOnUse">
<stop stop-color="#D51F40"/>
<stop offset="1" stop-color="#F37024"/>
</linearGradient>
</defs>
</svg>
