<svg width="18" height="19" viewBox="0 0 18 19" fill="none" xmlns="http://www.w3.org/2000/svg">
<circle cx="9" cy="9.36133" r="9" fill="#373942" fill-opacity="0.6"/>
<path d="M4.5 4.86133H13.5C13.6326 4.86133 13.7598 4.91401 13.8536 5.00777C13.9473 5.10154 14 5.22872 14 5.36133V13.3613C14 13.4939 13.9473 13.6211 13.8536 13.7149C13.7598 13.8087 13.6326 13.8613 13.5 13.8613H4.5C4.36739 13.8613 4.24021 13.8087 4.14645 13.7149C4.05268 13.6211 4 13.4939 4 13.3613V5.36133C4 5.22872 4.05268 5.10154 4.14645 5.00777C4.24021 4.91401 4.36739 4.86133 4.5 4.86133ZM9.03 9.20283L5.824 6.48033L5.1765 7.24233L9.0365 10.5198L12.827 7.23983L12.173 6.48333L9.0305 9.20283H9.03Z" fill="white"/>
</svg>
