<svg width="18" height="19" viewBox="0 0 18 19" fill="none" xmlns="http://www.w3.org/2000/svg">
<circle cx="9" cy="9.36133" r="9" fill="#373942" fill-opacity="0.6"/>
<path d="M13.9995 6.42973C13.5875 6.61311 13.1506 6.73354 12.7032 6.78704C13.1748 6.50327 13.5277 6.05667 13.6962 5.53046C13.2537 5.79546 12.7685 5.98118 12.2629 6.08164C11.9233 5.71595 11.4731 5.47342 10.9823 5.39176C10.4916 5.3101 9.98775 5.39388 9.5492 5.63008C9.11065 5.86628 8.76193 6.24166 8.55726 6.69787C8.35259 7.15408 8.30344 7.66556 8.41744 8.15278C7.52007 8.10752 6.6422 7.87286 5.84081 7.46403C5.03943 7.0552 4.33244 6.48134 3.76575 5.77971C3.56516 6.12641 3.45975 6.52054 3.46031 6.92172C3.46031 7.70912 3.85857 8.40475 4.46404 8.81203C4.10572 8.80068 3.7553 8.7033 3.44196 8.52802V8.55626C3.44207 9.08067 3.6224 9.58891 3.95238 9.9948C4.28236 10.4007 4.74167 10.6792 5.25245 10.7833C4.91983 10.874 4.57105 10.8873 4.23254 10.8224C4.37655 11.2737 4.65723 11.6685 5.0353 11.9514C5.41336 12.2343 5.86987 12.3911 6.3409 12.3999C5.87276 12.7699 5.33673 13.0434 4.76348 13.2048C4.19022 13.3661 3.59097 13.4122 3 13.3404C4.03163 14.008 5.23254 14.3625 6.45909 14.3613C10.6105 14.3613 12.8808 10.9006 12.8808 7.89918C12.8808 7.80144 12.8781 7.70261 12.8738 7.60594C13.3157 7.28456 13.697 6.88643 14 6.43027L13.9995 6.42973Z" fill="white"/>
</svg>
