<svg width="18" height="18" viewBox="0 0 18 18" fill="none" xmlns="http://www.w3.org/2000/svg">
<path fill-rule="evenodd" clip-rule="evenodd" d="M4.52942 13.9892C5.65037 14.7383 6.96825 15.1382 8.31641 15.1382C10.1242 15.1382 11.858 14.4199 13.1363 13.1412C14.4147 11.8626 15.1328 10.1283 15.1328 8.32003C15.1328 6.97152 14.733 5.65329 13.984 4.53204C13.235 3.4108 12.1705 2.53689 10.9249 2.02084C9.6794 1.50479 8.30885 1.36976 6.9866 1.63284C5.66434 1.89593 4.44977 2.5453 3.49648 3.49884C2.54319 4.45238 1.89399 5.66727 1.63098 6.98987C1.36797 8.31247 1.50295 9.68338 2.01887 10.9292C2.53479 12.1751 3.40846 13.24 4.52942 13.9892ZM5.28682 3.78473C6.18358 3.18538 7.23788 2.86547 8.31641 2.86547C9.76267 2.86547 11.1497 3.44015 12.1724 4.46308C13.195 5.486 13.7695 6.87339 13.7695 8.32003C13.7695 9.39884 13.4497 10.4534 12.8505 11.3504C12.2513 12.2474 11.3997 12.9465 10.4032 13.3594C9.4068 13.7722 8.31036 13.8802 7.25256 13.6698C6.19476 13.4593 5.2231 12.9398 4.46047 12.177C3.69783 11.4141 3.17848 10.4422 2.96807 9.38416C2.75766 8.32608 2.86565 7.22935 3.27838 6.23266C3.69111 5.23597 4.39005 4.38409 5.28682 3.78473ZM15.5528 16.4506C15.6358 16.4845 15.7247 16.5017 15.8145 16.5012C15.9042 16.5017 15.9931 16.4845 16.0761 16.4506C16.1592 16.4167 16.2347 16.3667 16.2984 16.3035C16.3623 16.2401 16.413 16.1648 16.4476 16.0817C16.4822 15.9986 16.5 15.9095 16.5 15.8195C16.5 15.7296 16.4822 15.6405 16.4476 15.5574C16.413 15.4743 16.3623 15.3989 16.2984 15.3356L14.9351 13.9723C14.8068 13.8439 14.6327 13.7718 14.4512 13.7718C14.2697 13.7718 14.0956 13.8439 13.9672 13.9723C13.8389 14.1007 13.7667 14.2747 13.7667 14.4563C13.7667 14.6378 13.8389 14.8119 13.9672 14.9402L15.3305 16.3035C15.3942 16.3667 15.4697 16.4167 15.5528 16.4506Z" fill="#D4D6D8"/>
</svg>
