<svg width="24" height="24" viewBox="0 0 24 24" fill="none" xmlns="http://www.w3.org/2000/svg">
<g filter="url(#filter0_i_11720_33810)">
<path fill-rule="evenodd" clip-rule="evenodd" d="M8.05714 6H12.2264L14.1129 7.88643C14.229 8.00338 14.3671 8.09622 14.5192 8.15961C14.6715 8.22307 14.8349 8.25574 14.9999 8.25574C15.165 8.25574 15.3283 8.22307 15.4807 8.15961C15.6327 8.09628 15.7707 8.00354 15.8867 7.88672C16.0035 7.77067 16.0963 7.63267 16.1596 7.48066C16.2231 7.32834 16.2557 7.16496 16.2557 6.99994C16.2557 6.83493 16.2231 6.67154 16.1596 6.51922C16.1196 6.42321 16.0679 6.33278 16.0057 6.24995C16.5257 6.25104 17.0303 6.39937 17.4636 6.67183C17.7968 7.03739 18 7.52354 18 8.05714V15.9429C18 17.079 17.079 18 15.9429 18H11.7819L9.89115 16.1093C9.77505 15.9924 9.63698 15.8996 9.48487 15.8362C9.33255 15.7727 9.16917 15.7401 9.00415 15.7401C8.83914 15.7401 8.67575 15.7727 8.52343 15.8362C8.37142 15.8995 8.23343 15.9923 8.11737 16.1091C8.00055 16.2251 7.90781 16.3631 7.84449 16.5151C7.78103 16.6675 7.74835 16.8308 7.74835 16.9958C7.74835 17.1609 7.78103 17.3242 7.84449 17.4766C7.88449 17.5726 7.93622 17.663 7.99835 17.7458C7.471 17.7447 6.95949 17.5922 6.52202 17.3123C6.19734 16.9486 6 16.4688 6 15.9429V8.05714C6 6.92101 6.92101 6 8.05714 6ZM11.0747 18H8.95815L8.46912 17.5273C8.39933 17.4578 8.34391 17.3752 8.30603 17.2843C8.26796 17.1929 8.24835 17.0949 8.24835 16.9958C8.24835 16.8968 8.26796 16.7988 8.30603 16.7074C8.34411 16.616 8.3999 16.5331 8.4702 16.4633L8.47165 16.4619C8.54137 16.3916 8.62432 16.3358 8.71572 16.2977C8.80711 16.2597 8.90514 16.2401 9.00415 16.2401C9.10316 16.2401 9.20119 16.2597 9.29258 16.2977C9.38398 16.3358 9.46693 16.3916 9.53665 16.4619L9.53737 16.4626L11.0747 18ZM8.11737 16.1091L8.11665 16.1098L8.29415 16.2858L8.1181 16.1083L8.11737 16.1091ZM15.0503 6H12.9336L14.4674 7.53389C14.5372 7.60419 14.6201 7.65998 14.7115 7.69806C14.8029 7.73614 14.9009 7.75574 14.9999 7.75574C15.0989 7.75574 15.197 7.73614 15.2884 7.69806C15.3798 7.65998 15.4627 7.60419 15.5324 7.53389L15.5339 7.53244C15.6042 7.46271 15.66 7.37977 15.6981 7.28837C15.7361 7.19698 15.7557 7.09895 15.7557 6.99994C15.7557 6.90093 15.7361 6.8029 15.6981 6.71151C15.6602 6.62057 15.6047 6.538 15.535 6.4685L15.0503 6Z" fill="#D02B20"/>
</g>
<g filter="url(#filter1_d_11720_33810)">
<path d="M12.5397 16C11.9536 16 11.412 15.9042 10.9149 15.7127C10.4253 15.5138 9.99868 15.2376 9.63514 14.884C9.2716 14.523 8.98967 14.0994 8.78935 13.6133C8.59645 13.1197 8.5 12.5783 8.5 11.9889C8.5 11.4144 8.60387 10.884 8.81161 10.3978C9.01934 9.9116 9.30498 9.49171 9.66852 9.13812C10.0395 8.77716 10.4735 8.49724 10.9706 8.29834C11.4751 8.09945 12.0241 8 12.6176 8C12.9886 8 13.3521 8.04788 13.7083 8.14365C14.0644 8.23941 14.3945 8.38306 14.6987 8.57459C15.0103 8.75875 15.2774 8.97974 15.5 9.23757L14.3426 10.5525C14.1868 10.3904 14.0199 10.2505 13.8418 10.1326C13.6712 10.0074 13.482 9.9116 13.2742 9.8453C13.0665 9.779 12.8439 9.74586 12.6065 9.74586C12.3098 9.74586 12.0278 9.8011 11.7607 9.9116C11.5011 10.0147 11.2711 10.1657 11.0707 10.3646C10.8778 10.5562 10.7258 10.7919 10.6145 11.0718C10.5032 11.3517 10.4475 11.6648 10.4475 12.011C10.4475 12.3499 10.5032 12.6593 10.6145 12.9392C10.7258 13.2118 10.8816 13.4475 11.0819 13.6464C11.2822 13.8453 11.5233 13.9963 11.8052 14.0994C12.0946 14.2026 12.4136 14.2541 12.7623 14.2541C12.9997 14.2541 13.226 14.221 13.4412 14.1547C13.6563 14.0884 13.8529 14 14.031 13.8895C14.2165 13.7716 14.3797 13.639 14.5207 13.4917L15.4332 14.9282C15.2477 15.1344 14.9992 15.3186 14.6876 15.4807C14.3834 15.6427 14.0421 15.7716 13.6638 15.8674C13.2928 15.9558 12.9181 16 12.5397 16Z" fill="#D4D6D8"/>
</g>
<path d="M8.00415 19.9958H8.59415L8.29415 20.2858C8.20091 20.3791 8.12695 20.4898 8.07649 20.6116C8.02603 20.7334 8.00006 20.864 8.00006 20.9958C8.00006 21.1277 8.02603 21.2583 8.07649 21.3801C8.12695 21.5019 8.20091 21.6126 8.29415 21.7058C8.38739 21.7991 8.49808 21.873 8.6199 21.9235C8.74172 21.974 8.87229 21.9999 9.00415 21.9999C9.27045 21.9999 9.52585 21.8942 9.71415 21.7058L11.7142 19.7058C11.8079 19.6129 11.8823 19.5023 11.933 19.3804C11.9838 19.2586 12.0099 19.1279 12.0099 18.9958C12.0099 18.8638 11.9838 18.7331 11.933 18.6113C11.8823 18.4894 11.8079 18.3788 11.7142 18.2858L9.71415 16.2858C9.62119 16.1921 9.51059 16.1177 9.38873 16.067C9.26687 16.0162 9.13616 15.9901 9.00415 15.9901C8.87214 15.9901 8.74143 16.0162 8.61957 16.067C8.49771 16.1177 8.38711 16.1921 8.29415 16.2858C8.20042 16.3788 8.12603 16.4894 8.07526 16.6113C8.02449 16.7331 7.99835 16.8638 7.99835 16.9958C7.99835 17.1279 8.02449 17.2586 8.07526 17.3804C8.12603 17.5023 8.20042 17.6129 8.29415 17.7058L8.59415 17.9958H8.00415C7.2085 17.9958 6.44544 17.6798 5.88283 17.1172C5.32022 16.5546 5.00415 15.7915 5.00415 14.9958V12.9958C5.00415 12.7306 4.89879 12.4763 4.71126 12.2887C4.52372 12.1012 4.26937 11.9958 4.00415 11.9958C3.73893 11.9958 3.48458 12.1012 3.29704 12.2887C3.10951 12.4763 3.00415 12.7306 3.00415 12.9958V14.9958C3.00415 16.3219 3.53093 17.5937 4.46862 18.5314C5.4063 19.4691 6.67807 19.9958 8.00415 19.9958Z" fill="#D4D6D8"/>
<path d="M15.9999 3.99994H15.4099L15.7099 3.70994C15.8032 3.6167 15.8771 3.50601 15.9276 3.38419C15.9781 3.26237 16.004 3.1318 16.004 2.99994C16.004 2.86808 15.9781 2.73751 15.9276 2.61569C15.8771 2.49387 15.8032 2.38318 15.7099 2.28994C15.6167 2.1967 15.506 2.12274 15.3842 2.07228C15.2624 2.02182 15.1318 1.99585 14.9999 1.99585C14.7336 1.99585 14.4782 2.10164 14.2899 2.28994L12.2899 4.28994C12.1962 4.3829 12.1218 4.49351 12.071 4.61536C12.0203 4.73722 11.9941 4.86793 11.9941 4.99994C11.9941 5.13195 12.0203 5.26266 12.071 5.38452C12.1218 5.50638 12.1962 5.61698 12.2899 5.70994L14.2899 7.70994C14.3829 7.80367 14.4935 7.87806 14.6154 7.92883C14.7372 7.9796 14.8679 8.00574 14.9999 8.00574C15.132 8.00574 15.2627 7.9796 15.3845 7.92883C15.5064 7.87806 15.617 7.80367 15.7099 7.70994C15.8037 7.61698 15.8781 7.50638 15.9288 7.38452C15.9796 7.26266 16.0057 7.13195 16.0057 6.99994C16.0057 6.86793 15.9796 6.73722 15.9288 6.61536C15.8781 6.49351 15.8037 6.3829 15.7099 6.28994L15.4099 5.99994H15.9999C16.7956 5.99994 17.5587 6.31601 18.1213 6.87862C18.6839 7.44123 18.9999 8.20429 18.9999 8.99994V10.9999C18.9999 11.2652 19.1053 11.5195 19.2928 11.707C19.4804 11.8946 19.7347 11.9999 19.9999 11.9999C20.2652 11.9999 20.5195 11.8946 20.707 11.707C20.8946 11.5195 20.9999 11.2652 20.9999 10.9999V8.99994C20.9999 7.67386 20.4732 6.40209 19.5355 5.46441C18.5978 4.52673 17.326 3.99994 15.9999 3.99994Z" fill="#D4D6D8"/>
<defs>
<filter id="filter0_i_11720_33810" x="6" y="6" width="12.3" height="12.3" filterUnits="userSpaceOnUse" color-interpolation-filters="sRGB">
<feFlood flood-opacity="0" result="BackgroundImageFix"/>
<feBlend mode="normal" in="SourceGraphic" in2="BackgroundImageFix" result="shape"/>
<feColorMatrix in="SourceAlpha" type="matrix" values="0 0 0 0 0 0 0 0 0 0 0 0 0 0 0 0 0 0 127 0" result="hardAlpha"/>
<feOffset dx="0.3" dy="0.3"/>
<feGaussianBlur stdDeviation="0.3"/>
<feComposite in2="hardAlpha" operator="arithmetic" k2="-1" k3="1"/>
<feColorMatrix type="matrix" values="0 0 0 0 0 0 0 0 0 0 0 0 0 0 0 0 0 0 0.12 0"/>
<feBlend mode="normal" in2="shape" result="effect1_innerShadow_11720_33810"/>
</filter>
<filter id="filter1_d_11720_33810" x="8.5" y="8" width="7.12" height="8.24" filterUnits="userSpaceOnUse" color-interpolation-filters="sRGB">
<feFlood flood-opacity="0" result="BackgroundImageFix"/>
<feColorMatrix in="SourceAlpha" type="matrix" values="0 0 0 0 0 0 0 0 0 0 0 0 0 0 0 0 0 0 127 0" result="hardAlpha"/>
<feOffset dx="0.12" dy="0.24"/>
<feComposite in2="hardAlpha" operator="out"/>
<feColorMatrix type="matrix" values="0 0 0 0 0 0 0 0 0 0 0 0 0 0 0 0 0 0 0.25 0"/>
<feBlend mode="normal" in2="BackgroundImageFix" result="effect1_dropShadow_11720_33810"/>
<feBlend mode="normal" in="SourceGraphic" in2="effect1_dropShadow_11720_33810" result="shape"/>
</filter>
</defs>
</svg>
