<svg width="25" height="24" viewBox="0 0 25 24" fill="none" xmlns="http://www.w3.org/2000/svg">
<path d="M13.4087 12.9158C14.9275 12.9158 16.1587 14.147 16.1587 15.6658L16.1572 17.0377C16.3458 20.4047 13.7526 22.0838 8.94355 22.0838C4.15007 22.0838 1.5 20.4267 1.5 17.0858V15.6658C1.5 14.147 2.73119 12.9158 4.24995 12.9158H13.4087ZM20.743 12.9158C22.2618 12.9158 23.493 14.147 23.493 15.6658L23.4916 16.6311C23.6573 19.6514 21.366 21.1657 17.1776 21.1657C16.6091 21.1657 16.0746 21.138 15.5754 21.0825C16.1083 20.5924 16.5052 20.0072 16.7582 19.3275L17.1776 19.3324C20.4486 19.3324 21.7564 18.4682 21.6597 16.6814V15.6658C21.6597 15.1595 21.2493 14.7491 20.743 14.7491L16.9598 14.7491C16.7742 14.028 16.3748 13.3928 15.8332 12.9151L20.743 12.9158ZM13.4087 14.7491H4.24995C3.7437 14.7491 3.3333 15.1595 3.3333 15.6658V17.0858C3.3333 19.1867 5.0345 20.2505 8.94355 20.2505C12.8371 20.2505 14.4428 19.2108 14.3254 17.089V15.6658C14.3254 15.1595 13.915 14.7491 13.4087 14.7491ZM8.8332 1.91602C11.3649 1.91602 13.4172 3.96834 13.4172 6.50001C13.4172 9.03167 11.3649 11.084 8.8332 11.084C6.30153 11.084 4.24921 9.03167 4.24921 6.50001C4.24921 3.96834 6.30153 1.91602 8.8332 1.91602ZM17.9997 3.74931C20.0247 3.74931 21.6663 5.39091 21.6663 7.41591C21.6663 9.44092 20.0247 11.0825 17.9997 11.0825C15.9747 11.0825 14.3331 9.44092 14.3331 7.41591C14.3331 5.39091 15.9747 3.74931 17.9997 3.74931ZM8.8332 3.74931C7.31403 3.74931 6.08251 4.98084 6.08251 6.50001C6.08251 8.01917 7.31403 9.2507 8.8332 9.2507C10.3524 9.2507 11.5839 8.01917 11.5839 6.50001C11.5839 4.98084 10.3524 3.74931 8.8332 3.74931ZM17.9997 5.58261C16.9872 5.58261 16.1664 6.40341 16.1664 7.41591C16.1664 8.42842 16.9872 9.24921 17.9997 9.24921C19.0122 9.24921 19.833 8.42842 19.833 7.41591C19.833 6.40341 19.0122 5.58261 17.9997 5.58261Z" fill="#94989E"/>
</svg>
