<svg width="20" height="22" viewBox="0 0 20 22" fill="none" xmlns="http://www.w3.org/2000/svg">
<path d="M19.7206 9.45332V5.66665C17.9473 5.66665 16.594 5.19332 15.7206 4.27332C14.8243 3.22335 14.3221 1.89369 14.3006 0.513321V0.239987L10.7206 0.15332C10.7206 0.15332 10.7206 0.306654 10.7206 0.513321V15.5333C10.5978 16.2044 10.2721 16.8216 9.78739 17.3016C9.3027 17.7817 8.68238 18.1014 8.01019 18.2178C7.338 18.3341 6.6463 18.2414 6.02846 17.9522C5.41063 17.6629 4.89642 17.1911 4.55524 16.6003C4.21407 16.0096 4.06235 15.3284 4.12059 14.6487C4.17883 13.969 4.4442 13.3236 4.8809 12.7995C5.31759 12.2754 5.90458 11.8979 6.56261 11.718C7.22064 11.538 7.91803 11.5643 8.56063 11.7933V8.12666C8.18596 8.06526 7.80697 8.03405 7.4273 8.03332C6.06129 8.03332 4.72596 8.43839 3.59016 9.1973C2.45437 9.95622 1.56912 11.0349 1.04637 12.2969C0.523622 13.559 0.386847 14.9476 0.653343 16.2874C0.919838 17.6272 1.57763 18.8578 2.54355 19.8237C3.50946 20.7897 4.74011 21.4475 6.07988 21.7139C7.41964 21.9804 8.80834 21.8437 10.0704 21.3209C11.3324 20.7982 12.4111 19.9129 13.17 18.7771C13.9289 17.6413 14.334 16.306 14.334 14.94C14.3332 14.657 14.3154 14.3742 14.2806 14.0933V7.99332C15.9085 9.00995 17.8025 9.51826 19.7206 9.45332Z" fill="white"/>
</svg>
