<svg width="18" height="18" viewBox="0 0 18 18" fill="none" xmlns="http://www.w3.org/2000/svg">
<path d="M9.68154 9.68698C10.8206 9.68698 11.744 10.6104 11.744 11.7494L11.7429 12.7784C11.8844 15.3036 9.93942 16.563 6.33266 16.563C2.73755 16.563 0.75 15.3201 0.75 12.8145V11.7494C0.75 10.6104 1.6734 9.68698 2.81246 9.68698H9.68154ZM15.1823 9.68698C16.3213 9.68698 17.2447 10.6104 17.2447 11.7494L17.2437 12.4735C17.368 14.7387 15.6495 15.8744 12.5082 15.8744C12.0818 15.8744 11.6809 15.8536 11.3066 15.812C11.7062 15.4444 12.0039 15.0055 12.1936 14.4958L12.5082 14.4994C14.9615 14.4994 15.9423 13.8512 15.8698 12.5111V11.7494C15.8698 11.3698 15.562 11.062 15.1823 11.062L12.3448 11.0619C12.2057 10.5211 11.9061 10.0447 11.4999 9.68641L15.1823 9.68698ZM9.68154 11.062H2.81246C2.43277 11.062 2.12497 11.3698 2.12497 11.7494V12.8145C2.12497 14.3902 3.40087 15.188 6.33266 15.188C9.25281 15.188 10.4571 14.4082 10.369 12.8169V11.7494C10.369 11.3698 10.0612 11.062 9.68154 11.062ZM6.2499 1.43713C8.14865 1.43713 9.68789 2.97638 9.68789 4.87513C9.68789 6.77388 8.14865 8.31312 6.2499 8.31312C4.35115 8.31312 2.8119 6.77388 2.8119 4.87513C2.8119 2.97638 4.35115 1.43713 6.2499 1.43713ZM13.1248 2.81211C14.6435 2.81211 15.8747 4.0433 15.8747 5.56206C15.8747 7.08081 14.6435 8.312 13.1248 8.312C11.606 8.312 10.3748 7.08081 10.3748 5.56206C10.3748 4.0433 11.606 2.81211 13.1248 2.81211ZM6.2499 2.81211C5.11052 2.81211 4.18688 3.73575 4.18688 4.87513C4.18688 6.0145 5.11052 6.93814 6.2499 6.93814C7.38927 6.93814 8.31292 6.0145 8.31292 4.87513C8.31292 3.73575 7.38927 2.81211 6.2499 2.81211ZM13.1248 4.18708C12.3654 4.18708 11.7498 4.80268 11.7498 5.56206C11.7498 6.32143 12.3654 6.93703 13.1248 6.93703C13.8841 6.93703 14.4997 6.32143 14.4997 5.56206C14.4997 4.80268 13.8841 4.18708 13.1248 4.18708Z" fill="#D4D6D8"/>
</svg>
