<svg width="25" height="24" viewBox="0 0 25 24" fill="none" xmlns="http://www.w3.org/2000/svg">
<path d="M23.2796 18.708L19.6031 15.0315L19.6524 14.9822L21.1021 13.5325C21.4043 13.2303 21.4043 12.7429 21.1021 12.4407C20.7998 12.1384 20.3125 12.1384 20.0102 12.4407L19.1034 13.3475L16.7594 11.0034L20.5099 7.25288C20.6086 7.15419 20.6764 7.03081 20.7134 6.8951L21.7683 2.67578C21.8361 2.41052 21.7559 2.13294 21.5647 1.94171C21.3735 1.75048 21.0959 1.67029 20.8306 1.73815L16.6113 2.79298C16.4756 2.82382 16.3522 2.89784 16.2535 2.99654L9.33853 9.91155L5.74223 6.31525L5.05134 3.55172L7.81488 4.2426L10.3563 6.78407L11.4482 5.69223L8.75868 3.00271C8.65998 2.90401 8.53661 2.83616 8.4009 2.79915L4.1754 1.74432C3.91015 1.67646 3.63256 1.75665 3.44134 1.94788C3.25011 2.13911 3.16992 2.41669 3.23777 2.68194L4.2926 6.90127C4.32345 7.03698 4.39747 7.16035 4.49617 7.25905L8.24668 11.0096L5.90261 13.3536L4.99583 12.4469C4.69356 12.1446 4.20624 12.1446 3.90398 12.4469C3.60172 12.7491 3.60172 13.2364 3.90398 13.5387L5.35361 14.9883L5.40295 15.0377L1.72646 18.7142C1.4057 19.0349 1.22681 19.4606 1.22681 19.9109C1.22681 20.3612 1.4057 20.793 1.72646 21.1076L2.39267 21.7738C2.72578 22.1069 3.15758 22.2673 3.58938 22.2673C4.02119 22.2673 4.45916 22.1007 4.78609 21.7738L8.46258 18.0973L8.51193 18.1466L9.96156 19.5963C10.1096 19.7443 10.307 19.8245 10.5044 19.8245C10.7018 19.8245 10.8992 19.7505 11.0472 19.5963C11.3495 19.294 11.3495 18.8067 11.0472 18.5044L10.159 17.6038L15.6675 12.0952L18.0116 14.4393L16.9753 15.4756L15.9389 16.512L14.6497 15.2227L13.564 16.3146L14.8533 17.6038L13.9465 18.5106C13.6442 18.8129 13.6442 19.3002 13.9465 19.6024C14.0945 19.7505 14.2919 19.8307 14.4893 19.8307C14.6867 19.8307 14.8841 19.7567 15.0322 19.6024L16.3399 18.2947C16.4016 18.2577 16.4571 18.2207 16.5003 18.1775C16.5003 18.1775 16.5188 18.159 16.5435 18.1281L20.2076 21.7923C20.5407 22.1254 20.9725 22.2858 21.4043 22.2858C21.8361 22.2858 22.2741 22.1192 22.601 21.7923L23.2672 21.1261C23.9396 20.4475 23.9396 19.3742 23.2796 18.708ZM5.06985 17.5483L5.95813 18.4366L5.07602 19.3187L4.18774 18.4304L5.06985 17.5483ZM3.48452 20.6881L2.81831 20.0219C2.7813 19.9849 2.77513 19.9417 2.77513 19.9109C2.77513 19.88 2.7813 19.8368 2.81831 19.7998L3.75594 18.8622L4.64422 19.7505L3.70659 20.6881C3.6449 20.7498 3.5462 20.7498 3.48452 20.6881ZM6.3961 17.9986L5.50782 17.1103L6.4948 16.1233L7.38308 17.0116L6.3961 17.9986ZM17.1912 4.2426L19.9547 3.55172L19.2638 6.31525L9.06711 16.512L6.99445 14.4393L17.1912 4.2426ZM20.8183 18.4304L19.93 19.3187L19.0479 18.4366L19.9362 17.5483L20.8183 18.4304ZM18.5112 16.1233L19.4982 17.1103L18.6099 17.9986L17.623 17.0116L18.5112 16.1233ZM22.1877 20.0219L21.5215 20.6881C21.4598 20.7498 21.3611 20.7498 21.3056 20.6881L20.368 19.7505L21.2563 18.8622L22.1939 19.7998C22.2494 19.8615 22.2494 19.9602 22.1877 20.0219Z" fill="url(#paint0_linear_4111_12266)"/>
<defs>
<linearGradient id="paint0_linear_4111_12266" x1="1.22681" y1="12.0001" x2="23.7731" y2="12.0001" gradientUnits="userSpaceOnUse">
<stop stop-color="#D51F40"/>
<stop offset="1" stop-color="#F37024"/>
</linearGradient>
</defs>
</svg>
