<svg width="25" height="24" viewBox="0 0 25 24" fill="none" xmlns="http://www.w3.org/2000/svg">
<path d="M13.4087 12.9158C14.9275 12.9158 16.1587 14.147 16.1587 15.6658L16.1572 17.0377C16.3458 20.4047 13.7526 22.0838 8.94355 22.0838C4.15007 22.0838 1.5 20.4267 1.5 17.0858V15.6658C1.5 14.147 2.73119 12.9158 4.24995 12.9158H13.4087ZM20.743 12.9158C22.2618 12.9158 23.493 14.147 23.493 15.6658L23.4916 16.6311C23.6573 19.6514 21.366 21.1657 17.1776 21.1657C16.6091 21.1657 16.0746 21.138 15.5754 21.0825C16.5594 20.1739 17.0857 18.9409 17.0839 17.3828L17.0725 16.9865L17.0753 15.6658C17.0753 14.5702 16.5949 13.5869 15.8332 12.9151L20.743 12.9158ZM8.8332 1.91602C11.3649 1.91602 13.4172 3.96834 13.4172 6.50001C13.4172 9.03167 11.3649 11.084 8.8332 11.084C6.30153 11.084 4.24921 9.03167 4.24921 6.50001C4.24921 3.96834 6.30153 1.91602 8.8332 1.91602ZM17.9997 3.74931C20.0247 3.74931 21.6663 5.39091 21.6663 7.41591C21.6663 9.44092 20.0247 11.0825 17.9997 11.0825C15.9747 11.0825 14.3331 9.44092 14.3331 7.41591C14.3331 5.39091 15.9747 3.74931 17.9997 3.74931Z" fill="url(#paint0_linear_2838_8681)"/>
<path d="M23.4916 16.6172L23.493 15.6518C23.3736 13.4634 21.5519 12.9039 20.743 12.9019L15.8331 12.9011C16.4251 13.4821 16.6769 13.8746 16.9598 14.7351L20.743 14.7352C21.2493 14.7352 21.6597 15.1456 21.6597 15.6518V16.6674C21.7563 18.4542 20.4486 19.3184 17.1776 19.3184L16.7581 19.3136C16.4103 20.189 16.1141 20.5119 15.5744 21.0797C16.2276 21.1338 16.5767 21.1597 17.1776 21.1608C21.3659 21.1608 23.6573 19.6375 23.4916 16.6172Z" fill="white"/>
<defs>
<linearGradient id="paint0_linear_2838_8681" x1="1.5" y1="12" x2="23.5" y2="12" gradientUnits="userSpaceOnUse">
<stop stop-color="#D51F40"/>
<stop offset="1" stop-color="#F37024"/>
</linearGradient>
</defs>
</svg>
