<svg width="25" height="24" viewBox="0 0 25 24" fill="none" xmlns="http://www.w3.org/2000/svg">
<path d="M23.2922 4.2309C23.2242 4.14707 23.1384 4.07933 23.0411 4.03258C22.9438 3.98582 22.8374 3.9612 22.7294 3.96049H20.4273L20.5369 1.8045C20.5414 1.70517 20.5255 1.60598 20.4903 1.51298C20.4552 1.41999 20.4014 1.33516 20.3323 1.26367C20.2643 1.19241 20.1827 1.13561 20.0923 1.09668C20.0019 1.05775 19.9045 1.03749 19.806 1.03711H5.18915C5.0907 1.03749 4.99334 1.05775 4.90292 1.09668C4.81249 1.13561 4.73087 1.19241 4.66294 1.26367C4.59383 1.33516 4.54004 1.41999 4.50486 1.51298C4.46967 1.60598 4.45383 1.70517 4.4583 1.8045L4.56793 3.99703H2.26577C2.15782 3.99775 2.05136 4.02237 1.95406 4.06912C1.85676 4.11588 1.77102 4.18361 1.70302 4.26745C1.63663 4.34539 1.58736 4.43641 1.55841 4.53462C1.52945 4.63282 1.52145 4.73601 1.53492 4.8375L2.77736 10.9693C2.87696 11.4659 3.14542 11.9127 3.53711 12.2337C3.9288 12.5548 4.41957 12.7304 4.92604 12.7306H5.5838C6.03989 13.7025 6.6963 14.5669 7.50996 15.2672C8.32362 15.9675 9.27615 16.4878 10.3051 16.7941V18.5774H9.57422C9.40727 18.5725 9.24369 18.625 9.11071 18.7261C8.97774 18.8271 8.88339 18.9707 8.84337 19.1328L8.11253 22.0562C8.08515 22.1641 8.08278 22.2768 8.10558 22.3857C8.12837 22.4946 8.17575 22.5969 8.24408 22.6847C8.31516 22.7748 8.40645 22.8469 8.51056 22.8952C8.61468 22.9434 8.72869 22.9665 8.84337 22.9625H16.1518C16.2628 22.9631 16.3725 22.9384 16.4726 22.8902C16.5726 22.8421 16.6604 22.7718 16.7292 22.6847C16.7975 22.5969 16.8449 22.4946 16.8677 22.3857C16.8905 22.2768 16.8881 22.1641 16.8607 22.0562L16.1299 19.1328C16.0907 18.9744 15.9996 18.8336 15.8712 18.7329C15.7427 18.6323 15.5842 18.5775 15.421 18.5774H14.6901V16.7941C15.719 16.4878 16.6716 15.9675 17.4852 15.2672C18.2989 14.5669 18.9553 13.7025 19.4114 12.7306H20.0692C20.5756 12.7304 21.0664 12.5548 21.4581 12.2337C21.8498 11.9127 22.1182 11.4659 22.2178 10.9693L23.4603 4.8375C23.4792 4.73026 23.474 4.62013 23.4449 4.51518C23.4158 4.41023 23.3636 4.3131 23.2922 4.2309ZM4.92604 11.2689C4.75506 11.2724 4.58829 11.2158 4.45475 11.1089C4.32121 11.0021 4.22936 10.8518 4.1952 10.6843L3.1574 5.42218H4.61909L4.83834 9.8511C4.87218 10.3294 4.948 10.8039 5.0649 11.2689H4.92604ZM15.2163 21.5008H9.77885L10.1443 20.0391H14.8509L15.2163 21.5008ZM13.2284 18.5774H11.7668V17.1157C12.0079 17.1157 12.2491 17.1522 12.4976 17.1522C12.7461 17.1522 12.9873 17.1522 13.2284 17.1157V18.5774ZM12.4976 15.654C10.9157 15.6545 9.39371 15.0486 8.24494 13.961C7.09617 12.8734 6.40797 11.3868 6.32196 9.80725L5.95653 2.4988H19.0752L18.7098 9.80725C18.6235 11.3932 17.9301 12.8851 16.7735 13.9736C15.617 15.0622 14.0858 15.6639 12.4976 15.654ZM20.7854 10.6843C20.7512 10.8518 20.6594 11.0021 20.5258 11.1089C20.3923 11.2158 20.2255 11.2724 20.0545 11.2689H19.9157C20.0252 10.8032 20.0937 10.3288 20.1203 9.8511L20.3542 5.42218H21.8159L20.7854 10.6843Z" fill="url(#paint0_linear_4367_13011)"/>
<defs>
<linearGradient id="paint0_linear_4367_13011" x1="1.52856" y1="12.0001" x2="23.4714" y2="12.0001" gradientUnits="userSpaceOnUse">
<stop stop-color="#D51F40"/>
<stop offset="1" stop-color="#F37024"/>
</linearGradient>
</defs>
</svg>
