<svg width="24" height="24" viewBox="0 0 24 24" fill="none" xmlns="http://www.w3.org/2000/svg">
<circle opacity="0.2" cx="12" cy="12" r="10.5" fill="#F68F54"/>
<path d="M20.1753 17.2581C20.3441 17.389 20.4542 17.5815 20.4814 17.7934C20.5086 18.0054 20.4508 18.2195 20.3206 18.3888C19.2352 19.8054 17.8069 20.9216 16.1705 21.6322C14.5341 22.3427 12.7437 22.6241 10.9684 22.4498C9.19314 22.2755 7.49157 21.6511 6.02445 20.6358C4.55734 19.6205 3.37311 18.2477 2.58363 16.647C1.79416 15.0464 1.4255 13.2708 1.51248 11.488C1.59947 9.70516 2.13922 7.97395 3.08075 6.45789C4.02229 4.94182 5.33452 3.69096 6.8935 2.82347C8.45248 1.95597 10.2067 1.50047 11.9905 1.5C12.2046 1.5 12.4099 1.5851 12.5613 1.73657C12.7127 1.88804 12.7977 2.09348 12.7977 2.30769C12.7977 2.52191 12.7127 2.72734 12.5613 2.87882C12.4099 3.03029 12.2046 3.11538 11.9905 3.11538C10.4809 3.11514 8.99606 3.50008 7.67643 4.23383C6.3568 4.96757 5.24594 6.0259 4.4488 7.30878C3.65167 8.59167 3.1946 10.0568 3.12079 11.5656C3.04697 13.0744 3.35885 14.5772 4.02695 15.9318C4.69504 17.2865 5.6973 18.4483 6.939 19.3075C8.18069 20.1667 9.62083 20.695 11.1233 20.8423C12.6258 20.9896 14.141 20.7511 15.5257 20.1494C16.9105 19.5477 18.119 18.6026 19.0372 17.4035C19.1021 17.3187 19.1831 17.2476 19.2755 17.1943C19.368 17.1411 19.4701 17.1067 19.576 17.0932C19.6818 17.0797 19.7893 17.0873 19.8921 17.1156C19.995 17.1439 20.0913 17.1923 20.1753 17.2581ZM19.8928 7.19423C20.0602 7.1955 20.2238 7.1447 20.361 7.04885C20.4476 6.98702 20.5212 6.90865 20.5775 6.81825C20.6338 6.72785 20.6717 6.62721 20.6889 6.52211C20.7062 6.41701 20.7025 6.30954 20.6781 6.20587C20.6536 6.10221 20.609 6.0044 20.5466 5.91808C20.4662 5.80511 20.3581 5.71475 20.2327 5.65571C20.1073 5.59667 19.9688 5.57093 19.8306 5.58098C19.6924 5.59102 19.5591 5.63652 19.4435 5.71307C19.328 5.78963 19.234 5.89467 19.1708 6.01808C19.1076 6.14148 19.0772 6.2791 19.0825 6.41768C19.0879 6.55626 19.1288 6.69113 19.2013 6.8093C19.2739 6.92746 19.3756 7.02495 19.4967 7.09237C19.6178 7.15979 19.7542 7.19487 19.8928 7.19423V7.19423ZM17.7457 5.00538C17.8836 5.00503 18.0192 4.96931 18.1394 4.90164C18.2596 4.83397 18.3605 4.73661 18.4324 4.61884C18.5043 4.50108 18.5449 4.36683 18.5502 4.22892C18.5555 4.09101 18.5255 3.95404 18.4629 3.83106C18.4002 3.70809 18.3072 3.60322 18.1926 3.52646C18.0779 3.44969 17.9456 3.4036 17.8081 3.39258C17.6706 3.38156 17.5326 3.40597 17.4072 3.46349C17.2818 3.52101 17.1733 3.60972 17.0919 3.72115C17.0039 3.84172 16.9509 3.98434 16.939 4.13319C16.9271 4.28204 16.9567 4.43127 17.0244 4.56433C17.0921 4.69738 17.1954 4.80904 17.3227 4.8869C17.4501 4.96476 17.5965 5.00577 17.7457 5.00538V5.00538ZM20.474 9.375C20.5273 9.54519 20.6353 9.69295 20.7814 9.79522C20.9274 9.8975 21.1031 9.94854 21.2812 9.94038C21.3587 9.95277 21.4377 9.95277 21.5152 9.94038C21.6678 9.8933 21.803 9.80199 21.9037 9.678C22.0045 9.55401 22.0662 9.40292 22.081 9.24383C22.0959 9.08475 22.0633 8.92482 21.9873 8.78429C21.9114 8.64375 21.7955 8.52892 21.6543 8.45431C21.5131 8.37971 21.3529 8.34869 21.1941 8.36518C21.0353 8.38166 20.8849 8.44492 20.762 8.54694C20.6391 8.64895 20.5492 8.78515 20.5037 8.9383C20.4582 9.09145 20.4591 9.25467 20.5063 9.40731L20.474 9.375ZM21.4103 14.4231C21.3102 14.3873 21.2039 14.3716 21.0977 14.377C20.9915 14.3824 20.8874 14.4087 20.7914 14.4545C20.6954 14.5003 20.6093 14.5646 20.5382 14.6438C20.4671 14.7229 20.4124 14.8154 20.3771 14.9158C20.3065 15.1182 20.3191 15.3404 20.4122 15.5335C20.5053 15.7267 20.6712 15.8749 20.8735 15.9456C21.0758 16.0163 21.2979 16.0036 21.4909 15.9105C21.6839 15.8173 21.832 15.6513 21.9027 15.4488C21.9725 15.2475 21.9599 15.0266 21.8677 14.8345C21.7754 14.6423 21.611 14.4944 21.4103 14.4231V14.4231ZM21.6928 11.3538C21.4787 11.3538 21.2734 11.4389 21.1221 11.5904C20.9707 11.7419 20.8856 11.9473 20.8856 12.1615C20.8856 12.3758 20.9707 12.5812 21.1221 12.7327C21.2734 12.8841 21.4787 12.9692 21.6928 12.9692C21.9069 12.9692 22.1122 12.8841 22.2636 12.7327C22.415 12.5812 22.5 12.3758 22.5 12.1615C22.5 11.9473 22.415 11.7419 22.2636 11.5904C22.1122 11.4389 21.9069 11.3538 21.6928 11.3538ZM15.0255 3.6C15.1724 3.59269 15.3145 3.54536 15.4365 3.46311C15.5585 3.38087 15.6557 3.26684 15.7176 3.13335C15.7795 2.99986 15.8038 2.85197 15.7879 2.70566C15.7719 2.55936 15.7163 2.4202 15.6271 2.30322C15.5378 2.18623 15.4183 2.09587 15.2815 2.0419C15.1447 1.98792 14.9957 1.97238 14.8507 1.99695C14.7057 2.02152 14.5701 2.08528 14.4587 2.18132C14.3472 2.27737 14.2641 2.40206 14.2184 2.54192C14.1776 2.66643 14.1677 2.79899 14.1896 2.92816C14.2115 3.05734 14.2644 3.17925 14.3438 3.28339C14.4233 3.38753 14.5269 3.47077 14.6456 3.52593C14.7644 3.58108 14.8948 3.60651 15.0255 3.6V3.6ZM12.7977 5.86961C12.7977 5.6554 12.7127 5.44996 12.5613 5.29849C12.4099 5.14702 12.2046 5.06192 11.9905 5.06192C11.7765 5.06192 11.5712 5.14702 11.4198 5.29849C11.2684 5.44996 11.1834 5.6554 11.1834 5.86961L11.1834 12C11.184 12.167 11.2364 12.3296 11.3332 12.4656C11.4301 12.6015 11.5667 12.7041 11.7242 12.7592L16.0264 14.2696C16.1119 14.3007 16.2019 14.317 16.2928 14.3181C16.486 14.3216 16.6741 14.2556 16.8229 14.1322C16.9716 14.0087 17.0712 13.836 17.1034 13.6453C17.1356 13.4546 17.0985 13.2587 16.9986 13.0931C16.8987 12.9276 16.7428 12.8034 16.5592 12.7431L12.7977 11.4265L12.7977 5.86961Z" fill="#F68F54"/>
</svg>
