<svg width="19" height="12" viewBox="0 0 19 12" fill="none" xmlns="http://www.w3.org/2000/svg">
<path d="M17.6936 1.87364C17.4977 1.13727 16.9183 0.556364 16.1811 0.357273C14.8481 1.30047e-07 9.49995 0 9.49995 0C9.49995 0 4.1545 1.30047e-07 2.81882 0.357273C2.08433 0.553636 1.5049 1.13455 1.30631 1.87364C0.949951 3.21 0.949951 6 0.949951 6C0.949951 6 0.949951 8.79 1.30631 10.1264C1.50218 10.8627 2.08161 11.4436 2.81882 11.6427C4.1545 12 9.49995 12 9.49995 12C9.49995 12 14.8481 12 16.1811 11.6427C16.9156 11.4464 17.495 10.8655 17.6936 10.1264C18.05 8.79 18.05 6 18.05 6C18.05 6 18.05 3.21 17.6936 1.87364Z" fill="#FF3000"/>
<path d="M7.79158 8.57182L12.2339 6L7.79158 3.42818V8.57182Z" fill="white"/>
</svg>
