<svg width="25" height="18" viewBox="0 0 25 18" fill="none" xmlns="http://www.w3.org/2000/svg">
<path d="M23.7038 3.18845C23.4252 2.15352 22.6092 1.33751 21.5742 1.05888C19.6835 0.541412 12.1205 0.541412 12.1205 0.541412C12.1205 0.541412 4.55755 0.541412 2.66681 1.03898C1.65178 1.31761 0.815873 2.15352 0.537237 3.18845C0.0396729 5.0792 0.0396729 9 0.0396729 9C0.0396729 9 0.0396729 12.9407 0.537237 14.8115C0.815873 15.8465 1.63188 16.6625 2.66681 16.9411C4.57746 17.4586 12.1205 17.4586 12.1205 17.4586C12.1205 17.4586 19.6835 17.4586 21.5742 16.961C22.6092 16.6824 23.4252 15.8664 23.7038 14.8315C24.2014 12.9407 24.2014 9.0199 24.2014 9.0199C24.2014 9.0199 24.2213 5.0792 23.7038 3.18845Z" fill="white"/>
<path d="M9.71155 5.37784V12.6224L16.0008 9.0001L9.71155 5.37784Z" fill="#4E5156"/>
</svg>
