<svg width="12" height="12" viewBox="0 0 12 12" fill="none" xmlns="http://www.w3.org/2000/svg">
<path d="M10.0877 8.62904C10.1721 8.69449 10.2271 8.79075 10.2407 8.89671C10.2543 9.00268 10.2254 9.10973 10.1603 9.19442C9.61762 9.90268 8.90344 10.4608 8.08525 10.8161C7.26706 11.1714 6.37186 11.3121 5.48421 11.2249C4.59657 11.1377 3.74579 10.8256 3.01223 10.3179C2.27867 9.81024 1.68655 9.12383 1.29182 8.32352C0.89708 7.52321 0.712751 6.63541 0.756242 5.744C0.799733 4.85258 1.06961 3.98697 1.54038 3.22894C2.01114 2.47091 2.66726 1.84548 3.44675 1.41173C4.22624 0.977983 5.10337 0.750235 5.99527 0.75C6.10231 0.75 6.20497 0.792548 6.28066 0.868284C6.35634 0.94402 6.39886 1.04674 6.39886 1.15385C6.39886 1.26095 6.35634 1.36367 6.28066 1.43941C6.20497 1.51514 6.10231 1.55769 5.99527 1.55769C5.24044 1.55757 4.49803 1.75004 3.83822 2.11691C3.1784 2.48379 2.62297 3.01295 2.2244 3.65439C1.82584 4.29584 1.5973 5.02838 1.56039 5.78279C1.52349 6.53721 1.67942 7.28858 2.01347 7.96591C2.34752 8.64325 2.84865 9.22416 3.4695 9.65377C4.09035 10.0834 4.81041 10.3475 5.56166 10.4211C6.3129 10.4948 7.0705 10.3756 7.76287 10.0747C8.45525 9.77384 9.05952 9.3013 9.5186 8.70173C9.55103 8.65934 9.59153 8.6238 9.63777 8.59717C9.68401 8.57055 9.73506 8.55336 9.78798 8.5466C9.8409 8.53984 9.89463 8.54364 9.94607 8.55779C9.99751 8.57194 10.0456 8.59616 10.0877 8.62904ZM9.94641 3.59711C10.0301 3.59775 10.1119 3.57235 10.1805 3.52442C10.2238 3.49351 10.2606 3.45432 10.2888 3.40913C10.3169 3.36393 10.3358 3.3136 10.3445 3.26106C10.3531 3.20851 10.3512 3.15477 10.339 3.10294C10.3268 3.0511 10.3045 3.0022 10.2733 2.95904C10.2331 2.90255 10.1791 2.85737 10.1164 2.82785C10.0537 2.79833 9.98442 2.78546 9.91531 2.79049C9.8462 2.79551 9.77954 2.81826 9.72176 2.85654C9.66398 2.89481 9.61702 2.94733 9.5854 3.00904C9.55379 3.07074 9.53859 3.13955 9.54126 3.20884C9.54393 3.27813 9.56439 3.34556 9.60066 3.40465C9.63693 3.46373 9.68779 3.51248 9.74834 3.54619C9.8089 3.5799 9.87711 3.59743 9.94641 3.59711V3.59711ZM8.87286 2.50269C8.94182 2.50251 9.00959 2.48465 9.06969 2.45082C9.1298 2.41699 9.18024 2.3683 9.21619 2.30942C9.25215 2.25054 9.27243 2.18342 9.2751 2.11446C9.27777 2.04551 9.26273 1.97702 9.23143 1.91553C9.20012 1.85404 9.15359 1.80161 9.09628 1.76323C9.03897 1.72485 8.97279 1.7018 8.90404 1.69629C8.8353 1.69078 8.7663 1.70299 8.70361 1.73175C8.64092 1.76051 8.58664 1.80486 8.54595 1.86058C8.50193 1.92086 8.47547 1.99217 8.46951 2.06659C8.46355 2.14102 8.47833 2.21564 8.5122 2.28216C8.54607 2.34869 8.59771 2.40452 8.66137 2.44345C8.72504 2.48238 8.79825 2.50289 8.87286 2.50269V2.50269ZM10.237 4.6875C10.2636 4.77259 10.3177 4.84647 10.3907 4.89761C10.4637 4.94875 10.5516 4.97427 10.6406 4.97019C10.6793 4.97638 10.7189 4.97638 10.7576 4.97019C10.8339 4.94665 10.9015 4.90099 10.9519 4.839C11.0022 4.777 11.0331 4.70146 11.0405 4.62192C11.048 4.54237 11.0317 4.46241 10.9937 4.39214C10.9557 4.32187 10.8977 4.26446 10.8271 4.22716C10.7565 4.18985 10.6765 4.17434 10.597 4.18259C10.5176 4.19083 10.4424 4.22246 10.381 4.27347C10.3196 4.32448 10.2746 4.39258 10.2518 4.46915C10.2291 4.54572 10.2295 4.62733 10.2531 4.70365L10.237 4.6875ZM10.7052 7.21154C10.6551 7.19363 10.602 7.18579 10.5488 7.18849C10.4957 7.19119 10.4437 7.20436 10.3957 7.22725C10.3477 7.25015 10.3047 7.28231 10.2691 7.32189C10.2336 7.36146 10.2062 7.40768 10.1886 7.45788C10.1532 7.5591 10.1595 7.67021 10.2061 7.76677C10.2526 7.86334 10.3356 7.93744 10.4368 7.97279C10.5379 8.00813 10.649 8.00182 10.7455 7.95524C10.842 7.90867 10.916 7.82564 10.9513 7.72442C10.9862 7.62373 10.98 7.5133 10.9338 7.41723C10.8877 7.32116 10.8055 7.24722 10.7052 7.21154V7.21154ZM10.8464 5.67692C10.7394 5.67692 10.6367 5.71947 10.561 5.79521C10.4853 5.87094 10.4428 5.97366 10.4428 6.08077C10.4428 6.18788 10.4853 6.29059 10.561 6.36633C10.6367 6.44207 10.7394 6.48461 10.8464 6.48461C10.9534 6.48461 11.0561 6.44207 11.1318 6.36633C11.2075 6.29059 11.25 6.18788 11.25 6.08077C11.25 5.97366 11.2075 5.87094 11.1318 5.79521C11.0561 5.71947 10.9534 5.67692 10.8464 5.67692ZM7.51277 1.8C7.58622 1.79634 7.65727 1.77268 7.71826 1.73156C7.77924 1.69044 7.82784 1.63342 7.8588 1.56667C7.88976 1.49993 7.90191 1.42598 7.89393 1.35283C7.88595 1.27968 7.85815 1.2101 7.81353 1.15161C7.7689 1.09312 7.70916 1.04794 7.64074 1.02095C7.57233 0.993959 7.49784 0.986189 7.42534 0.998475C7.35283 1.01076 7.28506 1.04264 7.22934 1.09066C7.17362 1.13869 7.13207 1.20103 7.10918 1.27096C7.0888 1.33321 7.08387 1.39949 7.0948 1.46408C7.10573 1.52867 7.1322 1.58963 7.17192 1.6417C7.21164 1.69377 7.26343 1.73538 7.32281 1.76296C7.38219 1.79054 7.44738 1.80325 7.51277 1.8V1.8ZM6.39886 2.93481C6.39886 2.8277 6.35634 2.72498 6.28066 2.64925C6.20497 2.57351 6.10231 2.53096 5.99527 2.53096C5.88824 2.53096 5.78558 2.57351 5.70989 2.64925C5.63421 2.72498 5.59169 2.8277 5.59169 2.93481V6C5.59202 6.08348 5.6182 6.16481 5.66662 6.23279C5.71505 6.30077 5.78333 6.35207 5.86209 6.37961L8.01322 7.13481C8.05593 7.15033 8.10096 7.15852 8.1464 7.15904C8.24302 7.1608 8.33706 7.12782 8.41143 7.06609C8.48581 7.00436 8.53558 6.91798 8.5517 6.82264C8.56782 6.72731 8.54923 6.62935 8.4993 6.54657C8.44936 6.46379 8.3714 6.40168 8.27959 6.37154L6.39886 5.71327V2.93481Z" fill="#F68F54"/>
</svg>
