<svg width="10" height="10" viewBox="0 0 10 10" fill="none" xmlns="http://www.w3.org/2000/svg">
<path d="M5.5392 3.02103L6.25898 3.74089C6.58967 4.07157 6.85199 4.46417 7.03095 4.89625C7.20992 5.32832 7.30204 5.79143 7.30204 6.25911C7.30204 6.7268 7.20992 7.1899 7.03095 7.62198C6.85199 8.05406 6.58967 8.44665 6.25898 8.77734L6.07891 8.95692C5.4111 9.62479 4.50536 10 3.56094 10C2.61652 10 1.71078 9.62479 1.04298 8.95692C0.37517 8.28904 7.03648e-09 7.38321 0 6.43869C-7.03649e-09 5.49418 0.37517 4.58835 1.04298 3.92047L1.76276 4.64033C1.52488 4.87615 1.33593 5.15664 1.20673 5.4657C1.07754 5.77475 1.01066 6.10628 1.00993 6.44126C1.00919 6.77623 1.07462 7.10805 1.20246 7.41767C1.3303 7.72729 1.51803 8.0086 1.75487 8.24547C1.9917 8.48233 2.27299 8.67007 2.58258 8.79793C2.89216 8.92578 3.22395 8.99121 3.55889 8.99048C3.89383 8.98975 4.22533 8.92286 4.53435 8.79365C4.84338 8.66445 5.12384 8.47547 5.35964 8.23757L5.53971 8.05748C6.01652 7.58047 6.28438 6.9336 6.28438 6.25911C6.28438 5.58462 6.01652 4.93775 5.53971 4.46074L4.81993 3.74089L5.53971 3.02154L5.5392 3.02103ZM8.95652 6.07902L8.23724 5.35967C8.47512 5.12385 8.66407 4.84336 8.79327 4.5343C8.92246 4.22525 8.98934 3.89372 8.99007 3.55874C8.99081 3.22377 8.92538 2.89195 8.79754 2.58233C8.6697 2.27271 8.48197 1.9914 8.24514 1.75454C8.0083 1.51767 7.72701 1.32993 7.41742 1.20207C7.10784 1.07422 6.77605 1.00879 6.44111 1.00952C6.10617 1.01025 5.77467 1.07714 5.46565 1.20635C5.15663 1.33555 4.87616 1.52453 4.64036 1.76243L4.46029 1.94252C3.98348 2.41953 3.71562 3.0664 3.71562 3.74089C3.71562 4.41538 3.98348 5.06225 4.46029 5.53926L5.18007 6.25911L4.46029 6.97846L3.74102 6.25911C3.41033 5.92843 3.14801 5.53583 2.96905 5.10376C2.79008 4.67168 2.69796 4.20857 2.69796 3.74089C2.69796 3.2732 2.79008 2.8101 2.96905 2.37802C3.14801 1.94594 3.41033 1.55335 3.74102 1.22266L3.92109 1.04308C4.5889 0.375208 5.49464 0 6.43906 0C7.38348 0 8.28922 0.375208 8.95702 1.04308C9.62483 1.71096 10 2.61679 10 3.56131C10 4.50582 9.62483 5.41165 8.95702 6.07953L8.95652 6.07902Z" fill="white"/>
</svg>
