<svg width="80" height="24" viewBox="0 0 80 24" fill="none" xmlns="http://www.w3.org/2000/svg">
<path d="M3.23672e-06 23.572L9.80893 15.5961L19.6451 23.5774L19.6383 0.429118L9.82934 8.40495L-0.00683089 0.423653L3.23672e-06 23.572ZM1.8597 4.31833L8.3518 9.58815L1.85606 14.8708L1.8597 4.31833ZM11.2963 9.58277L17.8011 4.32489L17.7974 14.8774L11.2963 9.58277ZM8.33449 12.0077L9.82779 10.7908L17.7959 17.2632L17.7786 19.6828L8.33449 12.0077ZM1.85451 17.2566L6.85695 13.1909L8.34196 14.4183L1.8372 19.6762L1.85451 17.2566Z" fill="url(#paint0_linear)"/>
<path d="M78.654 8.89138H78.378V8.42194H78.6596C78.7786 8.42194 78.8612 8.43798 78.9075 8.46989C78.9538 8.5018 78.9769 8.56075 78.9769 8.64639C78.9769 8.7322 78.9544 8.79439 78.9093 8.83315C78.8644 8.87191 78.7791 8.89138 78.654 8.89138ZM78.9207 9.0567C79.1096 9.00027 79.2042 8.8638 79.2042 8.64729C79.2042 8.49838 79.161 8.39003 79.0746 8.32243C78.9883 8.25482 78.8449 8.22111 78.6447 8.22111H78.1565V9.53353H78.378V9.09221H78.669L78.9827 9.53353H79.2643L78.9207 9.0567ZM78.6144 9.99612C77.9857 9.99612 77.4741 9.48468 77.4741 8.85605C77.4741 8.22724 77.9857 7.71579 78.6144 7.71579C79.2432 7.71579 79.7546 8.22724 79.7546 8.85605C79.7546 9.48468 79.2432 9.99612 78.6144 9.99612ZM78.6144 7.48828C77.8603 7.48828 77.2468 8.10177 77.2468 8.85605C77.2468 9.61015 77.8603 10.2236 78.6144 10.2236C79.3685 10.2236 79.982 9.61015 79.982 8.85605C79.982 8.10177 79.3685 7.48828 78.6144 7.48828ZM72.9136 11.4048C73.453 11.4391 73.8458 11.3442 74.0853 11.1074C74.3313 10.8777 74.4573 10.5276 74.457 10.0673C74.4564 9.60709 74.3295 9.24599 74.0825 8.98873C73.8356 8.73779 73.4481 8.60961 72.9082 8.60023C71.8119 8.5804 70.7155 8.5622 69.619 8.54525C69.6219 9.43402 69.6248 10.3228 69.6279 11.2116C70.7236 11.271 71.8188 11.3354 72.9136 11.4048ZM67.8936 7.5C69.758 7.50036 71.6223 7.50072 73.4865 7.50108C74.4409 7.50054 75.1287 7.73328 75.5491 8.20795C75.9695 8.68154 76.1759 9.32333 76.1759 10.118C76.1758 10.8991 75.963 11.5148 75.5307 11.9431C75.2048 12.2682 74.7191 12.4351 74.0804 12.4656C74.7809 13.7665 75.4795 15.1131 76.1759 16.5115C75.5482 16.412 74.9198 16.3161 74.2911 16.2238C73.6387 14.8964 72.9847 13.6132 72.3293 12.3693C71.4303 12.2995 70.5309 12.2339 69.631 12.1724C69.6347 13.3176 69.6385 14.4625 69.6423 15.6076C69.0696 15.5397 68.4965 15.4748 67.9234 15.4129C67.9134 12.7753 67.9035 10.1376 67.8936 7.5ZM63.7029 12.0846C63.0703 10.7861 62.4375 9.51586 61.8051 8.2687C61.7939 8.2687 61.7827 8.26852 61.7716 8.26852C61.1491 9.50577 60.5262 10.7208 59.9026 11.9191C61.1698 11.9655 62.4366 12.0208 63.7029 12.0846ZM60.5004 7.48828H63.0699C64.3236 9.97954 65.5785 12.569 66.8312 15.2986C66.2356 15.2381 65.6396 15.1809 65.0434 15.1268C64.7157 14.4214 64.3881 13.7246 64.0604 13.0358C62.5583 12.9422 61.0553 12.8634 59.5516 12.7996C59.2266 13.4259 58.9012 14.0477 58.5758 14.666C57.9783 14.635 57.3807 14.6071 56.7831 14.5826C58.0252 12.2692 59.2639 9.91842 60.5004 7.48828ZM53.2769 13.5694C53.7249 13.5766 54.0461 13.4798 54.2396 13.2817C54.4267 13.0834 54.5197 12.7796 54.5188 12.3702C54.5183 11.9761 54.404 11.679 54.1763 11.474C53.9421 11.2689 53.541 11.1659 52.9659 11.1611C51.7449 11.1504 50.5238 11.147 49.3028 11.1504C49.3025 11.9493 49.3021 12.7482 49.3017 13.5472C50.6268 13.5409 51.952 13.5483 53.2769 13.5694ZM52.8314 10.3812C53.3528 10.3846 53.72 10.295 53.9334 10.1001C54.1469 9.91067 54.2533 9.6527 54.2527 9.33162C54.2523 9.02605 54.1582 8.79259 53.9845 8.6316C53.8038 8.47566 53.4835 8.39219 53.0095 8.39111C51.7743 8.38841 50.5392 8.38751 49.3039 8.38841C49.3035 9.05021 49.3034 9.71201 49.303 10.3738C50.4791 10.3711 51.6554 10.3736 52.8314 10.3812ZM47.5823 7.49874C49.511 7.49856 51.4398 7.49856 53.3684 7.49874C54.4231 7.49856 55.1175 7.65396 55.4654 7.96692C55.8132 8.27988 55.9877 8.67217 55.9888 9.13638C55.9902 9.61105 55.8307 9.99522 55.5172 10.293C55.1972 10.5961 54.7898 10.7459 54.2888 10.7609C54.817 10.7877 55.278 10.9547 55.6666 11.2635C56.0481 11.5721 56.2432 12.005 56.2444 12.5586C56.246 13.1593 56.0732 13.6345 55.7195 13.9882C55.3726 14.3374 54.6836 14.4964 53.6661 14.4751C51.6358 14.4335 49.6048 14.4286 47.5741 14.4603C47.5768 12.1398 47.5795 9.81927 47.5823 7.49874ZM43.3605 11.8207C42.7357 10.6422 42.1115 9.45295 41.488 8.24761C41.4768 8.24779 41.4656 8.24779 41.4544 8.24779C40.8229 9.46034 40.1909 10.69 39.5581 11.9419C40.8253 11.8926 42.0928 11.8523 43.3605 11.8207ZM40.1891 7.48828H42.7586C43.9949 9.86074 45.2345 12.1778 46.4779 14.4811C45.8799 14.4944 45.2821 14.5108 44.6843 14.5305C44.36 13.9179 44.036 13.3033 43.7122 12.6862C42.2078 12.729 40.7039 12.7866 39.2006 12.8591C38.8709 13.522 38.541 14.1915 38.2109 14.8681C37.614 14.9109 37.0173 14.9566 36.4207 15.0057C37.6776 12.3974 38.9345 9.90562 40.1891 7.48828ZM23.8867 7.5018C24.8188 7.50144 25.751 7.50126 26.683 7.50108C27.6268 9.85623 28.5671 12.1019 29.506 14.2579C30.4584 11.9091 31.4135 9.66297 32.3693 7.5C33.2992 7.49982 34.2291 7.49982 35.1589 7.49964C35.1485 10.0389 35.138 12.5779 35.1276 15.1171C34.5602 15.1681 33.9931 15.222 33.4263 15.279C33.4351 13.0259 33.4441 10.7728 33.453 8.51983C33.4463 8.51983 33.4396 8.52001 33.433 8.52001C32.4636 10.6615 31.4948 12.8831 30.5283 15.2052C29.8445 15.2819 29.1611 15.3625 28.478 15.4472C27.5235 13.2822 26.5673 11.0228 25.6073 8.64819C25.6006 8.64837 25.594 8.64855 25.5873 8.64855C25.5846 11.1833 25.5817 13.7178 25.579 16.2523C25.0145 16.3358 24.4504 16.4221 23.8867 16.5115V7.5018Z" fill="white"/>
<defs>
<linearGradient id="paint0_linear" x1="-2.57039" y1="16.5099" x2="22.2086" y2="7.49105" gradientUnits="userSpaceOnUse">
<stop stop-color="#D51F40"/>
<stop offset="1" stop-color="#F37024"/>
</linearGradient>
</defs>
</svg>
