<svg width="27" height="32" viewBox="0 0 27 32" fill="none" xmlns="http://www.w3.org/2000/svg">
<mask id="mask0" style="mask-type:alpha" maskUnits="userSpaceOnUse" x="0" y="0" width="27" height="32">
<rect width="26.9804" height="32" fill="#C4C4C4"/>
</mask>
<g mask="url(#mask0)">
<path d="M0.180037 31.6625L13.4685 20.8574L26.7939 31.6699L26.7846 0.3101L13.4961 11.1152L0.170767 0.302705L0.180037 31.6625ZM2.69942 5.57895L11.4945 12.7181L2.69449 19.8747L2.69942 5.57895ZM15.4835 12.7108L24.2957 5.58782L24.2908 19.8836L15.4835 12.7108ZM11.471 15.996L13.494 14.3473L24.2887 23.1157L24.2652 26.3936L11.471 15.996ZM2.69239 23.1068L9.46936 17.599L11.4811 19.2617L2.66895 26.3847L2.69239 23.1068Z" fill="url(#paint0_linear)"/>
</g>
<defs>
<linearGradient id="paint0_linear" x1="-3.30207" y1="22.0955" x2="30.2668" y2="9.87738" gradientUnits="userSpaceOnUse">
<stop stop-color="#D51F40"/>
<stop offset="1" stop-color="#F37024"/>
</linearGradient>
</defs>
</svg>
