<svg width="107" height="32" viewBox="0 0 107 32" fill="none" xmlns="http://www.w3.org/2000/svg">
<mask id="mask0" style="mask-type:alpha" maskUnits="userSpaceOnUse" x="0" y="0" width="107" height="32">
<rect width="106.667" height="32" fill="#C4C4C4"/>
</mask>
<g mask="url(#mask0)">
<path d="M4.909e-06 31.4293L13.0786 20.7948L26.1935 31.4366L26.1844 0.572118L13.1058 11.2066L-0.00910558 0.564834L4.909e-06 31.4293ZM2.4796 5.75773L11.1357 12.7842L2.47475 19.8277L2.4796 5.75773ZM15.0617 12.777L23.7348 5.76648L23.7299 19.8365L15.0617 12.777ZM11.1127 16.0103L13.1037 14.3876L23.7278 23.0175L23.7048 26.2437L11.1127 16.0103ZM2.47268 23.0088L9.1426 17.5879L11.1226 19.2244L2.4496 26.2349L2.47268 23.0088Z" fill="white"/>
<path d="M104.872 11.8551H104.504V11.2291H104.88C105.038 11.2291 105.148 11.2505 105.21 11.2931C105.272 11.3356 105.303 11.4142 105.303 11.5284C105.303 11.6428 105.273 11.7257 105.212 11.7774C105.153 11.8291 105.039 11.8551 104.872 11.8551ZM105.228 12.0755C105.479 12.0002 105.606 11.8183 105.606 11.5296C105.606 11.331 105.548 11.1866 105.433 11.0964C105.318 11.0063 105.127 10.9614 104.86 10.9614H104.209V12.7113H104.504V12.1228H104.892L105.31 12.7113H105.686L105.228 12.0755ZM104.819 13.328C103.981 13.328 103.299 12.6461 103.299 11.8079C103.299 10.9695 103.981 10.2876 104.819 10.2876C105.658 10.2876 106.34 10.9695 106.34 11.8079C106.34 12.6461 105.658 13.328 104.819 13.328ZM104.819 9.98425C103.814 9.98425 102.996 10.8022 102.996 11.8079C102.996 12.8134 103.814 13.6314 104.819 13.6314C105.825 13.6314 106.643 12.8134 106.643 11.8079C106.643 10.8022 105.825 9.98425 104.819 9.98425ZM97.2182 15.2063C97.9374 15.252 98.4612 15.1255 98.7804 14.8097C99.1085 14.5035 99.2765 14.0367 99.276 13.423C99.2753 12.8093 99.1061 12.3279 98.7768 11.9849C98.4475 11.6503 97.9309 11.4794 97.211 11.4669C95.7493 11.4404 94.2874 11.4161 92.8254 11.3935C92.8293 12.5786 92.8331 13.7636 92.8372 14.9486C94.2982 15.0279 95.7584 15.1138 97.2182 15.2063ZM90.5249 9.99988C93.0108 10.0004 95.4964 10.0008 97.9821 10.0013C99.2546 10.0006 100.172 10.3109 100.732 10.9438C101.293 11.5753 101.568 12.431 101.568 13.4905C101.568 14.5321 101.284 15.3529 100.708 15.924C100.273 16.3574 99.6255 16.58 98.7739 16.6206C99.708 18.3551 100.639 20.1507 101.568 22.0153C100.731 21.8826 99.8931 21.7547 99.0549 21.6316C98.185 19.8618 97.3129 18.1508 96.4392 16.4923C95.2404 16.3993 94.0412 16.3118 92.8413 16.2298C92.8464 17.7566 92.8514 19.2832 92.8564 20.8101C92.0928 20.7194 91.3287 20.6329 90.5645 20.5504C90.5513 17.0336 90.5381 13.5167 90.5249 9.99988ZM84.9372 16.1127C84.0937 14.3813 83.25 12.6877 82.4068 11.0248C82.3919 11.0248 82.377 11.0246 82.3621 11.0246C81.5321 12.6742 80.7016 14.2943 79.8702 15.8921C81.5598 15.9538 83.2488 16.0276 84.9372 16.1127ZM80.6673 9.98425H84.0933C85.7648 13.3059 87.438 16.7586 89.1084 20.3981C88.3142 20.3173 87.5195 20.2411 86.7246 20.169C86.2876 19.2284 85.8509 18.2994 85.4139 17.3809C83.4111 17.2562 81.4071 17.1511 79.4022 17.066C78.9688 17.9011 78.5349 18.7301 78.1011 19.5546C77.3045 19.5133 76.5077 19.476 75.7108 19.4433C77.367 16.3589 79.0186 13.2244 80.6673 9.98425ZM71.0359 18.0924C71.6332 18.102 72.0615 17.973 72.3194 17.7088C72.5689 17.4444 72.693 17.0394 72.6918 16.4935C72.6911 15.968 72.5387 15.5719 72.2351 15.2986C71.9228 15.0251 71.388 14.8878 70.6212 14.8813C68.9932 14.8671 67.3652 14.8626 65.7371 14.8671C65.7367 15.9322 65.7362 16.9975 65.7357 18.0629C67.5024 18.0544 69.2694 18.0643 71.0359 18.0924ZM70.4419 13.8415C71.1371 13.846 71.6267 13.7266 71.9113 13.4667C72.1959 13.2141 72.3377 12.8701 72.337 12.442C72.3365 12.0346 72.211 11.7233 71.9793 11.5087C71.7385 11.3008 71.3113 11.1895 70.6794 11.188C69.0324 11.1844 67.3856 11.1832 65.7386 11.1844C65.7381 12.0668 65.7379 12.9492 65.7374 13.8316C67.3056 13.828 68.874 13.8314 70.4419 13.8415ZM63.443 9.99819C66.0148 9.99795 68.5865 9.99795 71.158 9.99819C72.5641 9.99795 73.49 10.2052 73.954 10.6224C74.4176 11.0397 74.6503 11.5628 74.6518 12.1817C74.6537 12.8146 74.4409 13.3268 74.0229 13.7239C73.5963 14.128 73.053 14.3277 72.3851 14.3477C73.0893 14.3835 73.704 14.6061 74.2222 15.0178C74.7308 15.4294 74.9909 16.0065 74.9926 16.7447C74.9948 17.5456 74.7642 18.1792 74.2926 18.6508C73.8302 19.1164 72.9115 19.3284 71.5548 19.3C68.8478 19.2445 66.1398 19.238 63.4322 19.2803C63.4358 16.1863 63.4394 13.0922 63.443 9.99819ZM57.8141 15.7608C56.9809 14.1895 56.1488 12.6038 55.3173 10.9967C55.3024 10.9969 55.2875 10.9969 55.2726 10.9969C54.4306 12.6137 53.5879 14.2532 52.7442 15.9224C54.4337 15.8567 56.1238 15.8029 57.8141 15.7608ZM53.5855 9.98425H57.0115C58.6599 13.1475 60.3127 16.237 61.9705 19.308C61.1732 19.3258 60.3762 19.3476 59.5791 19.3738C59.1467 18.5571 58.7147 17.7376 58.283 16.9148C56.2771 16.9718 54.2719 17.0487 52.2675 17.1454C51.8279 18.0292 51.388 18.9219 50.9479 19.8241C50.152 19.881 49.3564 19.9421 48.561 20.0075C50.2369 16.5298 51.9127 13.2074 53.5855 9.98425ZM31.849 10.0023C33.0917 10.0018 34.3347 10.0016 35.5774 10.0013C36.8357 13.1415 38.0895 16.1358 39.3413 19.0104C40.6112 15.8786 41.8847 12.8838 43.1591 9.99988C44.399 9.99964 45.6388 9.99964 46.8786 9.9994C46.8647 13.385 46.8508 16.7704 46.8368 20.156C46.0804 20.224 45.3242 20.2959 44.5684 20.3719C44.5802 17.3677 44.5922 14.3636 44.604 11.3597C44.5951 11.3597 44.5862 11.3599 44.5773 11.3599C43.2849 14.2153 41.9931 17.1773 40.7045 20.2735C39.7928 20.3757 38.8815 20.4831 37.9708 20.5961C36.698 17.7095 35.4231 14.697 34.1431 11.5308C34.1342 11.531 34.1253 11.5313 34.1164 11.5313C34.1128 14.9109 34.109 18.2902 34.1054 21.6696C33.3528 21.7809 32.6006 21.896 31.849 22.0153V10.0023Z" fill="white"/>
</g>
</svg>
