<svg width="1072" height="310" viewBox="0 0 1072 310" fill="none" xmlns="http://www.w3.org/2000/svg">
<path d="M262.175 -6.10352e-05L131.087 106.777L0 -6.10352e-05V310L131.087 203.161L262.175 309.938V-6.10352e-05ZM237.447 52.1164V193.389L150.715 122.753L237.447 52.1164ZM111.46 122.753L24.7277 193.42V52.1164L111.46 122.753ZM24.7277 257.883V225.373L91.5232 170.992L111.46 187.247L24.7277 257.883ZM111.275 155.015L131.211 138.76L237.571 225.373V257.883L111.275 155.015Z" fill="url(#paint0_linear_16603_148091)"/>
<path d="M325.535 113.908H362.874C375.485 145.457 388.034 175.548 400.553 204.429C413.287 172.942 426.022 142.851 438.788 113.877H475.879C475.735 147.898 475.591 181.918 475.447 215.938C467.864 216.621 460.291 217.345 452.728 218.11L453.099 127.558H452.821C439.901 156.253 426.949 186.003 414.06 217.117C404.911 218.151 395.782 219.185 386.674 220.219C373.94 191.214 361.174 160.968 348.377 129.14H348.099C348.099 163.119 348.099 197.077 348.099 231.015C340.599 232.132 333.067 233.29 325.504 234.489L325.535 113.908ZM543.169 113.722H577.479C593.985 145.519 610.521 176.541 627.12 207.407C619.145 207.594 611.14 207.811 603.165 208.059C598.838 199.786 594.51 191.514 590.183 183.242C570.112 183.8 550.042 184.575 529.971 185.568C525.582 194.44 521.182 203.406 516.773 212.464C508.798 213.053 500.823 213.643 492.849 214.325C509.633 179.488 526.416 146.109 543.169 113.722ZM585.516 171.764C577.17 155.974 568.824 140.059 560.51 123.897H560.201C551.793 140.153 543.355 156.646 534.886 173.377C551.762 172.736 568.639 172.198 585.516 171.764ZM641.864 113.877H719.138C733.201 113.877 742.474 115.956 747.111 120.081C749.214 122.055 750.903 124.431 752.08 127.069C753.256 129.706 753.897 132.553 753.963 135.442C754.029 138.332 753.52 141.205 752.465 143.894C751.411 146.583 749.832 149.034 747.822 151.103C743.334 155.187 737.466 157.405 731.409 157.307C738.154 157.501 744.658 159.873 749.954 164.07C752.498 166.158 754.521 168.812 755.863 171.823C757.204 174.833 757.827 178.117 757.682 181.411C757.871 184.913 757.346 188.416 756.14 191.707C754.933 194.999 753.07 198.008 750.665 200.552C746.029 205.236 736.849 207.376 723.249 207.097C696.131 206.539 669.023 206.467 641.925 206.88C641.843 175.962 641.822 144.961 641.864 113.877V113.877ZM711.936 152.499C718.89 152.499 723.774 151.32 726.649 148.714C728.07 147.418 729.189 145.822 729.926 144.042C730.663 142.262 731 140.341 730.914 138.415C730.991 136.699 730.712 134.986 730.095 133.384C729.477 131.782 728.535 130.327 727.329 129.109C724.918 127.03 720.621 126.007 714.316 126.007H664.86V152.592C680.542 152.427 696.234 152.396 711.936 152.499V152.499ZM717.839 195.185C723.836 195.185 728.101 194.006 730.698 191.338C733.459 187.897 734.788 183.518 734.407 179.116C734.548 176.905 734.215 174.69 733.431 172.619C732.647 170.548 731.431 168.67 729.863 167.11C726.772 164.38 721.363 162.984 713.697 162.922C697.377 162.798 681.078 162.798 664.799 162.922C664.799 173.625 664.799 184.327 664.799 195.03C682.52 194.864 700.2 194.916 717.839 195.185ZM814.277 113.722H848.587C865.34 147.101 882.093 181.784 898.815 218.358C890.84 217.552 882.886 216.786 874.953 216.063C870.564 206.611 866.185 197.305 861.816 188.143C841.746 186.902 821.685 185.868 801.635 185.041C797.308 193.313 792.96 201.648 788.591 210.044L764.667 208.927C781.266 177.782 797.802 146.295 814.308 113.722H814.277ZM856.932 175.238C848.463 157.845 840.014 140.804 831.586 124.114H831.154C822.911 140.659 814.597 156.966 806.21 173.035C823.21 173.697 840.118 174.431 856.932 175.238ZM912.879 113.815H987.525C1000.26 113.815 1009.44 116.917 1015.07 123.122C1020.93 130.308 1023.91 139.437 1023.41 148.714C1023.41 159.169 1020.57 167.327 1014.82 173.159C1010.46 177.503 1003.97 179.767 995.438 180.17C1004.79 197.563 1014.07 215.628 1023.26 234.365C1014.89 233.042 1006.5 231.759 998.096 230.519C989.421 212.712 980.694 195.495 971.916 178.868C959.923 177.937 947.92 177.058 935.906 176.231C935.906 191.597 935.958 206.942 936.061 222.267C928.395 221.336 920.606 220.468 913.095 219.661L912.879 113.815ZM979.891 166.149C987.062 166.583 992.254 165.311 995.531 162.147C997.278 160.3 998.621 158.107 999.473 155.708C1000.32 153.309 1000.67 150.758 1000.48 148.218C1000.78 142.924 998.978 137.726 995.469 133.762C992.193 130.412 987 128.674 979.798 128.55L935.906 127.837C935.906 139.729 935.906 151.631 935.906 163.543C950.702 164.391 965.404 165.28 980.014 166.211L979.891 166.149Z" fill="white"/>
<path d="M1053.14 113.722C1049.53 113.722 1046 114.797 1042.99 116.812C1039.99 118.826 1037.65 121.69 1036.27 125.04C1034.88 128.39 1034.52 132.076 1035.23 135.632C1035.93 139.189 1037.67 142.456 1040.23 145.02C1042.78 147.584 1046.04 149.33 1049.58 150.037C1053.12 150.745 1056.8 150.381 1060.13 148.994C1063.47 147.606 1066.32 145.256 1068.33 142.241C1070.34 139.226 1071.41 135.682 1071.41 132.056C1071.41 127.193 1069.49 122.53 1066.06 119.092C1062.63 115.654 1057.99 113.722 1053.14 113.722V113.722ZM1053.14 147.318C1050.13 147.318 1047.18 146.421 1044.67 144.739C1042.17 143.057 1040.21 140.666 1039.06 137.87C1037.91 135.074 1037.61 131.997 1038.2 129.03C1038.79 126.062 1040.24 123.337 1042.38 121.199C1044.51 119.062 1047.23 117.608 1050.19 117.021C1053.15 116.435 1056.21 116.742 1059 117.904C1061.78 119.066 1064.16 121.032 1065.83 123.551C1067.5 126.07 1068.39 129.03 1068.38 132.056C1068.37 136.106 1066.76 139.988 1063.91 142.85C1061.05 145.711 1057.18 147.318 1053.14 147.318V147.318Z" fill="white"/>
<path d="M1057.25 134.719C1058.43 134.413 1059.45 133.694 1060.15 132.692C1060.84 131.69 1061.15 130.472 1061.02 129.259C1061.09 128.445 1060.97 127.627 1060.67 126.868C1060.37 126.109 1059.9 125.43 1059.29 124.885C1057.56 123.839 1055.55 123.371 1053.54 123.551H1047.05V141.109H1050.14V135.215H1054.03L1058.21 141.109H1061.98L1057.25 134.719ZM1053.66 132.517H1049.99V126.312H1053.76C1054.9 126.218 1056.04 126.443 1057.06 126.964C1057.4 127.249 1057.66 127.613 1057.82 128.025C1057.99 128.436 1058.04 128.882 1057.99 129.321C1058.04 129.781 1057.98 130.245 1057.83 130.679C1057.67 131.114 1057.42 131.509 1057.09 131.834C1056.06 132.434 1054.85 132.674 1053.66 132.517V132.517Z" fill="white"/>
<path d="M912.995 98.2421V75.3792H931.108C932.25 75.3658 933.38 75.6097 934.415 76.0927C935.341 76.55 936.138 77.2325 936.734 78.078C937.309 78.9516 937.61 79.9781 937.599 81.0251C937.611 81.8715 937.432 82.7095 937.074 83.4759C936.744 84.151 936.269 84.7443 935.683 85.2131C935.097 85.6724 934.439 86.029 933.735 86.2678C934.557 86.4394 935.335 86.7772 936.023 87.2605C936.691 87.7565 937.231 88.4052 937.599 89.1528C938.013 89.9902 938.215 90.9172 938.186 91.8517C938.236 93.0818 937.901 94.2968 937.228 95.3261C936.602 96.2507 935.721 96.9728 934.694 97.4045C933.572 97.8906 932.361 98.1338 931.139 98.1181L912.995 98.2421ZM918.713 84.4995H929.006C929.499 84.5216 929.989 84.4147 930.428 84.1893C930.814 84.0222 931.131 83.7263 931.324 83.3518C931.543 82.9862 931.661 82.5684 931.664 82.1419C931.683 81.8127 931.629 81.4836 931.507 81.1778C931.384 80.8721 931.195 80.5975 930.954 80.3737C930.441 79.9506 929.793 79.73 929.13 79.7532H918.744L918.713 84.4995ZM918.713 93.806H929.563C930.266 93.8485 930.96 93.6273 931.51 93.1856C931.768 92.9471 931.969 92.6529 932.098 92.3251C932.226 91.9973 932.279 91.6445 932.252 91.2933C932.267 90.8391 932.16 90.3891 931.943 89.9903C931.719 89.6018 931.386 89.2888 930.985 89.0908C930.497 88.8775 929.97 88.7716 929.439 88.7805H918.744L918.713 93.806ZM943.441 98.2731V75.4102H966.809V79.9394H949.19V84.4375H964.645V88.8736H949.19V93.713H967.056V98.2731H943.441ZM980.532 98.2731V80.2496H970.487V75.4102H996.018V80.2496H986.004V98.2731H980.532ZM994.658 98.2731L1005.94 75.4102H1012.4L1023.68 98.2731H1017.5L1015.49 94.1472H1002.54L1000.56 98.2731H994.658ZM1004.61 89.7112H1013.39L1010.95 84.4995C1010.95 84.2824 1010.73 83.9411 1010.55 83.5068C1010.36 83.0725 1010.14 82.6072 1009.96 82.1419L1009.43 80.87C1009.34 80.6267 1009.24 80.3886 1009.12 80.1565H1008.88L1008.23 81.6766C1008.01 82.2039 1007.76 82.7623 1007.58 83.2897C1007.39 83.817 1007.18 84.2204 1007.02 84.5306L1004.61 89.7112Z" fill="url(#paint1_linear_16603_148091)"/>
<defs>
<linearGradient id="paint0_linear_16603_148091" x1="151186" y1="130805" x2="180208" y2="121871" gradientUnits="userSpaceOnUse">
<stop stop-color="#D31F40"/>
<stop offset="0.24" stop-color="#D4233F"/>
<stop offset="0.45" stop-color="#D92E3B"/>
<stop offset="0.66" stop-color="#E04134"/>
<stop offset="0.87" stop-color="#EA5B2B"/>
<stop offset="1" stop-color="#F27024"/>
</linearGradient>
<linearGradient id="paint1_linear_16603_148091" x1="99281.8" y1="9023" x2="99524.7" y2="8038.08" gradientUnits="userSpaceOnUse">
<stop stop-color="#D31F40"/>
<stop offset="0.54" stop-color="#E34932"/>
<stop offset="1" stop-color="#F27024"/>
</linearGradient>
</defs>
</svg>
