<svg width="10" height="10" viewBox="0 0 10 10" fill="none" xmlns="http://www.w3.org/2000/svg">
<path d="M0.5 0.5H9.5C9.63261 0.5 9.75978 0.552678 9.85355 0.646447C9.94732 0.740215 10 0.867392 10 1V9C10 9.13261 9.94732 9.25979 9.85355 9.35355C9.75978 9.44732 9.63261 9.5 9.5 9.5H0.5C0.367392 9.5 0.240215 9.44732 0.146447 9.35355C0.0526784 9.25979 0 9.13261 0 9V1C0 0.867392 0.0526784 0.740215 0.146447 0.646447C0.240215 0.552678 0.367392 0.5 0.5 0.5ZM5.03 4.8415L1.824 2.119L1.1765 2.881L5.0365 6.1585L8.827 2.8785L8.173 2.122L5.0305 4.8415H5.03Z" fill="white"/>
</svg>
