<svg width="21" height="20" viewBox="0 0 21 20" fill="none" xmlns="http://www.w3.org/2000/svg">
<path d="M13.0055 2.52266C12.2454 1.70195 11.1836 1.25 10.0118 1.25C8.83364 1.25 7.7684 1.69922 7.01176 2.51484C6.24691 3.33945 5.87426 4.46016 5.96176 5.67031C6.13519 8.05781 7.95199 10 10.0118 10C12.0715 10 13.8852 8.0582 14.0614 5.67109C14.1501 4.47187 13.7751 3.35352 13.0055 2.52266Z" fill="white"/>
<path d="M16.8869 18.75H3.13694C2.95697 18.7523 2.77873 18.7145 2.61521 18.6393C2.45168 18.5641 2.30698 18.4534 2.19163 18.3152C1.93772 18.0117 1.83538 17.5973 1.91116 17.1781C2.24085 15.3492 3.26976 13.8129 4.88694 12.7344C6.32366 11.777 8.14358 11.25 10.0119 11.25C11.8803 11.25 13.7002 11.7773 15.1369 12.7344C16.7541 13.8125 17.783 15.3488 18.1127 17.1777C18.1885 17.5969 18.0862 18.0113 17.8323 18.3148C17.7169 18.4531 17.5723 18.5639 17.4087 18.6391C17.2452 18.7144 17.0669 18.7523 16.8869 18.75Z" fill="white"/>
</svg>
