<svg width="19" height="18" viewBox="0 0 19 18" fill="none" xmlns="http://www.w3.org/2000/svg">
<path d="M18.3886 0.95538C18.3884 0.954216 18.3884 0.953029 18.3886 0.951865C18.3556 0.807066 18.2827 0.67438 18.1783 0.568777C18.0739 0.463174 17.942 0.388856 17.7976 0.354208C16.6335 0.0702241 14.8023 0.372959 12.773 1.18546C10.7277 2.00577 8.81126 3.21671 7.51595 4.51436C7.10077 4.92734 6.71506 5.36892 6.36165 5.83585C5.48939 5.79679 4.72103 5.92101 4.07376 6.20343C1.81829 7.196 1.17415 9.73624 1.00267 10.7792C0.977853 10.9274 0.987569 11.0793 1.03106 11.2231C1.07455 11.367 1.15064 11.4988 1.25341 11.6084C1.35618 11.718 1.48286 11.8025 1.62359 11.8551C1.76432 11.9078 1.91529 11.9272 2.06478 11.912H2.06985L4.58235 11.6378C4.58548 11.6698 4.58899 11.6991 4.59173 11.7261C4.624 12.0322 4.76053 12.318 4.97845 12.5355L6.20462 13.7624C6.42175 13.9806 6.70746 14.1173 7.0136 14.1495L7.09759 14.1585L6.82415 16.6679C6.82415 16.6679 6.82415 16.671 6.82415 16.673C6.81018 16.8081 6.82456 16.9447 6.86637 17.074C6.90819 17.2032 6.97652 17.3224 7.067 17.4237C7.15748 17.5251 7.26811 17.6064 7.39183 17.6626C7.51554 17.7188 7.64962 17.7485 7.78548 17.7499C7.83979 17.75 7.89401 17.7455 7.94759 17.7366C8.99642 17.5679 11.5355 16.9316 12.5253 14.664C12.8054 14.021 12.9292 13.2558 12.8945 12.3851C13.3635 12.0324 13.8067 11.6467 14.2206 11.2308C15.5265 9.93155 16.7413 8.03077 17.5531 6.01515C18.3613 4.0089 18.6656 2.16397 18.3886 0.95538ZM14.2066 7.78663C13.8856 8.10793 13.4766 8.32681 13.0312 8.41559C12.5858 8.50436 12.1241 8.45904 11.7044 8.28535C11.2848 8.11166 10.9261 7.81742 10.6738 7.43984C10.4214 7.06226 10.2867 6.61832 10.2867 6.16417C10.2867 5.71002 10.4214 5.26607 10.6738 4.8885C10.9261 4.51092 11.2848 4.21667 11.7044 4.04299C12.1241 3.8693 12.5858 3.82398 13.0312 3.91275C13.4766 4.00153 13.8856 4.22041 14.2066 4.54171C14.4217 4.75361 14.5925 5.00618 14.7092 5.28472C14.8258 5.56326 14.8858 5.8622 14.8858 6.16417C14.8858 6.46613 14.8258 6.76508 14.7092 7.04362C14.5925 7.32216 14.4217 7.57473 14.2066 7.78663Z" fill="white"/>
</svg>
