<svg width="16" height="16" viewBox="0 0 16 16" fill="none" xmlns="http://www.w3.org/2000/svg">
<path d="M8 0.6875C3.9616 0.6875 0.6875 3.9616 0.6875 8C0.6875 12.0384 3.9616 15.3125 8 15.3125C12.0384 15.3125 15.3125 12.0384 15.3125 8C15.3125 3.9616 12.0384 0.6875 8 0.6875ZM11.375 9.125H8C7.85082 9.125 7.70774 9.06574 7.60225 8.96025C7.49676 8.85476 7.4375 8.71168 7.4375 8.5625V3.5C7.4375 3.35082 7.49676 3.20774 7.60225 3.10225C7.70774 2.99676 7.85082 2.9375 8 2.9375C8.14918 2.9375 8.29226 2.99676 8.39775 3.10225C8.50324 3.20774 8.5625 3.35082 8.5625 3.5V8H11.375C11.5242 8 11.6673 8.05926 11.7727 8.16475C11.8782 8.27024 11.9375 8.41332 11.9375 8.5625C11.9375 8.71168 11.8782 8.85476 11.7727 8.96025C11.6673 9.06574 11.5242 9.125 11.375 9.125Z" fill="white"/>
</svg>
