<svg width="12" height="10" viewBox="0 0 12 10" fill="none" xmlns="http://www.w3.org/2000/svg">
<path d="M11.4995 1.5684C11.0875 1.75178 10.6506 1.87221 10.2032 1.92572C10.6748 1.64194 11.0277 1.19534 11.1962 0.669129C10.7537 0.934131 10.2685 1.11985 9.7629 1.22031C9.42326 0.854619 8.97307 0.61209 8.48232 0.530429C7.99156 0.448768 7.48775 0.53255 7.0492 0.768751C6.61065 1.00495 6.26193 1.38034 6.05726 1.83655C5.85259 2.29276 5.80344 2.80423 5.91744 3.29146C5.02007 3.2462 4.1422 3.01153 3.34081 2.6027C2.53943 2.19387 1.83244 1.62001 1.26575 0.918383C1.06516 1.26509 0.959748 1.65921 0.960312 2.06039C0.960312 2.84779 1.35857 3.54342 1.96404 3.9507C1.60572 3.93935 1.2553 3.84198 0.941964 3.66669V3.69493C0.942072 4.21934 1.1224 4.72758 1.45238 5.13347C1.78236 5.53936 2.24167 5.81792 2.75245 5.92193C2.41983 6.01263 2.07105 6.026 1.73254 5.96102C1.87655 6.41242 2.15723 6.80718 2.5353 7.09006C2.91336 7.37293 3.36987 7.52975 3.8409 7.53855C3.37276 7.90853 2.83673 8.18204 2.26348 8.34342C1.69022 8.50481 1.09097 8.55091 0.5 8.47909C1.53163 9.14672 2.73254 9.50115 3.95909 9.5C8.11053 9.5 10.3808 6.03922 10.3808 3.03786C10.3808 2.94011 10.3781 2.84128 10.3738 2.74462C10.8157 2.42323 11.197 2.0251 11.5 1.56894L11.4995 1.5684Z" fill="white"/>
</svg>
