<svg width="29" height="20" viewBox="0 0 29 20" fill="none" xmlns="http://www.w3.org/2000/svg">
<path fill-rule="evenodd" clip-rule="evenodd" d="M15.7388 8.53181C16.6229 9.4784 17.7524 9.99999 18.9206 9.99999C20.0894 9.99999 21.2183 9.4784 22.1002 8.53124C22.9581 7.60908 23.4825 6.3784 23.5774 5.06533C23.6763 3.6784 23.2485 2.39432 22.3695 1.45C21.499 0.514772 20.2746 0 18.9206 0C17.557 0 16.336 0.505681 15.4627 1.44318C14.5894 2.38068 14.1627 3.66704 14.2615 5.0659C14.3542 6.37727 14.8792 7.60851 15.7388 8.53181ZM11.4308 20H26.4109C26.651 20.0012 26.8881 19.9475 27.1042 19.8429C27.3203 19.7383 27.5096 19.5856 27.6575 19.3966C27.8149 19.1909 27.9239 18.9524 27.9762 18.6988C28.0285 18.4451 28.0229 18.183 27.9598 17.9318C27.4836 15.9875 26.2967 14.3852 24.5291 13.2983C22.9547 12.3295 21.0143 11.8182 18.9206 11.8182C16.8672 11.8182 14.8746 12.3523 13.3092 13.3216C11.5456 14.4142 10.3604 16.0074 9.88195 17.9284C9.81803 18.1794 9.81172 18.4416 9.86347 18.6953C9.91523 18.9491 10.0237 19.1878 10.1808 19.3937C10.3289 19.5837 10.5186 19.7371 10.7353 19.8422C10.952 19.9473 11.19 20.0013 11.4308 20ZM8.18188 10.2272C6.18245 10.2272 4.4245 8.36816 4.26143 6.0835C4.18075 4.91305 4.54552 3.83066 5.28416 3.03691C6.01484 2.25112 7.04552 1.81816 8.18188 1.81816C9.31824 1.81816 10.341 2.25339 11.0756 3.04373C11.8199 3.84373 12.1836 4.92384 12.0984 6.08464C11.9353 8.36872 10.1779 10.2272 8.18188 10.2272ZM8.18245 11.2812C9.61597 11.2812 10.9131 11.5255 11.9126 12.0141C12.029 12.071 12.1313 12.1261 12.2205 12.1783C12.2857 12.2166 12.3404 12.2706 12.3795 12.3353C12.4186 12.4 12.441 12.4735 12.4446 12.549C12.4481 12.6246 12.4328 12.6998 12.3999 12.768C12.367 12.8361 12.3177 12.8949 12.2563 12.9391C10.5881 14.1312 9.45915 15.7664 8.97733 17.7016C8.96824 17.7369 8.96029 17.7727 8.95404 17.8085C8.93501 17.9132 8.87983 18.0079 8.79811 18.0762C8.71639 18.1444 8.61333 18.1817 8.50688 18.1818H2.20007C1.98007 18.1828 1.76277 18.1333 1.56488 18.0372C1.36699 17.941 1.19379 17.8008 1.05859 17.6272C0.916109 17.4408 0.817619 17.2246 0.77049 16.9948C0.72336 16.7649 0.72881 16.5274 0.786432 16.2999C1.18018 14.7187 2.15518 13.409 3.60461 12.5096C4.88302 11.7175 6.50858 11.2812 8.18245 11.2812Z" fill="white"/>
</svg>
