<svg width="67" height="50" viewBox="0 0 67 50" fill="none" xmlns="http://www.w3.org/2000/svg">
<path fill-rule="evenodd" clip-rule="evenodd" d="M36.1478 21.1295C38.3373 23.4738 41.1347 24.7655 44.0277 24.7655C46.9222 24.7655 49.7182 23.4738 51.9021 21.1281C54.0268 18.8443 55.3256 15.7965 55.5606 12.5446C55.8054 9.10978 54.7459 5.92966 52.569 3.591C50.4133 1.27486 47.3809 0 44.0277 0C40.6506 0 37.6267 1.25235 35.4639 3.57412C33.3012 5.89589 32.2444 9.08164 32.4893 12.546C32.7186 15.7937 34.0188 18.8429 36.1478 21.1295ZM25.4793 49.5332H62.5783C63.1729 49.5362 63.7602 49.4032 64.2953 49.1441C64.8305 48.8851 65.2992 48.507 65.6656 48.0388C66.0554 47.5295 66.3252 46.9388 66.4549 46.3107C66.5845 45.6825 66.5706 45.0332 66.4142 44.4112C65.235 39.596 62.2955 35.6279 57.9179 32.9361C54.0188 30.5369 49.2134 29.2705 44.0281 29.2705C38.9427 29.2705 34.0079 30.5932 30.1313 32.9937C25.7635 35.6997 22.8283 39.6453 21.6434 44.4028C21.4851 45.0243 21.4695 45.6736 21.5977 46.3021C21.7258 46.9305 21.9945 47.5219 22.3836 48.0318C22.7504 48.5021 23.2202 48.8821 23.7569 49.1424C24.2936 49.4027 24.8828 49.5364 25.4793 49.5332ZM17.4337 25.3305C12.482 25.3305 8.12829 20.7264 7.72445 15.0683C7.52463 12.1696 8.42801 9.48901 10.2573 7.52324C12.0669 5.57718 14.6194 4.50494 17.4337 4.50494C20.2479 4.50494 22.7808 5.58281 24.6002 7.54013C26.4435 9.52137 27.3441 12.1963 27.133 15.0711C26.7292 20.7278 22.3769 25.3305 17.4337 25.3305ZM17.4347 27.9404C20.9849 27.9404 24.1974 28.5455 26.6725 29.7556C26.961 29.8963 27.2143 30.0328 27.4352 30.1623C27.5967 30.2571 27.7321 30.3907 27.829 30.551C27.9259 30.7113 27.9812 30.8932 27.99 31.0803C27.9988 31.2675 27.9608 31.4538 27.8794 31.6225C27.798 31.7912 27.6758 31.9369 27.5238 32.0464C23.3925 34.9986 20.5965 39.0484 19.4033 43.8411C19.3807 43.9283 19.361 44.017 19.3456 44.1056C19.2984 44.365 19.1618 44.5996 18.9594 44.7685C18.757 44.9375 18.5018 45.0301 18.2382 45.0301H2.61899C2.07414 45.0326 1.53598 44.9101 1.0459 44.672C0.555825 44.4339 0.12688 44.0866 -0.207944 43.6567C-0.560809 43.1951 -0.804724 42.6596 -0.921443 42.0904C-1.03816 41.5212 -1.02467 40.9329 -0.881961 40.3697C0.0931821 36.4536 2.50782 33.2102 6.09742 30.9827C9.26347 29.0211 13.2893 27.9404 17.4347 27.9404Z" fill="#DDD8D8"/>
</svg>
