<svg width="21" height="19" viewBox="0 0 21 19" fill="none" xmlns="http://www.w3.org/2000/svg">
<path d="M18 0.5H3C2.20462 0.500869 1.44206 0.817218 0.879639 1.37964C0.317218 1.94206 0.000868526 2.70462 0 3.5V15.5C0.000868526 16.2954 0.317218 17.0579 0.879639 17.6204C1.44206 18.1828 2.20462 18.4991 3 18.5H18C18.7954 18.4991 19.5579 18.1828 20.1204 17.6204C20.6828 17.0579 20.9991 16.2954 21 15.5V3.5C20.9991 2.70462 20.6828 1.94206 20.1204 1.37964C19.5579 0.817218 18.7954 0.500869 18 0.5ZM14.25 3.5C14.695 3.5 15.13 3.63196 15.5 3.87919C15.87 4.12643 16.1584 4.47783 16.3287 4.88896C16.499 5.3001 16.5436 5.7525 16.4568 6.18895C16.37 6.62541 16.1557 7.02632 15.841 7.34099C15.5263 7.65566 15.1254 7.86995 14.689 7.95677C14.2525 8.04358 13.8001 7.99903 13.389 7.82873C12.9778 7.65843 12.6264 7.37004 12.3792 7.00003C12.132 6.63002 12 6.19501 12 5.75C12.0006 5.15345 12.2379 4.58152 12.6597 4.15969C13.0815 3.73787 13.6535 3.50062 14.25 3.5ZM3 17C2.60218 17 2.22064 16.842 1.93934 16.5607C1.65804 16.2794 1.5 15.8978 1.5 15.5V12.3298L5.94562 8.37828C6.37455 7.99787 6.93238 7.7953 7.50545 7.81185C8.07853 7.8284 8.62374 8.06282 9.03 8.46734L12.0745 11.5053L6.57984 17H3ZM19.5 15.5C19.5 15.8978 19.342 16.2794 19.0607 16.5607C18.7794 16.842 18.3978 17 18 17H8.70141L14.393 11.3084C14.7959 10.9657 15.3073 10.777 15.8363 10.7756C16.3653 10.7742 16.8776 10.9603 17.2823 11.3009L19.5 13.1488V15.5Z" fill="white"/>
</svg>
