<svg width="19" height="18" viewBox="0 0 19 18" fill="none" xmlns="http://www.w3.org/2000/svg">
<path d="M1.52734 16.7225L2.61973 12.7557C1.94749 11.5958 1.59227 10.2761 1.59227 8.92974C1.59227 4.7082 5.04512 1.27393 9.28098 1.27393C11.3397 1.27393 13.2686 2.07259 14.72 3.51781C16.1714 4.96302 16.9697 6.88743 16.9697 8.93354C16.9697 13.1551 13.5168 16.5894 9.28098 16.5894H9.27716C7.98998 16.5894 6.72572 16.2661 5.60278 15.6576L1.52734 16.7225Z" fill="url(#paint0_linear_13542_38773)"/>
<path d="M1.25 17L2.38058 12.8926C1.68543 11.6908 1.31493 10.3254 1.31875 8.92964C1.31875 4.55598 4.89383 1 9.28628 1C11.4176 1 13.419 1.82529 14.9201 3.32375C16.425 4.8222 17.2538 6.81507 17.25 8.93344C17.25 13.3071 13.6749 16.8631 9.28246 16.8631H9.27864C7.94563 16.8631 6.63553 16.5284 5.47057 15.8971L1.25 17ZM5.66919 14.4595L5.90982 14.604C6.92581 15.2049 8.09077 15.5206 9.27864 15.5244H9.28246C12.9301 15.5244 15.9017 12.5693 15.9017 8.93344C15.9017 7.17257 15.2142 5.51818 13.9652 4.27074C12.7162 3.02329 11.0509 2.33872 9.28246 2.33872C5.63099 2.33872 2.65941 5.2938 2.65941 8.92964C2.65941 10.1733 3.00698 11.3865 3.67158 12.4362L3.82818 12.6872L3.15976 15.1174L5.66919 14.4595Z" fill="white"/>
<path fill-rule="evenodd" clip-rule="evenodd" d="M7.29221 5.60976C7.14325 5.27888 6.98665 5.27128 6.84532 5.26747C6.73074 5.26367 6.59705 5.26367 6.46337 5.26367C6.32969 5.26367 6.1158 5.31311 5.93246 5.51088C5.74912 5.70864 5.2373 6.18785 5.2373 7.16526C5.2373 8.13888 5.95156 9.08207 6.05086 9.21518C6.15017 9.34829 7.42971 11.4134 9.45024 12.2083C11.1308 12.87 11.4746 12.7369 11.8374 12.7027C12.2041 12.6685 13.0139 12.2235 13.1819 11.7595C13.3462 11.2955 13.3462 10.9 13.2965 10.8163C13.2468 10.7327 13.1132 10.6832 12.9145 10.5843C12.7159 10.4854 11.7381 10.0062 11.5548 9.93778C11.3715 9.86933 11.2378 9.8389 11.1079 10.0367C10.9742 10.2344 10.5923 10.6794 10.4777 10.8125C10.3631 10.9456 10.2447 10.9608 10.0461 10.862C9.84747 10.7631 9.20579 10.5539 8.4457 9.87693C7.85368 9.35209 7.45263 8.70175 7.33804 8.50399C7.22346 8.30622 7.32658 8.19973 7.42589 8.10085C7.51374 8.01337 7.62451 7.86885 7.72381 7.75476C7.82312 7.64066 7.8575 7.55699 7.92243 7.42388C7.98736 7.29077 7.9568 7.17667 7.90715 7.07779C7.8575 6.97891 7.46791 6.00149 7.29221 5.60976Z" fill="white"/>
<defs>
<linearGradient id="paint0_linear_13542_38773" x1="9.24828" y1="16.7214" x2="9.24828" y2="1.27306" gradientUnits="userSpaceOnUse">
<stop stop-color="#20B038"/>
<stop offset="1" stop-color="#60D66A"/>
</linearGradient>
</defs>
</svg>
