<svg width="19" height="18" viewBox="0 0 19 18" fill="none" xmlns="http://www.w3.org/2000/svg">
<path d="M2.02734 16.7225L3.11973 12.7557C2.44749 11.5958 2.09227 10.2761 2.09227 8.92974C2.09227 4.7082 5.54512 1.27393 9.78098 1.27393C11.8397 1.27393 13.7686 2.07259 15.22 3.51781C16.6714 4.96302 17.4697 6.88743 17.4697 8.93354C17.4697 13.1551 14.0168 16.5894 9.78098 16.5894H9.77716C8.48998 16.5894 7.22572 16.2661 6.10278 15.6576L2.02734 16.7225Z" fill="#4E5156"/>
<path d="M1.75 17L2.88058 12.8926C2.18543 11.6908 1.81493 10.3254 1.81875 8.92964C1.81875 4.55598 5.39383 1 9.78628 1C11.9176 1 13.919 1.82529 15.4201 3.32375C16.925 4.8222 17.7538 6.81507 17.75 8.93344C17.75 13.3071 14.1749 16.8631 9.78246 16.8631H9.77864C8.44563 16.8631 7.13553 16.5284 5.97057 15.8971L1.75 17ZM6.16919 14.4595L6.40982 14.604C7.42581 15.2049 8.59077 15.5206 9.77864 15.5244H9.78246C13.4301 15.5244 16.4017 12.5693 16.4017 8.93344C16.4017 7.17257 15.7142 5.51818 14.4652 4.27074C13.2162 3.02329 11.5509 2.33872 9.78246 2.33872C6.13099 2.33872 3.15941 5.2938 3.15941 8.92964C3.15941 10.1733 3.50698 11.3865 4.17158 12.4362L4.32818 12.6872L3.65976 15.1174L6.16919 14.4595Z" fill="#4E5156"/>
<path d="M1.75 17L2.88058 12.8926C2.18543 11.6908 1.81493 10.3254 1.81875 8.92964C1.81875 4.55598 5.39383 1 9.78628 1C11.9176 1 13.919 1.82529 15.4201 3.32375C16.925 4.8222 17.7538 6.81507 17.75 8.93344C17.75 13.3071 14.1749 16.8631 9.78246 16.8631H9.77864C8.44563 16.8631 7.13553 16.5284 5.97057 15.8971L1.75 17ZM6.16919 14.4595L6.40982 14.604C7.42581 15.2049 8.59077 15.5206 9.77864 15.5244H9.78246C13.4301 15.5244 16.4017 12.5693 16.4017 8.93344C16.4017 7.17257 15.7142 5.51818 14.4652 4.27074C13.2162 3.02329 11.5509 2.33872 9.78246 2.33872C6.13099 2.33872 3.15941 5.2938 3.15941 8.92964C3.15941 10.1733 3.50698 11.3865 4.17158 12.4362L4.32818 12.6872L3.65976 15.1174L6.16919 14.4595Z" fill="white" fill-opacity="0.2"/>
<path fill-rule="evenodd" clip-rule="evenodd" d="M7.79221 5.60976C7.64325 5.27888 7.48665 5.27128 7.34532 5.26747C7.23074 5.26367 7.09705 5.26367 6.96337 5.26367C6.82969 5.26367 6.6158 5.31311 6.43246 5.51088C6.24912 5.70864 5.7373 6.18785 5.7373 7.16526C5.7373 8.13888 6.45156 9.08207 6.55086 9.21518C6.65017 9.34829 7.92971 11.4134 9.95024 12.2083C11.6308 12.87 11.9746 12.7369 12.3374 12.7027C12.7041 12.6685 13.5139 12.2235 13.6819 11.7595C13.8462 11.2955 13.8462 10.9 13.7965 10.8163C13.7468 10.7327 13.6132 10.6832 13.4145 10.5843C13.2159 10.4854 12.2381 10.0062 12.0548 9.93778C11.8715 9.86933 11.7378 9.8389 11.6079 10.0367C11.4742 10.2344 11.0923 10.6794 10.9777 10.8125C10.8631 10.9456 10.7447 10.9608 10.5461 10.862C10.3475 10.7631 9.70579 10.5539 8.9457 9.87693C8.35368 9.35209 7.95263 8.70175 7.83804 8.50399C7.72346 8.30622 7.82658 8.19973 7.92589 8.10085C8.01374 8.01337 8.12451 7.86885 8.22381 7.75476C8.32312 7.64066 8.3575 7.55699 8.42243 7.42388C8.48736 7.29077 8.4568 7.17667 8.40715 7.07779C8.3575 6.97891 7.96791 6.00149 7.79221 5.60976Z" fill="#4E5156"/>
<path fill-rule="evenodd" clip-rule="evenodd" d="M7.79221 5.60976C7.64325 5.27888 7.48665 5.27128 7.34532 5.26747C7.23074 5.26367 7.09705 5.26367 6.96337 5.26367C6.82969 5.26367 6.6158 5.31311 6.43246 5.51088C6.24912 5.70864 5.7373 6.18785 5.7373 7.16526C5.7373 8.13888 6.45156 9.08207 6.55086 9.21518C6.65017 9.34829 7.92971 11.4134 9.95024 12.2083C11.6308 12.87 11.9746 12.7369 12.3374 12.7027C12.7041 12.6685 13.5139 12.2235 13.6819 11.7595C13.8462 11.2955 13.8462 10.9 13.7965 10.8163C13.7468 10.7327 13.6132 10.6832 13.4145 10.5843C13.2159 10.4854 12.2381 10.0062 12.0548 9.93778C11.8715 9.86933 11.7378 9.8389 11.6079 10.0367C11.4742 10.2344 11.0923 10.6794 10.9777 10.8125C10.8631 10.9456 10.7447 10.9608 10.5461 10.862C10.3475 10.7631 9.70579 10.5539 8.9457 9.87693C8.35368 9.35209 7.95263 8.70175 7.83804 8.50399C7.72346 8.30622 7.82658 8.19973 7.92589 8.10085C8.01374 8.01337 8.12451 7.86885 8.22381 7.75476C8.32312 7.64066 8.3575 7.55699 8.42243 7.42388C8.48736 7.29077 8.4568 7.17667 8.40715 7.07779C8.3575 6.97891 7.96791 6.00149 7.79221 5.60976Z" fill="white" fill-opacity="0.2"/>
</svg>
