<svg width="106" height="24" viewBox="0 0 106 24" fill="none" xmlns="http://www.w3.org/2000/svg">
<path d="M12.312 1.80498e-05C10.1671 -0.00362003 8.05893 0.542764 6.19952 1.58425C4.34012 2.62573 2.79497 4.12561 1.71939 5.93311C0.643816 7.74062 0.0757179 9.79205 0.0722046 11.8812C0.0686912 13.9703 0.629887 16.0236 1.69938 17.8345L0 24L6.47463 22.3448C8.26557 23.2952 10.2725 23.7931 12.312 23.7931C15.4957 23.7113 18.5207 22.422 20.7428 20.1999C22.9649 17.9778 24.2083 14.9985 24.2083 11.8966C24.2083 8.79465 22.9649 5.81531 20.7428 3.5932C18.5207 1.37108 15.4957 0.0818104 12.312 1.80498e-05V1.80498e-05ZM12.312 21.7821C10.4946 21.7839 8.71019 21.3094 7.14588 20.4083L6.79751 20.1931L2.93143 21.1779L3.95955 17.5283L3.72164 17.1559C2.52747 15.2997 2.00037 13.1097 2.22316 10.9301C2.44596 8.75039 3.40602 6.70461 4.95248 5.11421C6.49893 3.52382 8.5441 2.47898 10.7666 2.1439C12.9891 1.80882 15.2629 2.2025 17.2306 3.26305C19.1984 4.32361 20.7486 5.99093 21.6376 8.00298C22.5266 10.015 22.7039 12.2578 22.1418 14.3787C21.5798 16.4996 20.31 18.3785 18.5323 19.7201C16.7545 21.0617 14.5694 21.7899 12.3205 21.7903L12.312 21.7821ZM17.8435 14.3835C17.5376 14.2345 16.0421 13.5559 15.7617 13.4152C15.4813 13.2745 15.2774 13.2662 15.0735 13.5641C14.8696 13.8621 14.2833 14.5324 14.1048 14.731C13.9264 14.9297 13.748 14.9545 13.4421 14.8055C12.5629 14.4513 11.7525 13.9531 11.046 13.3324C10.378 12.7312 9.80526 12.0367 9.34658 11.2717C9.16815 10.9738 9.34658 10.8166 9.48253 10.6676C9.61848 10.5186 9.78842 10.32 9.94136 10.1462C10.0671 9.99574 10.1701 9.82853 10.2473 9.64967C10.289 9.56233 10.3062 9.4658 10.2973 9.36988C10.2883 9.27395 10.2535 9.18204 10.1963 9.10346C10.1198 8.95449 9.50802 7.48967 9.25311 6.89381C8.99821 6.29794 8.7518 6.38898 8.56487 6.3807H7.98708C7.82632 6.37984 7.66725 6.41265 7.52065 6.47691C7.37405 6.54116 7.24334 6.63536 7.13739 6.75312C6.79029 7.07079 6.51561 7.45596 6.33118 7.88367C6.14674 8.31138 6.05666 8.77208 6.06678 9.23587C6.16844 10.3557 6.60243 11.4225 7.31582 12.3062C8.62351 14.2158 10.4184 15.7615 12.5244 16.7917C13.0794 17.0298 13.6466 17.2397 14.2238 17.4207C14.846 17.6039 15.5034 17.6436 16.1441 17.5366C16.5685 17.4514 16.9702 17.2817 17.324 17.0382C17.6779 16.7947 17.9762 16.4825 18.2003 16.1214C18.4006 15.6768 18.4626 15.1848 18.3788 14.7062C18.3873 14.6069 18.1833 14.5324 17.8435 14.3835ZM39.4426 14.2014L37.3863 6.24829H34.9817L32.9255 14.069L31.0137 6.24829H28.4136L31.549 17.7931H34.1915L36.1628 9.93105L38.236 17.7931H40.7851L43.9799 6.24829H41.4308L39.4426 14.2014ZM51.8905 10.1545C51.6541 9.84822 51.3411 9.60604 50.9813 9.45105C50.4849 9.26938 49.9564 9.18501 49.4264 9.20277C48.9532 9.21006 48.488 9.32333 48.0669 9.53381C47.5856 9.76889 47.1865 10.1375 46.9198 10.5931H46.8688V6.24829H44.5067V17.7931H46.8604V13.4069C46.8093 12.7711 46.9606 12.1353 47.2937 11.5862C47.4632 11.3916 47.6783 11.2396 47.9209 11.1431C48.1634 11.0466 48.4263 11.0084 48.6872 11.0317C48.9131 11.0077 49.1414 11.0426 49.3489 11.1328C49.5565 11.2229 49.7357 11.3651 49.8683 11.5448C50.1222 12.0214 50.2369 12.5567 50.1996 13.0924V17.8097H52.5533V12.6455C52.5562 12.1702 52.5078 11.6958 52.4088 11.2304C52.3317 10.8385 52.1663 10.4683 51.9245 10.1462L51.8905 10.1545ZM61.594 15.9476V11.5862C61.6156 11.1547 61.4934 10.728 61.2456 10.3697C61.0137 10.0617 60.7072 9.81439 60.3534 9.64967C59.9698 9.47199 59.5597 9.35467 59.1384 9.30208C58.7048 9.24277 58.2676 9.21235 57.8298 9.21105C57.3532 9.21201 56.8779 9.25914 56.4109 9.35174C55.9652 9.43606 55.5372 9.59273 55.1448 9.81518C54.776 10.0195 54.4593 10.3024 54.2187 10.6428C53.9592 11.0453 53.8155 11.5083 53.8023 11.9835H56.1559C56.1588 11.799 56.202 11.6172 56.2825 11.4503C56.3631 11.2833 56.4793 11.135 56.6233 11.0152C56.9672 10.8039 57.3749 10.7134 57.7789 10.7586C57.974 10.7446 58.17 10.7446 58.3651 10.7586C58.5362 10.7821 58.7008 10.8384 58.8495 10.9241C58.9892 11.0062 59.1036 11.1234 59.1808 11.2635C59.2731 11.4459 59.3169 11.6479 59.3083 11.851C59.3202 11.9508 59.3071 12.0518 59.2701 12.1455C59.2331 12.2392 59.1733 12.3227 59.0959 12.389C58.9103 12.5271 58.6955 12.6232 58.4671 12.6704C58.1684 12.7424 57.8644 12.7922 57.5579 12.8193C57.2124 12.8524 56.864 12.8966 56.5128 12.9517C56.1579 13.0048 55.8061 13.0767 55.4592 13.1669C55.1284 13.2521 54.8151 13.392 54.533 13.5807C54.2559 13.7722 54.0288 14.0245 53.8703 14.3172C53.6878 14.6827 53.6003 15.0863 53.6154 15.4924C53.6042 15.8761 53.6796 16.2575 53.8363 16.6097C53.9557 16.9028 54.1416 17.1659 54.3801 17.3793C54.6547 17.5895 54.9695 17.7443 55.3063 17.8345C55.6799 17.9349 56.0658 17.985 56.4533 17.9835C56.983 17.9848 57.5099 17.9095 58.0168 17.76C58.5248 17.6008 58.9816 17.3156 59.3423 16.9324C59.3536 17.0714 59.3735 17.2096 59.4018 17.3462C59.4301 17.4807 59.467 17.6134 59.5122 17.7435H61.8998C61.7682 17.5027 61.69 17.2376 61.6704 16.9655C61.6378 16.6217 61.6265 16.2762 61.6364 15.931L61.594 15.9476ZM59.2403 14.5738C59.2512 14.7474 59.2512 14.9215 59.2403 15.0952C59.2104 15.3197 59.1353 15.5362 59.0194 15.7324C58.8829 15.9556 58.6898 16.1409 58.4586 16.2704C58.1262 16.4384 57.7533 16.5156 57.3795 16.4938C57.197 16.494 57.015 16.4773 56.8357 16.4441C56.6705 16.4184 56.5119 16.3622 56.3684 16.2786C56.2355 16.1971 56.1271 16.083 56.054 15.9476C55.9717 15.7887 55.9308 15.6124 55.935 15.4345C55.9362 15.2462 55.9859 15.0613 56.0795 14.8966C56.1537 14.7601 56.2582 14.6413 56.3854 14.549C56.5225 14.4539 56.6746 14.3812 56.8357 14.3338C57.0082 14.2787 57.1842 14.2345 57.3625 14.2014L57.9233 14.1186L58.4586 14.0359C58.6227 14.0049 58.7845 13.9634 58.9429 13.9117C59.0801 13.871 59.2074 13.8034 59.3168 13.7131L59.2403 14.5738ZM65.9953 6.94346H63.6757V9.42622H62.2482V10.9655H63.6757V15.931C63.6597 16.2822 63.7327 16.6318 63.8881 16.949C64.0224 17.1971 64.2255 17.4036 64.4744 17.5448C64.7374 17.6888 65.0255 17.7842 65.3241 17.8262C65.6672 17.8763 66.0137 17.9012 66.3607 17.9007H67.0745C67.2966 17.8918 67.5179 17.8696 67.7372 17.8345V16.0138L67.3888 16.0635H67.0065C66.7253 16.0975 66.441 16.0298 66.2078 15.8731C66.0469 15.6459 65.9774 15.3691 66.0123 15.0952V10.9573H67.7117V9.43449H66.0123L65.9953 6.94346ZM75.7328 14.1435C75.5804 13.8823 75.3717 13.6564 75.121 13.4814C74.8604 13.299 74.5743 13.1541 74.2713 13.051C73.9421 12.9435 73.6074 12.8524 73.2687 12.7779L72.2915 12.571C72.0044 12.5149 71.7207 12.4431 71.4419 12.3559C71.2217 12.2901 71.0168 12.1833 70.8386 12.0414C70.7634 11.9798 70.7037 11.9023 70.664 11.8148C70.6242 11.7273 70.6055 11.6322 70.6092 11.5366C70.6018 11.3872 70.6501 11.2402 70.7451 11.1228C70.8322 11.0215 70.9429 10.9421 71.068 10.891C71.2033 10.8347 71.3465 10.7984 71.4928 10.7835H71.9262C72.3054 10.7735 72.6814 10.853 73.0223 11.0152C73.1819 11.1058 73.3134 11.2366 73.4031 11.3939C73.4928 11.5512 73.5374 11.7291 73.5321 11.909H75.7753C75.7503 11.4551 75.6102 11.0144 75.3674 10.6262C75.152 10.2914 74.8615 10.0084 74.5177 9.79863C74.1566 9.58605 73.7596 9.43755 73.3452 9.36001C72.9005 9.27207 72.4479 9.22771 71.9942 9.2276C71.538 9.22823 71.0829 9.26978 70.6346 9.35174C70.2135 9.42494 69.8084 9.56769 69.4366 9.7738C69.0853 9.97431 68.7928 10.2593 68.5869 10.6014C68.3547 11.0049 68.2429 11.4635 68.264 11.9255C68.2529 12.249 68.3322 12.5694 68.4934 12.8524C68.6464 13.104 68.8555 13.319 69.1052 13.4814C69.3676 13.6545 69.6536 13.791 69.9549 13.8869C70.2778 13.9945 70.6177 14.0772 70.9575 14.1517C71.6239 14.2788 72.2799 14.4531 72.9203 14.6731C73.3905 14.8441 73.6256 15.1035 73.6256 15.451C73.6323 15.631 73.5786 15.8083 73.4726 15.9559C73.3743 16.0893 73.2465 16.1996 73.0987 16.2786C72.9417 16.361 72.7726 16.4196 72.5974 16.4524C72.4244 16.4895 72.2478 16.5089 72.0706 16.5104C71.8442 16.5104 71.6187 16.4826 71.3994 16.4276C71.1955 16.3798 71.0025 16.2956 70.8301 16.1793C70.6623 16.0645 70.5229 15.9147 70.4222 15.7407C70.3118 15.5458 70.2562 15.326 70.2608 15.1035H68.0516C68.0542 15.5949 68.189 16.0771 68.4425 16.5021C68.6754 16.859 68.9893 17.1591 69.3601 17.3793C69.7517 17.6147 70.1834 17.78 70.6346 17.8676C71.1152 17.9663 71.605 18.0162 72.0961 18.0166C72.5783 18.0156 73.0593 17.9684 73.5321 17.8759C73.9736 17.7867 74.3943 17.6183 74.7726 17.3793C75.1235 17.15 75.4145 16.8439 75.6223 16.4855C75.8616 16.0631 75.979 15.5856 75.9622 15.1035C75.9851 14.7669 75.9177 14.4304 75.7668 14.1269L75.7328 14.1435ZM80.4146 6.26484L75.9707 17.7931H78.5962L79.5224 15.2193H83.9493L84.8415 17.7931H87.518L83.1251 6.24829L80.4146 6.26484ZM80.1682 13.349L81.7486 9.10346L83.2695 13.3241L80.1682 13.349ZM95.6665 10.5848C95.3417 10.1726 94.9266 9.83616 94.4514 9.60001C93.9234 9.34609 93.3409 9.21842 92.7521 9.2276C92.2476 9.22276 91.7484 9.32736 91.2906 9.53381C90.8326 9.74832 90.4509 10.0913 90.1945 10.5186V9.43449H87.9513V20.6897H90.3135V16.7586C90.5901 17.1581 90.9715 17.4782 91.418 17.6855C91.877 17.8982 92.3798 18.0058 92.888 18C93.4589 18.0122 94.0243 17.8901 94.5364 17.6441C94.9978 17.4162 95.4012 17.0911 95.7175 16.6924C96.0385 16.2814 96.2777 15.8154 96.4227 15.3186C96.5809 14.7806 96.6581 14.2231 96.6521 13.6635C96.6546 13.0877 96.5774 12.5143 96.4227 11.9586C96.2742 11.4524 96.0292 10.978 95.7005 10.56L95.6665 10.5848ZM94.154 14.64C94.0929 14.9336 93.9778 15.214 93.8142 15.4676C93.6405 15.7272 93.403 15.9404 93.1234 16.088C92.8437 16.2356 92.5306 16.313 92.2125 16.313C91.8944 16.313 91.5813 16.2356 91.3016 16.088C91.022 15.9404 90.7845 15.7272 90.6108 15.4676C90.4455 15.2139 90.3276 14.9337 90.2625 14.64C90.1895 14.3165 90.1525 13.9864 90.152 13.6552C90.152 13.3189 90.1862 12.9835 90.254 12.6538C90.3163 12.3606 90.4314 12.0804 90.5939 11.8262C90.7524 11.58 90.9677 11.3731 91.2226 11.2221C91.5168 11.058 91.8525 10.9777 92.1913 10.9904C92.5245 10.9795 92.8542 11.0598 93.1429 11.2221C93.4008 11.3759 93.6188 11.5855 93.7802 11.8345C93.9466 12.0886 94.0673 12.3684 94.1371 12.6621C94.21 12.9855 94.2471 13.3157 94.2475 13.6469C94.2602 13.9735 94.2403 14.3006 94.188 14.6235L94.154 14.64ZM105.769 12.0166C105.629 11.4988 105.386 11.0126 105.056 10.5848C104.733 10.1738 104.321 9.83741 103.849 9.60001C103.308 9.3399 102.71 9.21207 102.107 9.2276C101.603 9.22276 101.103 9.32736 100.646 9.53381C100.189 9.75039 99.808 10.0928 99.5496 10.5186V10.5186V9.43449H97.3064V20.6897H99.66V16.7586C99.9366 17.1581 100.318 17.4782 100.765 17.6855C101.224 17.8979 101.726 18.0055 102.235 18C102.805 18.0122 103.371 17.8901 103.883 17.6441C104.344 17.4162 104.748 17.0911 105.064 16.6924C105.385 16.2814 105.624 15.8154 105.769 15.3186C105.928 14.7808 106.006 14.2231 105.999 13.6635C106.01 13.1002 105.944 12.538 105.803 11.9917L105.769 12.0166ZM103.543 14.64C103.483 14.934 103.368 15.2146 103.203 15.4676C103.044 15.7086 102.828 15.9098 102.574 16.0552C102.152 16.2897 101.654 16.3595 101.181 16.2504C100.708 16.1414 100.295 15.8616 100.025 15.4676C99.8604 15.2137 99.7425 14.9336 99.677 14.64C99.6042 14.3165 99.5672 13.9864 99.5666 13.6552C99.5667 13.3189 99.6009 12.9835 99.6685 12.6538C99.7307 12.3605 99.8458 12.0803 100.008 11.8262C100.167 11.5804 100.383 11.3736 100.637 11.2221C100.932 11.0584 101.267 10.9781 101.606 10.9904C101.939 10.9795 102.269 11.0598 102.557 11.2221C102.815 11.3759 103.033 11.5855 103.195 11.8345C103.362 12.0883 103.483 12.3682 103.552 12.6621C103.625 12.9855 103.662 13.3157 103.662 13.6469C103.669 13.9741 103.644 14.3011 103.586 14.6235L103.543 14.64Z" fill="#FBF8F8"/>
</svg>
