<svg width="36" height="36" viewBox="0 0 36 36" fill="none" xmlns="http://www.w3.org/2000/svg">
<rect width="36" height="36" rx="8" fill="white" fill-opacity="0.16"/>
<path d="M18 20.25C19.2426 20.25 20.25 19.2426 20.25 18C20.25 16.7574 19.2426 15.75 18 15.75C16.7574 15.75 15.75 16.7574 15.75 18C15.75 19.2426 16.7574 20.25 18 20.25Z" fill="white"/>
<path d="M28.0496 20.0625L28.0275 20.0447L26.5481 18.8845C26.4545 18.8104 26.3797 18.7151 26.33 18.6065C26.2803 18.4979 26.2571 18.379 26.2622 18.2597V17.7178C26.2575 17.5992 26.281 17.4812 26.3308 17.3735C26.3806 17.2658 26.4553 17.1714 26.5486 17.0981L28.0275 15.9375L28.0496 15.9197C28.2776 15.7297 28.4307 15.4647 28.4814 15.1723C28.532 14.8798 28.477 14.5788 28.3261 14.3231L26.3241 10.8591C26.3218 10.8558 26.3197 10.8523 26.318 10.8488C26.1663 10.5966 25.9311 10.4056 25.6532 10.3089C25.3754 10.2121 25.0724 10.2157 24.7969 10.3191L24.7805 10.3252L23.0414 11.025C22.9317 11.0694 22.8129 11.087 22.695 11.0765C22.5771 11.066 22.4633 11.0276 22.3631 10.9645C22.2094 10.8677 22.0531 10.7761 21.8944 10.6898C21.7915 10.634 21.7031 10.5548 21.6364 10.4586C21.5697 10.3623 21.5266 10.2518 21.5105 10.1358L21.2485 8.28L21.2428 8.24625C21.1858 7.95881 21.0315 7.69977 20.806 7.51265C20.5805 7.32554 20.2974 7.22176 20.0044 7.21875H15.9956C15.6985 7.2197 15.4112 7.32549 15.1844 7.51749C14.9576 7.70948 14.8058 7.97536 14.7558 8.26828L14.7516 8.29453L14.4905 10.1541C14.4745 10.2697 14.4317 10.38 14.3655 10.4762C14.2994 10.5724 14.2117 10.6518 14.1094 10.7081C13.9491 10.7944 13.7925 10.8858 13.6406 10.9809C13.5406 11.0436 13.4272 11.0817 13.3096 11.0921C13.192 11.1024 13.0737 11.0847 12.9642 11.0405L11.2238 10.3373L11.2074 10.3308C10.9315 10.2273 10.6281 10.2238 10.3499 10.321C10.0717 10.4181 9.8364 10.6097 9.68487 10.8623L9.67877 10.8727L7.67393 14.3391C7.52282 14.595 7.46767 14.8963 7.51833 15.1891C7.569 15.482 7.72218 15.7472 7.95049 15.9375L7.97252 15.9553L9.4519 17.1155C9.54558 17.1896 9.62035 17.2849 9.67006 17.3935C9.71976 17.5021 9.74299 17.621 9.73784 17.7403V18.2822C9.74253 18.4008 9.71902 18.5188 9.66923 18.6265C9.61944 18.7342 9.54479 18.8286 9.45143 18.9019L7.97252 20.0625L7.95049 20.0803C7.72241 20.2703 7.56935 20.5353 7.51868 20.8277C7.46802 21.1202 7.52304 21.4212 7.67393 21.6769L9.67596 25.1409C9.67826 25.1442 9.6803 25.1477 9.68205 25.1512C9.83375 25.4034 10.069 25.5944 10.3468 25.6911C10.6247 25.7879 10.9277 25.7843 11.2031 25.6809L11.2196 25.6748L12.9572 24.975C13.067 24.9306 13.1857 24.913 13.3036 24.9235C13.4216 24.934 13.5353 24.9724 13.6355 25.0355C13.7892 25.1327 13.9455 25.2242 14.1042 25.3102C14.2072 25.366 14.2955 25.4452 14.3622 25.5414C14.4289 25.6377 14.472 25.7482 14.4881 25.8642L14.7488 27.72L14.7544 27.7537C14.8115 28.0417 14.9662 28.3011 15.1923 28.4882C15.4184 28.6754 15.7021 28.7789 15.9956 28.7812H20.0044C20.3016 28.7803 20.5888 28.6745 20.8157 28.4825C21.0425 28.2905 21.1942 28.0246 21.2442 27.7317L21.2485 27.7055L21.5096 25.8459C21.5258 25.7301 21.569 25.6196 21.6355 25.5234C21.7021 25.4272 21.7903 25.3479 21.893 25.2919C22.0533 25.2056 22.2099 25.1142 22.3617 25.0191C22.4617 24.9564 22.5752 24.9183 22.6928 24.9079C22.8104 24.8976 22.9287 24.9153 23.0381 24.9595L24.7786 25.6603L24.795 25.6669C25.0709 25.7705 25.3744 25.7741 25.6526 25.677C25.9308 25.5798 26.1661 25.3881 26.3175 25.1353C26.3194 25.1318 26.3214 25.1283 26.3236 25.125L28.3256 21.6614C28.477 21.4055 28.5324 21.1041 28.4818 20.8112C28.4312 20.5182 28.278 20.2528 28.0496 20.0625ZM21.7458 18.1763C21.7117 18.9021 21.4674 19.6025 21.0426 20.1921C20.6178 20.7817 20.0308 21.2352 19.3531 21.4974C18.6754 21.7597 17.936 21.8193 17.225 21.6692C16.514 21.519 15.862 21.1655 15.3481 20.6516C14.8343 20.1377 14.4809 19.4856 14.3308 18.7746C14.1807 18.0635 14.2405 17.3242 14.5028 16.6465C14.7651 15.9688 15.2186 15.3819 15.8083 14.9572C16.398 14.5325 17.0983 14.2883 17.8242 14.2542C18.3454 14.2313 18.8656 14.317 19.3518 14.506C19.838 14.695 20.2796 14.9831 20.6484 15.352C21.0172 15.7208 21.3053 16.1624 21.4942 16.6487C21.6831 17.1349 21.7688 17.6551 21.7458 18.1763Z" fill="white"/>
</svg>
